G04*
G04 #@! TF.GenerationSoftware,Altium Limited,Altium Designer,19.0.15 (446)*
G04*
G04 Layer_Physical_Order=2*
G04 Layer_Color=16711680*
%FSLAX23Y23*%
%MOIN*%
G70*
G01*
G75*
%ADD15C,0.010*%
%ADD71C,0.020*%
%ADD74P,0.130X8X22.5*%
%ADD75C,0.120*%
%ADD76C,0.037*%
%ADD77R,0.071X0.071*%
%ADD78R,0.071X0.071*%
%ADD79C,0.071*%
%ADD80C,0.035*%
%ADD81C,0.030*%
G36*
X6990Y1635D02*
X3455D01*
Y4990D01*
X6990D01*
Y1635D01*
D02*
G37*
%LPC*%
G36*
X6225Y4920D02*
X5636D01*
X5632Y4919D01*
X5628Y4917D01*
X5594Y4883D01*
X5589Y4884D01*
X5581Y4882D01*
X5575Y4878D01*
X5570Y4871D01*
X5569Y4863D01*
X5570Y4856D01*
X5575Y4849D01*
X5581Y4845D01*
X5589Y4843D01*
X5597Y4845D01*
X5603Y4849D01*
X5608Y4856D01*
X5609Y4863D01*
X5608Y4868D01*
X5640Y4900D01*
X6221D01*
X6240Y4881D01*
Y4875D01*
X6210D01*
Y4795D01*
X6290D01*
Y4875D01*
X6260D01*
Y4885D01*
X6259Y4889D01*
X6257Y4892D01*
X6232Y4917D01*
X6229Y4919D01*
X6225Y4920D01*
D02*
G37*
G36*
X6190Y4875D02*
X6110D01*
Y4795D01*
X6190D01*
Y4875D01*
D02*
G37*
G36*
X6390D02*
X6310D01*
Y4795D01*
X6340D01*
Y4789D01*
X6274Y4724D01*
X5837D01*
X5834Y4728D01*
X5828Y4732D01*
X5820Y4734D01*
X5812Y4732D01*
X5806Y4728D01*
X5801Y4721D01*
X5800Y4713D01*
X5801Y4706D01*
X5806Y4699D01*
X5812Y4695D01*
X5820Y4693D01*
X5828Y4695D01*
X5834Y4699D01*
X5837Y4703D01*
X6278D01*
X6282Y4704D01*
X6286Y4706D01*
X6357Y4778D01*
X6359Y4781D01*
X6360Y4785D01*
Y4795D01*
X6390D01*
Y4875D01*
D02*
G37*
G36*
X5595Y4635D02*
X5587Y4634D01*
X5581Y4629D01*
X5578Y4625D01*
X5460D01*
X5456Y4624D01*
X5453Y4622D01*
X5403Y4572D01*
X5401Y4569D01*
X5400Y4565D01*
Y3889D01*
X5136Y3625D01*
X4500D01*
X4496Y3624D01*
X4493Y3622D01*
X4426Y3555D01*
X3650D01*
X3646Y3554D01*
X3643Y3552D01*
X3613Y3522D01*
X3611Y3519D01*
X3610Y3515D01*
Y3502D01*
X3606Y3499D01*
X3601Y3493D01*
X3600Y3485D01*
X3601Y3477D01*
X3606Y3471D01*
X3612Y3466D01*
X3620Y3465D01*
X3628Y3466D01*
X3634Y3471D01*
X3639Y3477D01*
X3640Y3485D01*
X3639Y3493D01*
X3634Y3499D01*
X3630Y3502D01*
Y3511D01*
X3654Y3535D01*
X4430D01*
X4434Y3536D01*
X4437Y3538D01*
X4504Y3605D01*
X5140D01*
X5144Y3606D01*
X5147Y3608D01*
X5417Y3878D01*
X5419Y3881D01*
X5420Y3885D01*
Y4561D01*
X5464Y4605D01*
X5578D01*
X5581Y4601D01*
X5587Y4596D01*
X5595Y4595D01*
X5603Y4596D01*
X5609Y4601D01*
X5614Y4607D01*
X5615Y4615D01*
X5614Y4623D01*
X5609Y4629D01*
X5603Y4634D01*
X5595Y4635D01*
D02*
G37*
G36*
X5590Y4837D02*
X5582Y4836D01*
X5576Y4831D01*
X5571Y4825D01*
X5570Y4817D01*
X5571Y4809D01*
X5576Y4803D01*
X5582Y4798D01*
X5590Y4797D01*
X5598Y4798D01*
X5604Y4803D01*
X5607Y4807D01*
X5624D01*
X5861Y4570D01*
X5864Y4568D01*
X5868Y4567D01*
X5953D01*
X5956Y4563D01*
X5962Y4558D01*
X5970Y4557D01*
X5978Y4558D01*
X5984Y4563D01*
X5989Y4569D01*
X5990Y4577D01*
X5989Y4585D01*
X5984Y4591D01*
X5978Y4596D01*
X5970Y4597D01*
X5962Y4596D01*
X5956Y4591D01*
X5953Y4587D01*
X5872D01*
X5635Y4824D01*
X5632Y4826D01*
X5628Y4827D01*
X5607D01*
X5604Y4831D01*
X5598Y4836D01*
X5590Y4837D01*
D02*
G37*
G36*
X5595Y4585D02*
X5587Y4584D01*
X5581Y4579D01*
X5578Y4575D01*
X5515D01*
X5511Y4574D01*
X5508Y4572D01*
X5473Y4537D01*
X5471Y4534D01*
X5470Y4530D01*
Y3864D01*
X5181Y3575D01*
X4525D01*
X4521Y3574D01*
X4518Y3572D01*
X4468Y3522D01*
X4466Y3519D01*
X4465Y3515D01*
Y3507D01*
X4461Y3504D01*
X4456Y3498D01*
X4455Y3490D01*
X4456Y3482D01*
X4461Y3476D01*
X4467Y3471D01*
X4475Y3470D01*
X4483Y3471D01*
X4489Y3476D01*
X4494Y3482D01*
X4495Y3490D01*
X4494Y3498D01*
X4489Y3504D01*
X4487Y3506D01*
X4486Y3512D01*
X4529Y3555D01*
X5185D01*
X5189Y3556D01*
X5192Y3558D01*
X5487Y3853D01*
X5489Y3856D01*
X5490Y3860D01*
Y4526D01*
X5519Y4555D01*
X5578D01*
X5581Y4551D01*
X5587Y4546D01*
X5595Y4545D01*
X5603Y4546D01*
X5609Y4551D01*
X5614Y4557D01*
X5615Y4565D01*
X5614Y4573D01*
X5609Y4579D01*
X5603Y4584D01*
X5595Y4585D01*
D02*
G37*
G36*
X3640Y4590D02*
X3560D01*
Y4510D01*
X3640D01*
Y4590D01*
D02*
G37*
G36*
X6790Y4526D02*
X6781Y4524D01*
X6773Y4519D01*
X6768Y4511D01*
X6766Y4502D01*
X6768Y4492D01*
X6773Y4485D01*
X6781Y4479D01*
X6790Y4477D01*
X6799Y4479D01*
X6807Y4485D01*
X6812Y4492D01*
X6814Y4502D01*
X6812Y4511D01*
X6807Y4519D01*
X6799Y4524D01*
X6790Y4526D01*
D02*
G37*
G36*
X6580Y4975D02*
X5090D01*
X5084Y4974D01*
X5079Y4971D01*
X5039Y4930D01*
X4912D01*
X4911Y4931D01*
X4904Y4936D01*
X4895Y4938D01*
X4886Y4936D01*
X4879Y4931D01*
X4874Y4924D01*
X4872Y4915D01*
X4874Y4906D01*
X4879Y4899D01*
X4886Y4894D01*
X4895Y4892D01*
X4904Y4894D01*
X4911Y4899D01*
X4912Y4900D01*
X5045D01*
X5051Y4901D01*
X5056Y4904D01*
X5096Y4945D01*
X6574D01*
X6580Y4939D01*
Y4927D01*
X6579Y4926D01*
X6574Y4919D01*
X6572Y4910D01*
X6574Y4901D01*
X6579Y4894D01*
X6580Y4893D01*
Y4861D01*
X6182Y4464D01*
X6011Y4636D01*
X6006Y4639D01*
X6000Y4640D01*
X5933D01*
X5928Y4644D01*
X5920Y4645D01*
X5912Y4644D01*
X5906Y4639D01*
X5901Y4633D01*
X5900Y4625D01*
X5901Y4617D01*
X5906Y4611D01*
X5912Y4606D01*
X5920Y4605D01*
X5928Y4606D01*
X5933Y4610D01*
X5994D01*
X6170Y4434D01*
Y4148D01*
X6166Y4143D01*
X6165Y4138D01*
X6165Y4137D01*
X6160D01*
X6160Y4138D01*
X6159Y4143D01*
X6154Y4149D01*
X6148Y4154D01*
X6140Y4155D01*
X6132Y4154D01*
X6126Y4149D01*
X6121Y4143D01*
X6120Y4135D01*
X6121Y4127D01*
X6126Y4121D01*
X6132Y4116D01*
X6140Y4115D01*
X6148Y4116D01*
X6154Y4121D01*
X6159Y4127D01*
X6160Y4132D01*
X6160Y4133D01*
X6165D01*
X6165Y4132D01*
X6166Y4127D01*
X6171Y4121D01*
X6177Y4116D01*
X6185Y4115D01*
X6193Y4116D01*
X6199Y4121D01*
X6204Y4127D01*
X6205Y4135D01*
X6204Y4143D01*
X6200Y4148D01*
Y4435D01*
X6200Y4438D01*
X6606Y4844D01*
X6609Y4849D01*
X6610Y4855D01*
Y4893D01*
X6611Y4894D01*
X6616Y4901D01*
X6618Y4910D01*
X6616Y4919D01*
X6611Y4926D01*
X6610Y4927D01*
Y4945D01*
X6609Y4951D01*
X6606Y4956D01*
X6591Y4971D01*
X6586Y4974D01*
X6580Y4975D01*
D02*
G37*
G36*
X3640Y4690D02*
X3560D01*
Y4610D01*
X3640D01*
Y4640D01*
X3686D01*
X3748Y4578D01*
X3751Y4576D01*
X3755Y4575D01*
X4886D01*
X5003Y4458D01*
X5006Y4456D01*
X5010Y4455D01*
X5258D01*
X5261Y4451D01*
X5267Y4446D01*
X5275Y4445D01*
X5283Y4446D01*
X5289Y4451D01*
X5294Y4457D01*
X5295Y4465D01*
X5294Y4473D01*
X5289Y4479D01*
X5283Y4484D01*
X5275Y4485D01*
X5267Y4484D01*
X5261Y4479D01*
X5258Y4475D01*
X5014D01*
X4897Y4592D01*
X4894Y4594D01*
X4890Y4595D01*
X3759D01*
X3697Y4657D01*
X3694Y4659D01*
X3690Y4660D01*
X3640D01*
Y4690D01*
D02*
G37*
G36*
Y4790D02*
X3560D01*
Y4710D01*
X3640D01*
Y4740D01*
X3651D01*
X3713Y4678D01*
X3716Y4676D01*
X3720Y4675D01*
X4846D01*
X5013Y4508D01*
X5016Y4506D01*
X5020Y4505D01*
X5276D01*
X5315Y4466D01*
Y4440D01*
X5316Y4436D01*
X5318Y4433D01*
X5343Y4408D01*
X5346Y4406D01*
X5350Y4405D01*
X5353D01*
X5356Y4401D01*
X5362Y4396D01*
X5370Y4395D01*
X5378Y4396D01*
X5384Y4401D01*
X5389Y4407D01*
X5390Y4415D01*
X5389Y4423D01*
X5384Y4429D01*
X5378Y4434D01*
X5370Y4435D01*
X5362Y4434D01*
X5356Y4429D01*
X5356Y4429D01*
X5351Y4429D01*
X5335Y4444D01*
Y4470D01*
X5334Y4474D01*
X5332Y4477D01*
X5287Y4522D01*
X5284Y4524D01*
X5280Y4525D01*
X5024D01*
X4857Y4692D01*
X4854Y4694D01*
X4850Y4695D01*
X3724D01*
X3662Y4757D01*
X3659Y4759D01*
X3655Y4760D01*
X3640D01*
Y4790D01*
D02*
G37*
G36*
X4880Y4390D02*
X4872Y4389D01*
X4866Y4384D01*
X4861Y4378D01*
X4860Y4370D01*
X4861Y4365D01*
X4826Y4330D01*
X4732D01*
X4728Y4329D01*
X4725Y4327D01*
X4317Y3920D01*
X3635D01*
Y3950D01*
X3555D01*
Y3870D01*
X3635D01*
Y3900D01*
X4322D01*
X4326Y3901D01*
X4329Y3903D01*
X4736Y4310D01*
X4830D01*
X4834Y4311D01*
X4837Y4313D01*
X4875Y4351D01*
X4880Y4350D01*
X4888Y4351D01*
X4894Y4356D01*
X4899Y4362D01*
X4900Y4370D01*
X4899Y4378D01*
X4894Y4384D01*
X4888Y4389D01*
X4880Y4390D01*
D02*
G37*
G36*
X6790Y4353D02*
X6781Y4351D01*
X6773Y4345D01*
X6768Y4338D01*
X6766Y4328D01*
X6768Y4319D01*
X6773Y4311D01*
X6781Y4306D01*
X6790Y4304D01*
X6799Y4306D01*
X6807Y4311D01*
X6812Y4319D01*
X6814Y4328D01*
X6812Y4338D01*
X6807Y4345D01*
X6799Y4351D01*
X6790Y4353D01*
D02*
G37*
G36*
X4670Y4335D02*
X4662Y4334D01*
X4656Y4329D01*
X4653Y4325D01*
X4450D01*
X4446Y4324D01*
X4443Y4322D01*
X4141Y4020D01*
X3635D01*
Y4050D01*
X3555D01*
Y3970D01*
X3635D01*
Y4000D01*
X4145D01*
X4149Y4001D01*
X4152Y4003D01*
X4454Y4305D01*
X4653D01*
X4656Y4301D01*
X4662Y4296D01*
X4670Y4295D01*
X4678Y4296D01*
X4684Y4301D01*
X4689Y4307D01*
X4690Y4315D01*
X4689Y4323D01*
X4684Y4329D01*
X4678Y4334D01*
X4670Y4335D01*
D02*
G37*
G36*
X4935Y4490D02*
X4110D01*
X4106Y4489D01*
X4103Y4487D01*
X3836Y4220D01*
X3635D01*
Y4250D01*
X3555D01*
Y4170D01*
X3635D01*
Y4200D01*
X3840D01*
X3844Y4201D01*
X3847Y4203D01*
X4114Y4470D01*
X4931D01*
X4988Y4413D01*
X4991Y4411D01*
X4995Y4410D01*
X5231D01*
X5323Y4317D01*
Y4208D01*
X5319Y4205D01*
X5315Y4199D01*
X5313Y4191D01*
X5315Y4183D01*
X5319Y4177D01*
X5326Y4172D01*
X5333Y4171D01*
X5341Y4172D01*
X5348Y4177D01*
X5352Y4183D01*
X5354Y4191D01*
X5352Y4199D01*
X5348Y4205D01*
X5344Y4208D01*
Y4322D01*
X5343Y4326D01*
X5341Y4329D01*
X5242Y4427D01*
X5239Y4429D01*
X5235Y4430D01*
X4999D01*
X4942Y4487D01*
X4939Y4489D01*
X4935Y4490D01*
D02*
G37*
G36*
X4920Y4455D02*
X4185D01*
X4181Y4454D01*
X4178Y4452D01*
X3846Y4120D01*
X3635D01*
Y4150D01*
X3555D01*
Y4070D01*
X3635D01*
Y4100D01*
X3850D01*
X3854Y4101D01*
X3857Y4103D01*
X4189Y4435D01*
X4916D01*
X4968Y4382D01*
Y4208D01*
X4964Y4205D01*
X4960Y4199D01*
X4958Y4191D01*
X4960Y4183D01*
X4964Y4177D01*
X4971Y4172D01*
X4978Y4171D01*
X4986Y4172D01*
X4993Y4177D01*
X4997Y4183D01*
X4999Y4191D01*
X4997Y4199D01*
X4993Y4205D01*
X4989Y4208D01*
Y4387D01*
X4988Y4391D01*
X4986Y4394D01*
X4927Y4452D01*
X4924Y4454D01*
X4920Y4455D01*
D02*
G37*
G36*
X4776Y4125D02*
X4768Y4124D01*
X4762Y4119D01*
X4757Y4113D01*
X4756Y4105D01*
X4757Y4100D01*
X4667Y4010D01*
X4487D01*
X4484Y4014D01*
X4478Y4019D01*
X4470Y4020D01*
X4462Y4019D01*
X4456Y4014D01*
X4451Y4008D01*
X4450Y4000D01*
X4451Y3992D01*
X4456Y3986D01*
X4462Y3981D01*
X4470Y3980D01*
X4478Y3981D01*
X4484Y3986D01*
X4487Y3990D01*
X4671D01*
X4675Y3991D01*
X4678Y3993D01*
X4771Y4086D01*
X4776Y4085D01*
X4784Y4086D01*
X4790Y4091D01*
X4795Y4097D01*
X4796Y4105D01*
X4795Y4113D01*
X4790Y4119D01*
X4784Y4124D01*
X4776Y4125D01*
D02*
G37*
G36*
X3595Y3851D02*
X3584Y3849D01*
X3575Y3845D01*
X3566Y3839D01*
X3560Y3830D01*
X3556Y3821D01*
X3554Y3810D01*
X3556Y3799D01*
X3560Y3790D01*
X3566Y3781D01*
X3575Y3775D01*
X3584Y3771D01*
X3595Y3769D01*
X3606Y3771D01*
X3615Y3775D01*
X3624Y3781D01*
X3630Y3790D01*
X3634Y3799D01*
X3636Y3810D01*
X3634Y3821D01*
X3630Y3830D01*
X3624Y3839D01*
X3615Y3845D01*
X3606Y3849D01*
X3595Y3851D01*
D02*
G37*
G36*
X6710Y4020D02*
X6702Y4019D01*
X6696Y4014D01*
X6691Y4008D01*
X6690Y4000D01*
X6691Y3992D01*
X6695Y3987D01*
Y3946D01*
X6514Y3765D01*
X6103D01*
X6098Y3769D01*
X6090Y3770D01*
X6082Y3769D01*
X6076Y3764D01*
X6071Y3758D01*
X6070Y3753D01*
X6070Y3752D01*
X6065D01*
X6065Y3753D01*
X6064Y3758D01*
X6059Y3764D01*
X6053Y3769D01*
X6045Y3770D01*
X6037Y3769D01*
X6031Y3764D01*
X6026Y3758D01*
X6025Y3750D01*
X6026Y3742D01*
X6031Y3736D01*
X6037Y3731D01*
X6045Y3730D01*
X6053Y3731D01*
X6059Y3736D01*
X6064Y3742D01*
X6065Y3747D01*
X6065Y3748D01*
X6070D01*
X6070Y3747D01*
X6071Y3742D01*
X6076Y3736D01*
X6082Y3731D01*
X6090Y3730D01*
X6098Y3731D01*
X6103Y3735D01*
X6520D01*
X6526Y3736D01*
X6531Y3739D01*
X6721Y3929D01*
X6724Y3934D01*
X6725Y3940D01*
Y3987D01*
X6729Y3992D01*
X6730Y4000D01*
X6729Y4008D01*
X6724Y4014D01*
X6718Y4019D01*
X6710Y4020D01*
D02*
G37*
G36*
X5595Y4535D02*
X5587Y4534D01*
X5581Y4529D01*
X5576Y4523D01*
X5575Y4515D01*
X5576Y4507D01*
X5581Y4501D01*
X5585Y4498D01*
Y4469D01*
X5547Y4431D01*
X5545Y4428D01*
X5544Y4424D01*
Y3813D01*
X5333Y3602D01*
X5331Y3599D01*
X5330Y3595D01*
Y3497D01*
X5326Y3494D01*
X5321Y3488D01*
X5320Y3480D01*
X5321Y3472D01*
X5326Y3466D01*
X5332Y3461D01*
X5340Y3460D01*
X5348Y3461D01*
X5354Y3466D01*
X5359Y3472D01*
X5360Y3480D01*
X5359Y3488D01*
X5354Y3494D01*
X5350Y3497D01*
Y3591D01*
X5561Y3802D01*
X5563Y3805D01*
X5564Y3809D01*
Y4420D01*
X5602Y4458D01*
X5604Y4461D01*
X5605Y4465D01*
Y4498D01*
X5609Y4501D01*
X5614Y4507D01*
X5615Y4515D01*
X5614Y4523D01*
X5609Y4529D01*
X5603Y4534D01*
X5595Y4535D01*
D02*
G37*
G36*
Y4385D02*
X5587Y4384D01*
X5581Y4379D01*
X5576Y4373D01*
X5575Y4365D01*
X5576Y4357D01*
X5581Y4351D01*
X5585Y4348D01*
Y4135D01*
X5586Y4131D01*
X5588Y4128D01*
X6210Y3506D01*
Y3492D01*
X6206Y3489D01*
X6201Y3483D01*
X6200Y3475D01*
X6201Y3467D01*
X6206Y3461D01*
X6212Y3456D01*
X6220Y3455D01*
X6228Y3456D01*
X6234Y3461D01*
X6239Y3467D01*
X6240Y3475D01*
X6239Y3483D01*
X6234Y3489D01*
X6230Y3492D01*
Y3510D01*
X6229Y3514D01*
X6227Y3517D01*
X5605Y4139D01*
Y4348D01*
X5609Y4351D01*
X5614Y4357D01*
X5615Y4365D01*
X5614Y4373D01*
X5609Y4379D01*
X5603Y4384D01*
X5595Y4385D01*
D02*
G37*
G36*
X6830Y2965D02*
X6817Y2964D01*
X6805Y2960D01*
X6794Y2954D01*
X6784Y2946D01*
X6776Y2936D01*
X6770Y2925D01*
X6766Y2913D01*
X6765Y2900D01*
X6766Y2887D01*
X6770Y2875D01*
X6776Y2864D01*
X6784Y2854D01*
X6794Y2846D01*
X6805Y2840D01*
X6817Y2836D01*
X6830Y2835D01*
X6843Y2836D01*
X6855Y2840D01*
X6866Y2846D01*
X6876Y2854D01*
X6884Y2864D01*
X6890Y2875D01*
X6894Y2887D01*
X6895Y2900D01*
X6894Y2913D01*
X6890Y2925D01*
X6884Y2936D01*
X6876Y2946D01*
X6866Y2954D01*
X6855Y2960D01*
X6843Y2964D01*
X6830Y2965D01*
D02*
G37*
G36*
X6370D02*
X6357Y2964D01*
X6345Y2960D01*
X6334Y2954D01*
X6324Y2946D01*
X6316Y2936D01*
X6310Y2925D01*
X6306Y2913D01*
X6305Y2900D01*
X6306Y2887D01*
X6310Y2875D01*
X6316Y2864D01*
X6324Y2854D01*
X6334Y2846D01*
X6345Y2840D01*
X6357Y2836D01*
X6370Y2835D01*
X6383Y2836D01*
X6395Y2840D01*
X6406Y2846D01*
X6416Y2854D01*
X6424Y2864D01*
X6430Y2875D01*
X6434Y2887D01*
X6435Y2900D01*
X6434Y2913D01*
X6430Y2925D01*
X6424Y2936D01*
X6416Y2946D01*
X6406Y2954D01*
X6395Y2960D01*
X6383Y2964D01*
X6370Y2965D01*
D02*
G37*
G36*
X5978D02*
X5966Y2964D01*
X5953Y2960D01*
X5942Y2954D01*
X5932Y2946D01*
X5924Y2936D01*
X5918Y2925D01*
X5914Y2913D01*
X5913Y2900D01*
X5914Y2887D01*
X5918Y2875D01*
X5924Y2864D01*
X5932Y2854D01*
X5942Y2846D01*
X5953Y2840D01*
X5966Y2836D01*
X5978Y2835D01*
X5991Y2836D01*
X6003Y2840D01*
X6015Y2846D01*
X6025Y2854D01*
X6033Y2864D01*
X6039Y2875D01*
X6042Y2887D01*
X6044Y2900D01*
X6042Y2913D01*
X6039Y2925D01*
X6033Y2936D01*
X6025Y2946D01*
X6015Y2954D01*
X6003Y2960D01*
X5991Y2964D01*
X5978Y2965D01*
D02*
G37*
G36*
X5518D02*
X5506Y2964D01*
X5493Y2960D01*
X5482Y2954D01*
X5472Y2946D01*
X5464Y2936D01*
X5458Y2925D01*
X5454Y2913D01*
X5453Y2900D01*
X5454Y2887D01*
X5458Y2875D01*
X5464Y2864D01*
X5472Y2854D01*
X5482Y2846D01*
X5493Y2840D01*
X5506Y2836D01*
X5518Y2835D01*
X5531Y2836D01*
X5543Y2840D01*
X5555Y2846D01*
X5565Y2854D01*
X5573Y2864D01*
X5579Y2875D01*
X5582Y2887D01*
X5584Y2900D01*
X5582Y2913D01*
X5579Y2925D01*
X5573Y2936D01*
X5565Y2946D01*
X5555Y2954D01*
X5543Y2960D01*
X5531Y2964D01*
X5518Y2965D01*
D02*
G37*
G36*
X5127D02*
X5114Y2964D01*
X5102Y2960D01*
X5090Y2954D01*
X5080Y2946D01*
X5072Y2936D01*
X5066Y2925D01*
X5063Y2913D01*
X5061Y2900D01*
X5063Y2887D01*
X5066Y2875D01*
X5072Y2864D01*
X5080Y2854D01*
X5090Y2846D01*
X5102Y2840D01*
X5114Y2836D01*
X5127Y2835D01*
X5139Y2836D01*
X5152Y2840D01*
X5163Y2846D01*
X5173Y2854D01*
X5181Y2864D01*
X5187Y2875D01*
X5191Y2887D01*
X5192Y2900D01*
X5191Y2913D01*
X5187Y2925D01*
X5181Y2936D01*
X5173Y2946D01*
X5163Y2954D01*
X5152Y2960D01*
X5139Y2964D01*
X5127Y2965D01*
D02*
G37*
G36*
X4667D02*
X4654Y2964D01*
X4642Y2960D01*
X4630Y2954D01*
X4620Y2946D01*
X4612Y2936D01*
X4606Y2925D01*
X4603Y2913D01*
X4601Y2900D01*
X4603Y2887D01*
X4606Y2875D01*
X4612Y2864D01*
X4620Y2854D01*
X4630Y2846D01*
X4642Y2840D01*
X4654Y2836D01*
X4667Y2835D01*
X4679Y2836D01*
X4692Y2840D01*
X4703Y2846D01*
X4713Y2854D01*
X4721Y2864D01*
X4727Y2875D01*
X4731Y2887D01*
X4732Y2900D01*
X4731Y2913D01*
X4727Y2925D01*
X4721Y2936D01*
X4713Y2946D01*
X4703Y2954D01*
X4692Y2960D01*
X4679Y2964D01*
X4667Y2965D01*
D02*
G37*
G36*
X4275D02*
X4262Y2964D01*
X4250Y2960D01*
X4239Y2954D01*
X4229Y2946D01*
X4221Y2936D01*
X4215Y2925D01*
X4211Y2913D01*
X4210Y2900D01*
X4211Y2887D01*
X4215Y2875D01*
X4221Y2864D01*
X4229Y2854D01*
X4239Y2846D01*
X4250Y2840D01*
X4262Y2836D01*
X4275Y2835D01*
X4288Y2836D01*
X4300Y2840D01*
X4311Y2846D01*
X4321Y2854D01*
X4329Y2864D01*
X4335Y2875D01*
X4339Y2887D01*
X4340Y2900D01*
X4339Y2913D01*
X4335Y2925D01*
X4329Y2936D01*
X4321Y2946D01*
X4311Y2954D01*
X4300Y2960D01*
X4288Y2964D01*
X4275Y2965D01*
D02*
G37*
G36*
X3815D02*
X3802Y2964D01*
X3790Y2960D01*
X3779Y2954D01*
X3769Y2946D01*
X3761Y2936D01*
X3755Y2925D01*
X3751Y2913D01*
X3750Y2900D01*
X3751Y2887D01*
X3755Y2875D01*
X3761Y2864D01*
X3769Y2854D01*
X3779Y2846D01*
X3790Y2840D01*
X3802Y2836D01*
X3815Y2835D01*
X3828Y2836D01*
X3840Y2840D01*
X3851Y2846D01*
X3861Y2854D01*
X3869Y2864D01*
X3875Y2875D01*
X3879Y2887D01*
X3880Y2900D01*
X3879Y2913D01*
X3875Y2925D01*
X3869Y2936D01*
X3861Y2946D01*
X3851Y2954D01*
X3840Y2960D01*
X3828Y2964D01*
X3815Y2965D01*
D02*
G37*
G36*
X6370Y2490D02*
X6357Y2489D01*
X6345Y2485D01*
X6334Y2479D01*
X6324Y2471D01*
X6316Y2461D01*
X6310Y2450D01*
X6306Y2438D01*
X6305Y2425D01*
X6306Y2412D01*
X6310Y2400D01*
X6316Y2389D01*
X6324Y2379D01*
X6334Y2371D01*
X6345Y2365D01*
X6357Y2361D01*
X6370Y2360D01*
X6383Y2361D01*
X6395Y2365D01*
X6406Y2371D01*
X6416Y2379D01*
X6424Y2389D01*
X6430Y2400D01*
X6434Y2412D01*
X6435Y2425D01*
X6434Y2438D01*
X6430Y2450D01*
X6424Y2461D01*
X6416Y2471D01*
X6406Y2479D01*
X6395Y2485D01*
X6383Y2489D01*
X6370Y2490D01*
D02*
G37*
G36*
X5518D02*
X5506Y2489D01*
X5493Y2485D01*
X5482Y2479D01*
X5472Y2471D01*
X5464Y2461D01*
X5458Y2450D01*
X5454Y2438D01*
X5453Y2425D01*
X5454Y2412D01*
X5458Y2400D01*
X5464Y2389D01*
X5472Y2379D01*
X5482Y2371D01*
X5493Y2365D01*
X5506Y2361D01*
X5518Y2360D01*
X5531Y2361D01*
X5543Y2365D01*
X5555Y2371D01*
X5565Y2379D01*
X5573Y2389D01*
X5579Y2400D01*
X5582Y2412D01*
X5584Y2425D01*
X5582Y2438D01*
X5579Y2450D01*
X5573Y2461D01*
X5565Y2471D01*
X5555Y2479D01*
X5543Y2485D01*
X5531Y2489D01*
X5518Y2490D01*
D02*
G37*
G36*
X4667D02*
X4654Y2489D01*
X4642Y2485D01*
X4630Y2479D01*
X4620Y2471D01*
X4612Y2461D01*
X4606Y2450D01*
X4603Y2438D01*
X4601Y2425D01*
X4603Y2412D01*
X4606Y2400D01*
X4612Y2389D01*
X4620Y2379D01*
X4630Y2371D01*
X4642Y2365D01*
X4654Y2361D01*
X4667Y2360D01*
X4679Y2361D01*
X4692Y2365D01*
X4703Y2371D01*
X4713Y2379D01*
X4721Y2389D01*
X4727Y2400D01*
X4731Y2412D01*
X4732Y2425D01*
X4731Y2438D01*
X4727Y2450D01*
X4721Y2461D01*
X4713Y2471D01*
X4703Y2479D01*
X4692Y2485D01*
X4679Y2489D01*
X4667Y2490D01*
D02*
G37*
G36*
X3815D02*
X3802Y2489D01*
X3790Y2485D01*
X3779Y2479D01*
X3769Y2471D01*
X3761Y2461D01*
X3755Y2450D01*
X3751Y2438D01*
X3750Y2425D01*
X3751Y2412D01*
X3755Y2400D01*
X3761Y2389D01*
X3769Y2379D01*
X3779Y2371D01*
X3790Y2365D01*
X3802Y2361D01*
X3815Y2360D01*
X3828Y2361D01*
X3840Y2365D01*
X3851Y2371D01*
X3861Y2379D01*
X3869Y2389D01*
X3875Y2400D01*
X3879Y2412D01*
X3880Y2425D01*
X3879Y2438D01*
X3875Y2450D01*
X3869Y2461D01*
X3861Y2471D01*
X3851Y2479D01*
X3840Y2485D01*
X3828Y2489D01*
X3815Y2490D01*
D02*
G37*
G36*
X6830Y2480D02*
X6817Y2479D01*
X6805Y2475D01*
X6794Y2469D01*
X6784Y2461D01*
X6776Y2451D01*
X6770Y2440D01*
X6766Y2428D01*
X6765Y2415D01*
X6766Y2402D01*
X6770Y2390D01*
X6776Y2379D01*
X6784Y2369D01*
X6794Y2361D01*
X6805Y2355D01*
X6817Y2351D01*
X6830Y2350D01*
X6843Y2351D01*
X6855Y2355D01*
X6866Y2361D01*
X6876Y2369D01*
X6884Y2379D01*
X6890Y2390D01*
X6894Y2402D01*
X6895Y2415D01*
X6894Y2428D01*
X6890Y2440D01*
X6884Y2451D01*
X6876Y2461D01*
X6866Y2469D01*
X6855Y2475D01*
X6843Y2479D01*
X6830Y2480D01*
D02*
G37*
G36*
X5978D02*
X5966Y2479D01*
X5953Y2475D01*
X5942Y2469D01*
X5932Y2461D01*
X5924Y2451D01*
X5918Y2440D01*
X5914Y2428D01*
X5913Y2415D01*
X5914Y2402D01*
X5918Y2390D01*
X5924Y2379D01*
X5932Y2369D01*
X5942Y2361D01*
X5953Y2355D01*
X5966Y2351D01*
X5978Y2350D01*
X5991Y2351D01*
X6003Y2355D01*
X6015Y2361D01*
X6025Y2369D01*
X6033Y2379D01*
X6039Y2390D01*
X6042Y2402D01*
X6044Y2415D01*
X6042Y2428D01*
X6039Y2440D01*
X6033Y2451D01*
X6025Y2461D01*
X6015Y2469D01*
X6003Y2475D01*
X5991Y2479D01*
X5978Y2480D01*
D02*
G37*
G36*
X5127D02*
X5114Y2479D01*
X5102Y2475D01*
X5090Y2469D01*
X5080Y2461D01*
X5072Y2451D01*
X5066Y2440D01*
X5063Y2428D01*
X5061Y2415D01*
X5063Y2402D01*
X5066Y2390D01*
X5072Y2379D01*
X5080Y2369D01*
X5090Y2361D01*
X5102Y2355D01*
X5114Y2351D01*
X5127Y2350D01*
X5139Y2351D01*
X5152Y2355D01*
X5163Y2361D01*
X5173Y2369D01*
X5181Y2379D01*
X5187Y2390D01*
X5191Y2402D01*
X5192Y2415D01*
X5191Y2428D01*
X5187Y2440D01*
X5181Y2451D01*
X5173Y2461D01*
X5163Y2469D01*
X5152Y2475D01*
X5139Y2479D01*
X5127Y2480D01*
D02*
G37*
G36*
X4275D02*
X4262Y2479D01*
X4250Y2475D01*
X4239Y2469D01*
X4229Y2461D01*
X4221Y2451D01*
X4215Y2440D01*
X4211Y2428D01*
X4210Y2415D01*
X4211Y2402D01*
X4215Y2390D01*
X4221Y2379D01*
X4229Y2369D01*
X4239Y2361D01*
X4250Y2355D01*
X4262Y2351D01*
X4275Y2350D01*
X4288Y2351D01*
X4300Y2355D01*
X4311Y2361D01*
X4321Y2369D01*
X4329Y2379D01*
X4335Y2390D01*
X4339Y2402D01*
X4340Y2415D01*
X4339Y2428D01*
X4335Y2440D01*
X4329Y2451D01*
X4321Y2461D01*
X4311Y2469D01*
X4300Y2475D01*
X4288Y2479D01*
X4275Y2480D01*
D02*
G37*
G36*
X6441Y2045D02*
X6376D01*
X6344Y2012D01*
Y1947D01*
X6376Y1914D01*
X6441D01*
X6473Y1947D01*
Y2012D01*
X6441Y2045D01*
D02*
G37*
G36*
X5587D02*
X5522D01*
X5489Y2012D01*
Y1947D01*
X5522Y1914D01*
X5587D01*
X5619Y1947D01*
Y2012D01*
X5587Y2045D01*
D02*
G37*
G36*
X4732D02*
X4667D01*
X4635Y2012D01*
Y1947D01*
X4667Y1914D01*
X4732D01*
X4765Y1947D01*
Y2012D01*
X4732Y2045D01*
D02*
G37*
G36*
X3878D02*
X3812D01*
X3780Y2012D01*
Y1947D01*
X3812Y1914D01*
X3878D01*
X3910Y1947D01*
Y2012D01*
X3878Y2045D01*
D02*
G37*
G36*
X6808Y2045D02*
X6796Y2044D01*
X6784Y2040D01*
X6772Y2034D01*
X6762Y2026D01*
X6754Y2016D01*
X6748Y2004D01*
X6744Y1992D01*
X6743Y1980D01*
X6744Y1967D01*
X6748Y1955D01*
X6754Y1943D01*
X6762Y1933D01*
X6772Y1925D01*
X6784Y1919D01*
X6796Y1915D01*
X6808Y1914D01*
X6821Y1915D01*
X6833Y1919D01*
X6845Y1925D01*
X6855Y1933D01*
X6863Y1943D01*
X6869Y1955D01*
X6873Y1967D01*
X6874Y1980D01*
X6873Y1992D01*
X6869Y2004D01*
X6863Y2016D01*
X6855Y2026D01*
X6845Y2034D01*
X6833Y2040D01*
X6821Y2044D01*
X6808Y2045D01*
D02*
G37*
G36*
X5954D02*
X5941Y2044D01*
X5929Y2040D01*
X5918Y2034D01*
X5908Y2026D01*
X5900Y2016D01*
X5894Y2004D01*
X5890Y1992D01*
X5889Y1980D01*
X5890Y1967D01*
X5894Y1955D01*
X5900Y1943D01*
X5908Y1933D01*
X5918Y1925D01*
X5929Y1919D01*
X5941Y1915D01*
X5954Y1914D01*
X5967Y1915D01*
X5979Y1919D01*
X5990Y1925D01*
X6000Y1933D01*
X6008Y1943D01*
X6014Y1955D01*
X6018Y1967D01*
X6019Y1980D01*
X6018Y1992D01*
X6014Y2004D01*
X6008Y2016D01*
X6000Y2026D01*
X5990Y2034D01*
X5979Y2040D01*
X5967Y2044D01*
X5954Y2045D01*
D02*
G37*
G36*
X5100D02*
X5087Y2044D01*
X5075Y2040D01*
X5063Y2034D01*
X5053Y2026D01*
X5045Y2016D01*
X5039Y2004D01*
X5035Y1992D01*
X5034Y1980D01*
X5035Y1967D01*
X5039Y1955D01*
X5045Y1943D01*
X5053Y1933D01*
X5063Y1925D01*
X5075Y1919D01*
X5087Y1915D01*
X5100Y1914D01*
X5112Y1915D01*
X5124Y1919D01*
X5136Y1925D01*
X5146Y1933D01*
X5154Y1943D01*
X5160Y1955D01*
X5164Y1967D01*
X5165Y1980D01*
X5164Y1992D01*
X5160Y2004D01*
X5154Y2016D01*
X5146Y2026D01*
X5136Y2034D01*
X5124Y2040D01*
X5112Y2044D01*
X5100Y2045D01*
D02*
G37*
G36*
X4245D02*
X4232Y2044D01*
X4220Y2040D01*
X4209Y2034D01*
X4199Y2026D01*
X4191Y2016D01*
X4185Y2004D01*
X4181Y1992D01*
X4180Y1980D01*
X4181Y1967D01*
X4185Y1955D01*
X4191Y1943D01*
X4199Y1933D01*
X4209Y1925D01*
X4220Y1919D01*
X4232Y1915D01*
X4245Y1914D01*
X4258Y1915D01*
X4270Y1919D01*
X4281Y1925D01*
X4291Y1933D01*
X4299Y1943D01*
X4305Y1955D01*
X4309Y1967D01*
X4310Y1980D01*
X4309Y1992D01*
X4305Y2004D01*
X4299Y2016D01*
X4291Y2026D01*
X4281Y2034D01*
X4270Y2040D01*
X4258Y2044D01*
X4245Y2045D01*
D02*
G37*
G36*
X5845Y3050D02*
X5655D01*
X5651Y3049D01*
X5650Y3045D01*
X5650Y1905D01*
X5651Y1901D01*
X5655Y1900D01*
X5845D01*
X5849Y1901D01*
X5850Y1905D01*
X5850Y3045D01*
X5849Y3049D01*
X5845Y3050D01*
D02*
G37*
G36*
X6695Y3045D02*
X6505D01*
X6501Y3044D01*
X6500Y3040D01*
X6500Y1900D01*
X6501Y1896D01*
X6505Y1895D01*
X6695D01*
X6699Y1896D01*
X6700Y1900D01*
X6700Y3040D01*
X6699Y3044D01*
X6695Y3045D01*
D02*
G37*
G36*
X4990Y3050D02*
X4800D01*
X4796Y3049D01*
X4795Y3045D01*
X4795Y1895D01*
X4796Y1891D01*
X4800Y1890D01*
X4990D01*
X4994Y1891D01*
X4995Y1895D01*
X4995Y3045D01*
X4994Y3049D01*
X4990Y3050D01*
D02*
G37*
G36*
X4130Y3040D02*
X3940D01*
X3936Y3039D01*
X3935Y3035D01*
X3935Y1890D01*
X3936Y1886D01*
X3940Y1885D01*
X4130D01*
X4134Y1886D01*
X4135Y1890D01*
X4135Y3035D01*
X4134Y3039D01*
X4130Y3040D01*
D02*
G37*
%LPD*%
G36*
X5845Y1905D02*
X5655D01*
X5655Y3045D01*
X5845D01*
X5845Y1905D01*
D02*
G37*
G36*
X6695Y1900D02*
X6505D01*
X6505Y3040D01*
X6695D01*
X6695Y1900D01*
D02*
G37*
G36*
X4990Y1895D02*
X4800D01*
X4800Y3045D01*
X4990D01*
X4990Y1895D01*
D02*
G37*
G36*
X4130Y1890D02*
X3940D01*
X3940Y3035D01*
X4130D01*
X4130Y1890D01*
D02*
G37*
D15*
X5636Y4910D02*
X6225D01*
X5589Y4863D02*
X5636Y4910D01*
X6225D02*
X6250Y4885D01*
Y4835D02*
Y4885D01*
X5820Y4713D02*
X6278D01*
X6350Y4785D02*
Y4835D01*
X6278Y4713D02*
X6350Y4785D01*
X5868Y4577D02*
X5970D01*
X5628Y4817D02*
X5868Y4577D01*
X5590Y4817D02*
X5628D01*
X3595Y4210D02*
X3840D01*
X4110Y4480D01*
X4935D01*
X4185Y4445D02*
X4920D01*
X3850Y4110D02*
X4185Y4445D01*
X4920D02*
X4978Y4387D01*
X4935Y4480D02*
X4995Y4420D01*
X4978Y4191D02*
Y4387D01*
X4995Y4420D02*
X5235D01*
X5010Y4465D02*
X5275D01*
X4890Y4585D02*
X5010Y4465D01*
X5235Y4420D02*
X5333Y4322D01*
Y4191D02*
Y4322D01*
X3595Y4110D02*
X3850D01*
X4671Y4000D02*
X4776Y4105D01*
X4470Y4000D02*
X4671D01*
X4322Y3910D02*
X4732Y4320D01*
X3595Y3910D02*
X4322D01*
X4732Y4320D02*
X4830D01*
X4880Y4370D01*
X4450Y4315D02*
X4670D01*
X4145Y4010D02*
X4450Y4315D01*
X3595Y4010D02*
X4145D01*
X5280Y4515D02*
X5325Y4470D01*
Y4440D02*
Y4470D01*
Y4440D02*
X5350Y4415D01*
X5370D01*
X5020Y4515D02*
X5280D01*
X3600Y4750D02*
X3655D01*
X3720Y4685D01*
X4850D01*
X5020Y4515D01*
X3690Y4650D02*
X3755Y4585D01*
X4890D01*
X3600Y4650D02*
X3690D01*
X5410Y3885D02*
Y4565D01*
X5460Y4615D01*
X5140Y3615D02*
X5410Y3885D01*
X5480Y3860D02*
Y4530D01*
X5460Y4615D02*
X5595D01*
X5185Y3565D02*
X5480Y3860D01*
Y4530D02*
X5515Y4565D01*
X5554Y4424D02*
X5595Y4465D01*
X5554Y3809D02*
Y4424D01*
X5340Y3595D02*
X5554Y3809D01*
X5340Y3480D02*
Y3595D01*
X4500Y3615D02*
X5140D01*
X4430Y3545D02*
X4500Y3615D01*
X3650Y3545D02*
X4430D01*
X3620Y3515D02*
X3650Y3545D01*
X3620Y3485D02*
Y3515D01*
X5595Y4135D02*
X6220Y3510D01*
Y3475D02*
Y3510D01*
X5595Y4135D02*
Y4365D01*
X4525Y3565D02*
X5185D01*
X4475Y3515D02*
X4525Y3565D01*
X4475Y3490D02*
Y3515D01*
X5515Y4565D02*
X5595D01*
Y4465D02*
Y4515D01*
D71*
X6595Y4910D02*
Y4945D01*
X6580Y4960D02*
X6595Y4945D01*
X5090Y4960D02*
X6580D01*
X5045Y4915D02*
X5090Y4960D01*
X4895Y4915D02*
X5045D01*
X6182Y4443D02*
X6595Y4855D01*
X6000Y4625D02*
X6182Y4443D01*
X5920Y4625D02*
X6000D01*
X6185Y4135D02*
Y4435D01*
X6595Y4855D02*
Y4910D01*
X6520Y3750D02*
X6710Y3940D01*
Y4000D01*
X6090Y3750D02*
X6520D01*
D74*
X3845Y1980D02*
D03*
X4045Y2960D02*
D03*
X4700Y1980D02*
D03*
X4897Y2960D02*
D03*
X5554Y1980D02*
D03*
X6409D02*
D03*
X5748Y2960D02*
D03*
X6600D02*
D03*
D75*
X4045Y1980D02*
D03*
X4245D02*
D03*
X3815Y2900D02*
D03*
Y2425D02*
D03*
X4275Y2415D02*
D03*
Y2900D02*
D03*
X4899Y1980D02*
D03*
X5100D02*
D03*
X4667Y2900D02*
D03*
Y2425D02*
D03*
X5127Y2415D02*
D03*
Y2900D02*
D03*
X5754Y1980D02*
D03*
X5954D02*
D03*
X6609D02*
D03*
X6808D02*
D03*
X5518Y2900D02*
D03*
Y2425D02*
D03*
X5978Y2415D02*
D03*
Y2900D02*
D03*
X6370D02*
D03*
Y2425D02*
D03*
X6830Y2415D02*
D03*
Y2900D02*
D03*
D76*
X6790Y4502D02*
D03*
Y4328D02*
D03*
D77*
X3600Y4850D02*
D03*
Y4750D02*
D03*
Y4650D02*
D03*
Y4550D02*
D03*
X3595Y4310D02*
D03*
Y4210D02*
D03*
Y4110D02*
D03*
Y4010D02*
D03*
Y3910D02*
D03*
D78*
X6450Y4835D02*
D03*
X6350D02*
D03*
X6250D02*
D03*
X6150D02*
D03*
D79*
X3595Y3810D02*
D03*
D80*
X6155Y3070D02*
D03*
Y2810D02*
D03*
X5305Y3065D02*
D03*
Y2805D02*
D03*
X4455Y3054D02*
D03*
Y2794D02*
D03*
X3570Y3040D02*
D03*
Y2780D02*
D03*
X5735Y4188D02*
D03*
X5700Y4610D02*
D03*
X5920Y4010D02*
D03*
X4960Y4817D02*
D03*
X5205Y4865D02*
D03*
X5410D02*
D03*
X5076Y4578D02*
D03*
X5130D02*
D03*
X5184D02*
D03*
X5238D02*
D03*
X5076Y4628D02*
D03*
X5130D02*
D03*
X5184D02*
D03*
X5238D02*
D03*
X5076Y4678D02*
D03*
X5130D02*
D03*
X5184D02*
D03*
X5238D02*
D03*
Y4735D02*
D03*
X5184D02*
D03*
X5130D02*
D03*
X5076D02*
D03*
X3570Y1880D02*
D03*
Y2140D02*
D03*
Y2375D02*
D03*
Y2635D02*
D03*
X6155Y1895D02*
D03*
Y2155D02*
D03*
Y2400D02*
D03*
Y2660D02*
D03*
X5305Y1915D02*
D03*
Y2175D02*
D03*
Y2400D02*
D03*
Y2660D02*
D03*
X4455Y1905D02*
D03*
Y2165D02*
D03*
Y2395D02*
D03*
Y2655D02*
D03*
X6200Y4554D02*
D03*
X6460D02*
D03*
X3825Y4440D02*
D03*
X4065Y4065D02*
D03*
X4080Y3765D02*
D03*
X4340D02*
D03*
X4798D02*
D03*
X5058D02*
D03*
X5865Y3760D02*
D03*
X5605D02*
D03*
X4895Y4915D02*
D03*
X6595Y4910D02*
D03*
D81*
X6375Y3827D02*
D03*
X4173Y3505D02*
D03*
X5033Y3515D02*
D03*
X5913Y3510D02*
D03*
X6788Y3520D02*
D03*
X6285Y4200D02*
D03*
X6928Y3740D02*
D03*
Y3515D02*
D03*
X6723Y3740D02*
D03*
X6708Y4935D02*
D03*
X6913Y4710D02*
D03*
Y4935D02*
D03*
X6608Y4475D02*
D03*
X6185Y4135D02*
D03*
X6140D02*
D03*
X5920Y4625D02*
D03*
X5970Y4577D02*
D03*
X5820Y4713D02*
D03*
X5590Y4817D02*
D03*
X5589Y4863D02*
D03*
X5333Y4191D02*
D03*
X4978D02*
D03*
X4470Y4000D02*
D03*
X4880Y4370D02*
D03*
X4670Y4315D02*
D03*
X5275Y4465D02*
D03*
X5370Y4415D02*
D03*
X4776Y4105D02*
D03*
X3620Y3485D02*
D03*
X5595Y4615D02*
D03*
X4475Y3490D02*
D03*
X5595Y4565D02*
D03*
X5340Y3480D02*
D03*
X5595Y4515D02*
D03*
X6220Y3475D02*
D03*
X5595Y4365D02*
D03*
X6710Y4000D02*
D03*
X6090Y3750D02*
D03*
X6045D02*
D03*
M02*
