G04*
G04 #@! TF.GenerationSoftware,Altium Limited,Altium Designer,19.0.15 (446)*
G04*
G04 Layer_Color=16711935*
%FSLAX23Y23*%
%MOIN*%
G70*
G01*
G75*
%ADD65P,0.139X8X22.5*%
%ADD66C,0.128*%
%ADD67C,0.045*%
%ADD68R,0.079X0.079*%
%ADD69R,0.079X0.079*%
%ADD70C,0.079*%
D65*
X3845Y1980D02*
D03*
X4045Y2960D02*
D03*
X4700Y1980D02*
D03*
X4897Y2960D02*
D03*
X5554Y1980D02*
D03*
X6409D02*
D03*
X5748Y2960D02*
D03*
X6600D02*
D03*
D66*
X4045Y1980D02*
D03*
X4245D02*
D03*
X3815Y2900D02*
D03*
Y2425D02*
D03*
X4275Y2415D02*
D03*
Y2900D02*
D03*
X4899Y1980D02*
D03*
X5100D02*
D03*
X4667Y2900D02*
D03*
Y2425D02*
D03*
X5127Y2415D02*
D03*
Y2900D02*
D03*
X5754Y1980D02*
D03*
X5954D02*
D03*
X6609D02*
D03*
X6808D02*
D03*
X5518Y2900D02*
D03*
Y2425D02*
D03*
X5978Y2415D02*
D03*
Y2900D02*
D03*
X6370D02*
D03*
Y2425D02*
D03*
X6830Y2415D02*
D03*
Y2900D02*
D03*
D67*
X6790Y4502D02*
D03*
Y4328D02*
D03*
D68*
X3600Y4850D02*
D03*
Y4750D02*
D03*
Y4650D02*
D03*
Y4550D02*
D03*
X3595Y4310D02*
D03*
Y4210D02*
D03*
Y4110D02*
D03*
Y4010D02*
D03*
Y3910D02*
D03*
D69*
X6450Y4835D02*
D03*
X6350D02*
D03*
X6250D02*
D03*
X6150D02*
D03*
D70*
X3595Y3810D02*
D03*
M02*
