G04*
G04 #@! TF.GenerationSoftware,Altium Limited,Altium Designer,19.0.15 (446)*
G04*
G04 Layer_Color=128*
%FSLAX23Y23*%
%MOIN*%
G70*
G01*
G75*
%ADD82C,0.002*%
D82*
X3806Y1980D02*
X3884D01*
X3845Y1940D02*
Y2019D01*
X4006Y1980D02*
X4084D01*
X4045Y1940D02*
Y2019D01*
X4206Y1980D02*
X4284D01*
X4245Y1940D02*
Y2019D01*
X3776Y2900D02*
X3854D01*
X3815Y2861D02*
Y2939D01*
X3776Y2425D02*
X3854D01*
X3815Y2386D02*
Y2464D01*
X4236Y2415D02*
X4314D01*
X4275Y2376D02*
Y2454D01*
X4236Y2900D02*
X4314D01*
X4275Y2861D02*
Y2939D01*
X4006Y2960D02*
X4084D01*
X4045Y2921D02*
Y2999D01*
X4660Y1980D02*
X4739D01*
X4700Y1940D02*
Y2019D01*
X4860Y1980D02*
X4939D01*
X4899Y1940D02*
Y2019D01*
X5060Y1980D02*
X5139D01*
X5100Y1940D02*
Y2019D01*
X4627Y2900D02*
X4706D01*
X4667Y2861D02*
Y2939D01*
X4627Y2425D02*
X4706D01*
X4667Y2386D02*
Y2464D01*
X5087Y2415D02*
X5166D01*
X5127Y2376D02*
Y2454D01*
X5087Y2900D02*
X5166D01*
X5127Y2861D02*
Y2939D01*
X4857Y2960D02*
X4936D01*
X4897Y2921D02*
Y2999D01*
X5515Y1980D02*
X5593D01*
X5554Y1940D02*
Y2019D01*
X5715Y1980D02*
X5793D01*
X5754Y1940D02*
Y2019D01*
X5915Y1980D02*
X5993D01*
X5954Y1940D02*
Y2019D01*
X6369Y1980D02*
X6448D01*
X6409Y1940D02*
Y2019D01*
X6569Y1980D02*
X6648D01*
X6609Y1940D02*
Y2019D01*
X6769Y1980D02*
X6848D01*
X6808Y1940D02*
Y2019D01*
X5479Y2900D02*
X5558D01*
X5518Y2861D02*
Y2939D01*
X5479Y2425D02*
X5558D01*
X5518Y2386D02*
Y2464D01*
X5939Y2415D02*
X6018D01*
X5978Y2376D02*
Y2454D01*
X5939Y2900D02*
X6018D01*
X5978Y2861D02*
Y2939D01*
X5709Y2960D02*
X5788D01*
X5748Y2921D02*
Y2999D01*
X6331Y2900D02*
X6409D01*
X6370Y2861D02*
Y2939D01*
X6331Y2425D02*
X6409D01*
X6370Y2386D02*
Y2464D01*
X6791Y2415D02*
X6869D01*
X6830Y2376D02*
Y2454D01*
X6791Y2900D02*
X6869D01*
X6830Y2861D02*
Y2939D01*
X6561Y2960D02*
X6639D01*
X6600Y2921D02*
Y2999D01*
X6771Y4502D02*
X6809D01*
X6790Y4483D02*
Y4520D01*
X6771Y4328D02*
X6809D01*
X6790Y4310D02*
Y4347D01*
X3580Y4850D02*
X3620D01*
X3600Y4830D02*
Y4870D01*
X3580Y4750D02*
X3620D01*
X3600Y4730D02*
Y4770D01*
X3580Y4650D02*
X3620D01*
X3600Y4630D02*
Y4670D01*
X3580Y4550D02*
X3620D01*
X3600Y4530D02*
Y4570D01*
X6430Y4835D02*
X6470D01*
X6450Y4815D02*
Y4855D01*
X6330Y4835D02*
X6370D01*
X6350Y4815D02*
Y4855D01*
X6230Y4835D02*
X6270D01*
X6250Y4815D02*
Y4855D01*
X6130Y4835D02*
X6170D01*
X6150Y4815D02*
Y4855D01*
X3575Y4310D02*
X3615D01*
X3595Y4290D02*
Y4330D01*
X3575Y4210D02*
X3615D01*
X3595Y4190D02*
Y4230D01*
X3575Y4110D02*
X3615D01*
X3595Y4090D02*
Y4130D01*
X3575Y4010D02*
X3615D01*
X3595Y3990D02*
Y4030D01*
X3575Y3910D02*
X3615D01*
X3595Y3890D02*
Y3930D01*
X3575Y3810D02*
X3615D01*
X3595Y3790D02*
Y3830D01*
X6147Y3070D02*
X6163D01*
X6155Y3062D02*
Y3079D01*
X6147Y2810D02*
X6163D01*
X6155Y2802D02*
Y2819D01*
X5297Y3065D02*
X5313D01*
X5305Y3056D02*
Y3073D01*
X5297Y2805D02*
X5313D01*
X5305Y2796D02*
Y2813D01*
X4446Y3054D02*
X4464D01*
X4455Y3046D02*
Y3062D01*
X4446Y2794D02*
X4464D01*
X4455Y2786D02*
Y2803D01*
X3562Y3040D02*
X3579D01*
X3570Y3032D02*
Y3049D01*
X3562Y2780D02*
X3579D01*
X3570Y2772D02*
Y2789D01*
X5727Y4188D02*
X5744D01*
X5735Y4180D02*
Y4197D01*
X5692Y4610D02*
X5708D01*
X5700Y4602D02*
Y4619D01*
X5911Y4010D02*
X5929D01*
X5920Y4002D02*
Y4018D01*
X4951Y4817D02*
X4969D01*
X4960Y4808D02*
Y4825D01*
X5196Y4865D02*
X5214D01*
X5205Y4857D02*
Y4873D01*
X5402Y4865D02*
X5418D01*
X5410Y4857D02*
Y4873D01*
X5068Y4578D02*
X5085D01*
X5076Y4570D02*
Y4587D01*
X5122Y4578D02*
X5139D01*
X5130Y4570D02*
Y4587D01*
X5176Y4578D02*
X5193D01*
X5184Y4570D02*
Y4587D01*
X5230Y4578D02*
X5247D01*
X5238Y4570D02*
Y4587D01*
X5068Y4628D02*
X5085D01*
X5076Y4620D02*
Y4637D01*
X5122Y4628D02*
X5139D01*
X5130Y4620D02*
Y4637D01*
X5176Y4628D02*
X5193D01*
X5184Y4620D02*
Y4637D01*
X5230Y4628D02*
X5247D01*
X5238Y4620D02*
Y4637D01*
X5068Y4678D02*
X5085D01*
X5076Y4670D02*
Y4687D01*
X5122Y4678D02*
X5139D01*
X5130Y4670D02*
Y4687D01*
X5176Y4678D02*
X5193D01*
X5184Y4670D02*
Y4687D01*
X5230Y4678D02*
X5247D01*
X5238Y4670D02*
Y4687D01*
X5230Y4735D02*
X5247D01*
X5238Y4727D02*
Y4744D01*
X5176Y4735D02*
X5193D01*
X5184Y4727D02*
Y4744D01*
X5122Y4735D02*
X5139D01*
X5130Y4727D02*
Y4744D01*
X5068Y4735D02*
X5085D01*
X5076Y4727D02*
Y4744D01*
X3562Y1880D02*
X3579D01*
X3570Y1872D02*
Y1888D01*
X3562Y2140D02*
X3579D01*
X3570Y2132D02*
Y2148D01*
X3562Y2375D02*
X3579D01*
X3570Y2366D02*
Y2384D01*
X3562Y2635D02*
X3579D01*
X3570Y2626D02*
Y2644D01*
X6147Y1895D02*
X6163D01*
X6155Y1887D02*
Y1903D01*
X6147Y2155D02*
X6163D01*
X6155Y2147D02*
Y2164D01*
X6147Y2400D02*
X6163D01*
X6155Y2391D02*
Y2408D01*
X6147Y2660D02*
X6163D01*
X6155Y2651D02*
Y2668D01*
X5297Y1915D02*
X5313D01*
X5305Y1906D02*
Y1923D01*
X5297Y2175D02*
X5313D01*
X5305Y2167D02*
Y2184D01*
X5297Y2400D02*
X5313D01*
X5305Y2391D02*
Y2408D01*
X5297Y2660D02*
X5313D01*
X5305Y2651D02*
Y2668D01*
X4446Y1905D02*
X4464D01*
X4455Y1896D02*
Y1913D01*
X4446Y2165D02*
X4464D01*
X4455Y2157D02*
Y2174D01*
X4446Y2395D02*
X4464D01*
X4455Y2386D02*
Y2404D01*
X4446Y2655D02*
X4464D01*
X4455Y2647D02*
Y2664D01*
X6192Y4554D02*
X6208D01*
X6200Y4546D02*
Y4563D01*
X6451Y4554D02*
X6469D01*
X6460Y4546D02*
Y4563D01*
X3816Y4440D02*
X3833D01*
X3825Y4431D02*
Y4449D01*
X4056Y4065D02*
X4074D01*
X4065Y4056D02*
Y4074D01*
X4071Y3765D02*
X4089D01*
X4080Y3757D02*
Y3773D01*
X4332Y3765D02*
X4348D01*
X4340Y3757D02*
Y3773D01*
X4790Y3765D02*
X4807D01*
X4798Y3757D02*
Y3773D01*
X5050Y3765D02*
X5067D01*
X5058Y3757D02*
Y3773D01*
X5857Y3760D02*
X5873D01*
X5865Y3751D02*
Y3769D01*
X5596Y3760D02*
X5614D01*
X5605Y3751D02*
Y3769D01*
X6367Y3827D02*
X6383D01*
X6375Y3819D02*
Y3834D01*
X4166Y3505D02*
X4181D01*
X4173Y3497D02*
Y3513D01*
X5026Y3515D02*
X5041D01*
X5033Y3507D02*
Y3523D01*
X5906Y3510D02*
X5921D01*
X5913Y3503D02*
Y3517D01*
X6781Y3520D02*
X6796D01*
X6788Y3513D02*
Y3527D01*
X6278Y4200D02*
X6293D01*
X6285Y4192D02*
Y4207D01*
X6921Y3740D02*
X6936D01*
X6928Y3733D02*
Y3747D01*
X6921Y3515D02*
X6936D01*
X6928Y3507D02*
Y3523D01*
X6716Y3740D02*
X6731D01*
X6723Y3733D02*
Y3747D01*
X6701Y4935D02*
X6716D01*
X6708Y4927D02*
Y4943D01*
X6906Y4710D02*
X6921D01*
X6913Y4702D02*
Y4718D01*
X6906Y4935D02*
X6921D01*
X6913Y4927D02*
Y4943D01*
X6601Y4475D02*
X6616D01*
X6608Y4468D02*
Y4483D01*
X4886Y4915D02*
X4904D01*
X4895Y4906D02*
Y4924D01*
X6587Y4910D02*
X6603D01*
X6595Y4902D02*
Y4918D01*
X6177Y4135D02*
X6193D01*
X6185Y4128D02*
Y4142D01*
X6133Y4135D02*
X6148D01*
X6140Y4128D02*
Y4142D01*
X5912Y4625D02*
X5927D01*
X5920Y4617D02*
Y4633D01*
X5963Y4577D02*
X5977D01*
X5970Y4569D02*
Y4584D01*
X5812Y4713D02*
X5827D01*
X5820Y4706D02*
Y4721D01*
X5582Y4817D02*
X5597D01*
X5590Y4809D02*
Y4824D01*
X5582Y4863D02*
X5597D01*
X5589Y4856D02*
Y4871D01*
X5326Y4191D02*
X5341D01*
X5333Y4183D02*
Y4198D01*
X4971Y4191D02*
X4986D01*
X4978Y4183D02*
Y4198D01*
X4463Y4000D02*
X4477D01*
X4470Y3993D02*
Y4008D01*
X4872Y4370D02*
X4887D01*
X4880Y4363D02*
Y4378D01*
X4662Y4315D02*
X4677D01*
X4670Y4307D02*
Y4323D01*
X5267Y4465D02*
X5282D01*
X5275Y4457D02*
Y4472D01*
X5363Y4415D02*
X5378D01*
X5370Y4407D02*
Y4423D01*
X4768Y4105D02*
X4783D01*
X4776Y4097D02*
Y4113D01*
X3612Y3485D02*
X3628D01*
X3620Y3477D02*
Y3493D01*
X5588Y4615D02*
X5602D01*
X5595Y4608D02*
Y4622D01*
X4468Y3490D02*
X4483D01*
X4475Y3483D02*
Y3497D01*
X5588Y4565D02*
X5602D01*
X5595Y4557D02*
Y4573D01*
X5332Y3480D02*
X5347D01*
X5340Y3473D02*
Y3487D01*
X5588Y4515D02*
X5602D01*
X5595Y4508D02*
Y4523D01*
X6213Y3475D02*
X6227D01*
X6220Y3467D02*
Y3483D01*
X5588Y4365D02*
X5602D01*
X5595Y4358D02*
Y4372D01*
X6702Y4000D02*
X6718D01*
X6710Y3993D02*
Y4008D01*
X6082Y3750D02*
X6097D01*
X6090Y3743D02*
Y3757D01*
X6037Y3750D02*
X6052D01*
X6045Y3743D02*
Y3757D01*
M02*
