M48
;Layer_Color=5050912
;FILE_FORMAT=2:3
INCH,LZ
;TYPE=PLATED
T1F00S00C0.015
T2F00S00C0.017
T3F00S00C0.039
T4F00S00C0.079
;TYPE=NON_PLATED
T5F00S00C0.037
%
T01
X0362Y03485
X04173Y03505
X04475Y0349
X0447Y04
X0467Y04315
X0488Y0437
X04978Y04191
X04776Y04105
X05333Y04191
X0537Y04415
X05275Y04465
X05595Y04515
Y04565
Y04615
Y04365
X0592Y04625
X0597Y04577
X0614Y04135
X06185
X0609Y0375
X06045
X05913Y0351
X0622Y03475
X0534Y0348
X05033Y03515
X06375Y03827
X06723Y0374
X06928
Y03515
X06788Y0352
X0671Y04
X06608Y04475
X06285Y042
X06913Y0471
Y04935
X06708
X0582Y04713
X0559Y04817
X05589Y04863
T02
X05305Y01915
Y02175
Y024
Y0266
Y02805
Y03065
X06155Y0307
Y0281
Y0266
Y024
Y02155
Y01895
X04455Y01905
Y02165
Y02395
Y02655
Y02794
Y03054
X0357Y0304
Y0278
Y02635
Y02375
Y0214
Y0188
X0408Y03765
X0434
X04065Y04065
X03825Y0444
X05076Y04578
Y04628
Y04678
X0513
Y04628
Y04578
X05184
Y04628
Y04678
X05238
Y04628
Y04578
X057Y0461
X05735Y04188
X0592Y0401
X05865Y0376
X05605
X05058Y03765
X04798
X062Y04554
X0646
X06595Y0491
X0541Y04865
X05205
X05184Y04735
X05238
X0513
X05076
X0496Y04817
X04895Y04915
T03
X03595Y0381
Y0391
Y0401
Y0411
Y0421
Y0431
X036Y0455
Y0465
X0625Y04835
X0635
X0645
X0615
X036Y0485
Y0475
T04
X06409Y0198
X06609
X06808
X0683Y02415
X0637Y02425
Y029
X066Y0296
X0683Y029
X05978
X05748Y0296
X05518Y029
X05127
X04897Y0296
X05127Y02415
X05518Y02425
X05978Y02415
X05954Y0198
X05754
X05554
X051
X04899
X047
X04245
X04045
X03845
X03815Y02425
X04275Y02415
X04667Y02425
Y029
X04275
X04045Y0296
X03815Y029
T05
X0679Y04328
Y04502
M30
