G04*
G04 #@! TF.GenerationSoftware,Altium Limited,Altium Designer,19.0.15 (446)*
G04*
G04 Layer_Color=255*
%FSLAX23Y23*%
%MOIN*%
G70*
G01*
G75*
%ADD74P,0.130X8X22.5*%
%ADD75C,0.120*%
%ADD76C,0.037*%
%ADD77R,0.071X0.071*%
%ADD78R,0.071X0.071*%
%ADD79C,0.071*%
D74*
X3845Y1980D02*
D03*
X4045Y2960D02*
D03*
X4700Y1980D02*
D03*
X4897Y2960D02*
D03*
X5554Y1980D02*
D03*
X6409D02*
D03*
X5748Y2960D02*
D03*
X6600D02*
D03*
D75*
X4045Y1980D02*
D03*
X4245D02*
D03*
X3815Y2900D02*
D03*
Y2425D02*
D03*
X4275Y2415D02*
D03*
Y2900D02*
D03*
X4899Y1980D02*
D03*
X5100D02*
D03*
X4667Y2900D02*
D03*
Y2425D02*
D03*
X5127Y2415D02*
D03*
Y2900D02*
D03*
X5754Y1980D02*
D03*
X5954D02*
D03*
X6609D02*
D03*
X6808D02*
D03*
X5518Y2900D02*
D03*
Y2425D02*
D03*
X5978Y2415D02*
D03*
Y2900D02*
D03*
X6370D02*
D03*
Y2425D02*
D03*
X6830Y2415D02*
D03*
Y2900D02*
D03*
D76*
X6790Y4502D02*
D03*
Y4328D02*
D03*
D77*
X3600Y4850D02*
D03*
Y4750D02*
D03*
Y4650D02*
D03*
Y4550D02*
D03*
X3595Y4310D02*
D03*
Y4210D02*
D03*
Y4110D02*
D03*
Y4010D02*
D03*
Y3910D02*
D03*
D78*
X6450Y4835D02*
D03*
X6350D02*
D03*
X6250D02*
D03*
X6150D02*
D03*
D79*
X3595Y3810D02*
D03*
M02*
