G04*
G04 #@! TF.GenerationSoftware,Altium Limited,Altium Designer,19.0.15 (446)*
G04*
G04 Layer_Color=8388736*
%FSLAX23Y23*%
%MOIN*%
G70*
G01*
G75*
%ADD45R,0.059X0.071*%
%ADD46R,0.059X0.045*%
%ADD47R,0.045X0.059*%
%ADD48R,0.043X0.039*%
%ADD49R,0.071X0.059*%
G04:AMPARAMS|DCode=50|XSize=93mil|YSize=66mil|CornerRadius=11mil|HoleSize=0mil|Usage=FLASHONLY|Rotation=0.000|XOffset=0mil|YOffset=0mil|HoleType=Round|Shape=RoundedRectangle|*
%AMROUNDEDRECTD50*
21,1,0.093,0.044,0,0,0.0*
21,1,0.070,0.066,0,0,0.0*
1,1,0.023,0.035,-0.022*
1,1,0.023,-0.035,-0.022*
1,1,0.023,-0.035,0.022*
1,1,0.023,0.035,0.022*
%
%ADD50ROUNDEDRECTD50*%
%ADD51R,0.099X0.099*%
%ADD52R,0.071X0.102*%
G04:AMPARAMS|DCode=53|XSize=60mil|YSize=32mil|CornerRadius=7mil|HoleSize=0mil|Usage=FLASHONLY|Rotation=270.000|XOffset=0mil|YOffset=0mil|HoleType=Round|Shape=RoundedRectangle|*
%AMROUNDEDRECTD53*
21,1,0.060,0.018,0,0,270.0*
21,1,0.045,0.032,0,0,270.0*
1,1,0.014,-0.009,-0.023*
1,1,0.014,-0.009,0.023*
1,1,0.014,0.009,0.023*
1,1,0.014,0.009,-0.023*
%
%ADD53ROUNDEDRECTD53*%
%ADD54R,0.087X0.067*%
%ADD55R,0.087X0.158*%
%ADD56R,0.102X0.071*%
%ADD57R,0.071X0.087*%
%ADD58R,0.053X0.032*%
%ADD59R,0.067X0.043*%
%ADD60R,0.043X0.067*%
%ADD61R,0.244X0.244*%
%ADD62R,0.106X0.087*%
%ADD63R,0.097X0.028*%
%ADD64R,0.091X0.063*%
%ADD65P,0.139X8X22.5*%
%ADD66C,0.128*%
%ADD67C,0.045*%
%ADD68R,0.079X0.079*%
%ADD69R,0.079X0.079*%
%ADD70C,0.079*%
D45*
X6283Y4333D02*
D03*
Y4435D02*
D03*
X4568Y4795D02*
D03*
X4642D02*
D03*
X4252Y3430D02*
D03*
X4178D02*
D03*
X4178Y3328D02*
D03*
X4252D02*
D03*
X4670Y3525D02*
D03*
X4595D02*
D03*
X5110Y3425D02*
D03*
X5035D02*
D03*
X5038Y3325D02*
D03*
X5112D02*
D03*
X5542Y3525D02*
D03*
X5468D02*
D03*
X5913Y3325D02*
D03*
X5987D02*
D03*
X5987Y3430D02*
D03*
X5913D02*
D03*
X6422Y3520D02*
D03*
X6348D02*
D03*
X6788Y3323D02*
D03*
X6862D02*
D03*
X6862Y3425D02*
D03*
X6788D02*
D03*
X6357Y4435D02*
D03*
Y4333D02*
D03*
X6793Y4000D02*
D03*
X6867D02*
D03*
X6802Y4700D02*
D03*
X6728D02*
D03*
X3817Y3525D02*
D03*
X3743D02*
D03*
D46*
X4585Y4964D02*
D03*
X4585Y4886D02*
D03*
X4450Y4736D02*
D03*
X4450Y4814D02*
D03*
X4655Y4964D02*
D03*
X4655Y4886D02*
D03*
X4460Y4431D02*
D03*
X4460Y4509D02*
D03*
D47*
X4561Y4715D02*
D03*
X4639Y4715D02*
D03*
X5986Y4150D02*
D03*
X6064Y4150D02*
D03*
X5986Y4225D02*
D03*
X6064Y4225D02*
D03*
X6353Y4200D02*
D03*
X6432Y4200D02*
D03*
X6480Y4275D02*
D03*
X6559D02*
D03*
D48*
X4546Y4077D02*
D03*
Y4152D02*
D03*
X4624Y4115D02*
D03*
X4286Y4077D02*
D03*
Y4152D02*
D03*
X4364Y4115D02*
D03*
X4249Y3232D02*
D03*
Y3158D02*
D03*
X4171Y3195D02*
D03*
X5114Y3232D02*
D03*
Y3158D02*
D03*
X5036Y3195D02*
D03*
X5989Y3232D02*
D03*
Y3158D02*
D03*
X5911Y3195D02*
D03*
X6864Y3232D02*
D03*
Y3158D02*
D03*
X6786Y3195D02*
D03*
D49*
X4465Y4077D02*
D03*
Y4152D02*
D03*
X4190Y4077D02*
D03*
Y4152D02*
D03*
X6222Y3323D02*
D03*
Y3397D02*
D03*
X6609Y4827D02*
D03*
Y4753D02*
D03*
X5940Y4827D02*
D03*
Y4753D02*
D03*
X5342Y3323D02*
D03*
Y3397D02*
D03*
X4472Y3328D02*
D03*
Y3402D02*
D03*
X3617Y3323D02*
D03*
Y3397D02*
D03*
D50*
X3741Y3425D02*
D03*
Y3325D02*
D03*
X4079D02*
D03*
Y3425D02*
D03*
X4596D02*
D03*
Y3325D02*
D03*
X4934D02*
D03*
Y3425D02*
D03*
X5466D02*
D03*
Y3325D02*
D03*
X5804D02*
D03*
Y3425D02*
D03*
X6346D02*
D03*
Y3325D02*
D03*
X6684D02*
D03*
Y3425D02*
D03*
D51*
X3809Y3190D02*
D03*
X3987D02*
D03*
X4659D02*
D03*
X4837D02*
D03*
X5529D02*
D03*
X5707D02*
D03*
X6359D02*
D03*
X6537D02*
D03*
D52*
X6304Y3825D02*
D03*
X6186D02*
D03*
D53*
X6070Y4523D02*
D03*
X6020D02*
D03*
X5970D02*
D03*
X5920D02*
D03*
X5870D02*
D03*
X5820D02*
D03*
X5770D02*
D03*
X5720D02*
D03*
Y4307D02*
D03*
X5770D02*
D03*
X5820D02*
D03*
X5870D02*
D03*
X5920D02*
D03*
X5970D02*
D03*
X6020D02*
D03*
X6070D02*
D03*
D54*
X6432Y3936D02*
D03*
Y4026D02*
D03*
Y4116D02*
D03*
D55*
X6184Y4025D02*
D03*
D56*
X6558Y3991D02*
D03*
Y4109D02*
D03*
D57*
X6870Y4110D02*
D03*
X6760D02*
D03*
D58*
X6549Y4390D02*
D03*
X6461Y4353D02*
D03*
Y4427D02*
D03*
D59*
X4800Y4965D02*
D03*
Y4915D02*
D03*
Y4865D02*
D03*
Y4815D02*
D03*
Y4765D02*
D03*
Y4715D02*
D03*
Y4665D02*
D03*
Y4615D02*
D03*
Y4565D02*
D03*
Y4515D02*
D03*
Y4465D02*
D03*
Y4415D02*
D03*
Y4365D02*
D03*
Y4315D02*
D03*
X5509D02*
D03*
Y4365D02*
D03*
Y4415D02*
D03*
Y4465D02*
D03*
Y4515D02*
D03*
Y4565D02*
D03*
Y4615D02*
D03*
Y4665D02*
D03*
Y4715D02*
D03*
Y4765D02*
D03*
Y4815D02*
D03*
Y4865D02*
D03*
Y4915D02*
D03*
Y4965D02*
D03*
D60*
X4929Y4256D02*
D03*
X4979D02*
D03*
X5029D02*
D03*
X5079D02*
D03*
X5129D02*
D03*
X5179D02*
D03*
X5229D02*
D03*
X5279D02*
D03*
X5329D02*
D03*
X5379D02*
D03*
D61*
X5154Y4662D02*
D03*
D62*
X6904Y4590D02*
D03*
Y4240D02*
D03*
X6690Y4590D02*
D03*
Y4240D02*
D03*
D63*
X6685Y4478D02*
D03*
Y4446D02*
D03*
Y4415D02*
D03*
Y4384D02*
D03*
Y4352D02*
D03*
D64*
X4348Y4366D02*
D03*
Y4544D02*
D03*
X3990Y4366D02*
D03*
Y4544D02*
D03*
X4348Y4676D02*
D03*
Y4854D02*
D03*
X3990Y4676D02*
D03*
Y4854D02*
D03*
D65*
X3845Y1980D02*
D03*
X4045Y2960D02*
D03*
X4700Y1980D02*
D03*
X4897Y2960D02*
D03*
X5554Y1980D02*
D03*
X6409D02*
D03*
X5748Y2960D02*
D03*
X6600D02*
D03*
D66*
X4045Y1980D02*
D03*
X4245D02*
D03*
X3815Y2900D02*
D03*
Y2425D02*
D03*
X4275Y2415D02*
D03*
Y2900D02*
D03*
X4899Y1980D02*
D03*
X5100D02*
D03*
X4667Y2900D02*
D03*
Y2425D02*
D03*
X5127Y2415D02*
D03*
Y2900D02*
D03*
X5754Y1980D02*
D03*
X5954D02*
D03*
X6609D02*
D03*
X6808D02*
D03*
X5518Y2900D02*
D03*
Y2425D02*
D03*
X5978Y2415D02*
D03*
Y2900D02*
D03*
X6370D02*
D03*
Y2425D02*
D03*
X6830Y2415D02*
D03*
Y2900D02*
D03*
D67*
X6790Y4502D02*
D03*
Y4328D02*
D03*
D68*
X3600Y4850D02*
D03*
Y4750D02*
D03*
Y4650D02*
D03*
Y4550D02*
D03*
X3595Y4310D02*
D03*
Y4210D02*
D03*
Y4110D02*
D03*
Y4010D02*
D03*
Y3910D02*
D03*
D69*
X6450Y4835D02*
D03*
X6350D02*
D03*
X6250D02*
D03*
X6150D02*
D03*
D70*
X3595Y3810D02*
D03*
M02*
