G04*
G04 #@! TF.GenerationSoftware,Altium Limited,Altium Designer,19.0.15 (446)*
G04*
G04 Layer_Color=65535*
%FSLAX23Y23*%
%MOIN*%
G70*
G01*
G75*
%ADD10C,0.008*%
%ADD11C,0.008*%
%ADD12C,0.001*%
%ADD13C,0.010*%
%ADD14C,0.008*%
%ADD15C,0.010*%
%ADD16C,0.016*%
%ADD17C,0.005*%
%ADD18C,0.004*%
%ADD19C,0.015*%
%ADD20C,0.006*%
%ADD21R,0.026X0.106*%
%ADD22R,0.008X0.087*%
%ADD23R,0.106X0.026*%
%ADD24R,0.087X0.008*%
D10*
X4995Y3742D02*
G03*
X4987Y3733I707J-733D01*
G01*
X5000Y3746D02*
G03*
X4995Y3742I59J-71D01*
G01*
X5003Y3748D02*
G03*
X5000Y3746I17J-26D01*
G01*
X5006Y3749D02*
G03*
X5003Y3748I0J-4D01*
G01*
X5008Y3748D02*
G03*
X5006Y3749I-3J-7D01*
G01*
X5011Y3747D02*
G03*
X5008Y3748I-5J-5D01*
G01*
X5012Y3744D02*
G03*
X5011Y3747I-7J-3D01*
G01*
X5013Y3742D02*
G03*
X5012Y3744I-7J0D01*
G01*
X5012Y3739D02*
G03*
X5013Y3742I-4J3D01*
G01*
X5010Y3736D02*
G03*
X5012Y3739I-22J19D01*
G01*
X5005Y3730D02*
G03*
X5010Y3736I-78J77D01*
G01*
X4993Y3719D02*
G03*
X5005Y3730I-1353J1360D01*
G01*
X4985Y3711D02*
G03*
X4993Y3719I-471J489D01*
G01*
X4978Y3705D02*
G03*
X4985Y3711I-222J245D01*
G01*
X4973Y3699D02*
G03*
X4978Y3705I-323J366D01*
G01*
X4971Y3699D02*
G03*
X4973Y3699I-1J4D01*
G01*
X4969Y3698D02*
G03*
X4971Y3699I-1J10D01*
G01*
X4961Y3698D02*
G03*
X4969Y3698I-67J1462D01*
G01*
X4952Y3698D02*
G03*
X4961Y3698I-31J866D01*
G01*
X4942Y3697D02*
G03*
X4952Y3698I-40J1426D01*
G01*
X4874Y3670D02*
G03*
X4882Y3670I8J952D01*
G01*
X4868Y3670D02*
G03*
X4874Y3670I10J481D01*
G01*
X4862Y3670D02*
G03*
X4868Y3670I73J3155D01*
G01*
X4862Y3672D02*
G03*
X4862Y3670I3J-2D01*
G01*
X4877Y3699D02*
G03*
X4862Y3672I38070J-20037D01*
G01*
X4890Y3725D02*
G03*
X4877Y3699I12297J-6505D01*
G01*
X4893Y3729D02*
G03*
X4890Y3725I26J-19D01*
G01*
X4894Y3730D02*
G03*
X4893Y3729I9J-9D01*
G01*
X4896Y3732D02*
G03*
X4894Y3730I16J-20D01*
G01*
X4897Y3733D02*
G03*
X4896Y3732I15J-21D01*
G01*
X4899Y3734D02*
G03*
X4897Y3733I7J-13D01*
G01*
X4902Y3735D02*
G03*
X4899Y3734I2J-12D01*
G01*
X4907Y3736D02*
G03*
X4902Y3735I2J-33D01*
G01*
X4914Y3736D02*
G03*
X4907Y3736I1J-132D01*
G01*
X4931Y3736D02*
G03*
X4914Y3736I0J-2858D01*
G01*
X4947Y3736D02*
G03*
X4931Y3736I-16J-2609D01*
G01*
X4955Y3736D02*
G03*
X4947Y3736I-8J-154D01*
G01*
X4959Y3735D02*
G03*
X4955Y3736I-7J-46D01*
G01*
X4961Y3734D02*
G03*
X4959Y3735I-3J-3D01*
G01*
X4962Y3732D02*
G03*
X4961Y3734I-5J-2D01*
G01*
X4963Y3730D02*
G03*
X4962Y3732I-7J0D01*
G01*
X4962Y3727D02*
G03*
X4963Y3730I-7J3D01*
G01*
X4961Y3725D02*
G03*
X4962Y3727I-4J4D01*
G01*
X4959Y3724D02*
G03*
X4961Y3725I-2J5D01*
G01*
X4957Y3723D02*
G03*
X4959Y3724I-1J9D01*
G01*
X4954Y3723D02*
G03*
X4957Y3723I-1J32D01*
G01*
X4946Y3723D02*
G03*
X4954Y3723I-1J508D01*
G01*
X4946Y3723D02*
G03*
X4937Y3723I0J-319D01*
G01*
D02*
G03*
X4932Y3722I1J-21D01*
G01*
D02*
G03*
X4931Y3721I1J-2D01*
G01*
X4931D02*
G03*
X4931Y3719I1J-1D01*
G01*
X4931D02*
G03*
X4932Y3718I2J1D01*
G01*
D02*
G03*
X4935Y3718I4J15D01*
G01*
D02*
G03*
X4940Y3717I7J65D01*
G01*
D02*
G03*
X4951Y3717I29J1246D01*
G01*
X5484Y3700D02*
G03*
X5479Y3700I-5J-328D01*
G01*
X5486Y3700D02*
G03*
X5484Y3700I-2J-6D01*
G01*
X5487Y3699D02*
G03*
X5486Y3700I-1J-0D01*
G01*
X5487Y3698D02*
G03*
X5487Y3699I-3J1D01*
G01*
X5487Y3698D02*
G03*
X5486Y3697I25J-6D01*
G01*
D02*
G03*
X5486Y3695I127J-24D01*
G01*
X5486D02*
G03*
X5486Y3693I143J-25D01*
G01*
X5486D02*
G03*
X5485Y3691I129J-21D01*
G01*
X5430Y3723D02*
G03*
X5430Y3727I-508J-67D01*
G01*
D02*
G03*
X5429Y3731I-273J-38D01*
G01*
D02*
G03*
X5429Y3734I-1005J-156D01*
G01*
D02*
G03*
X5429Y3735I-1J-0D01*
G01*
D02*
G03*
X5428Y3735I-0J-0D01*
G01*
X5428D02*
G03*
X5428Y3732I82J-18D01*
G01*
Y3732D02*
G03*
X5427Y3727I98J-18D01*
G01*
Y3727D02*
G03*
X5426Y3721I471J-65D01*
G01*
X5426Y3718D02*
G03*
X5426Y3721I-398J53D01*
G01*
X5425Y3714D02*
G03*
X5426Y3718I-355J51D01*
G01*
X5425Y3711D02*
G03*
X5425Y3714I-324J49D01*
G01*
X5424Y3710D02*
G03*
X5425Y3711I-34J7D01*
G01*
X5424Y3710D02*
G03*
X5424Y3708I12J-2D01*
G01*
D02*
G03*
X5424Y3707I1J-0D01*
G01*
D02*
G03*
X5425Y3707I1J1D01*
G01*
D02*
G03*
X5428Y3707I3J54D01*
G01*
D02*
G03*
X5431Y3707I0J10D01*
G01*
X5431Y3707D02*
G03*
X5432Y3709I-0J1D01*
G01*
X5432D02*
G03*
X5432Y3711I-10J2D01*
G01*
D02*
G03*
X5430Y3723I-1253J-153D01*
G01*
X5420Y3764D02*
G03*
X5420Y3763I0J-0D01*
G01*
X5422Y3764D02*
G03*
X5420Y3764I4J-56D01*
G01*
X5425Y3764D02*
G03*
X5422Y3764I0J-42D01*
G01*
X5428Y3764D02*
G03*
X5425Y3764I-3J-83D01*
G01*
X5446Y3712D02*
G03*
X5443Y3726I-7535J-1348D01*
G01*
X5448Y3699D02*
G03*
X5446Y3712I-4060J-713D01*
G01*
X5450Y3688D02*
G03*
X5448Y3699I-18326J-3209D01*
G01*
X5450Y3687D02*
G03*
X5450Y3688I-6J-0D01*
G01*
X5448Y3686D02*
G03*
X5450Y3687I-1J6D01*
G01*
X5446Y3686D02*
G03*
X5448Y3686I-1J17D01*
G01*
X5443Y3686D02*
G03*
X5446Y3686I-0J97D01*
G01*
X5438Y3686D02*
G03*
X5443Y3686I5J237D01*
G01*
X5436Y3686D02*
G03*
X5438Y3686I2J6D01*
G01*
X5435Y3687D02*
G03*
X5436Y3686I1J0D01*
G01*
X5435Y3688D02*
G03*
X5435Y3687I4J0D01*
G01*
X5435Y3688D02*
G03*
X5435Y3690I-9J-0D01*
G01*
Y3690D02*
G03*
X5435Y3691I-20J-3D01*
G01*
Y3691D02*
G03*
X5434Y3692I-21J-4D01*
G01*
X5434D02*
G03*
X5434Y3693I-12J-3D01*
G01*
X5434D02*
G03*
X5433Y3695I-7J-3D01*
G01*
X5433D02*
G03*
X5432Y3696I-2J-1D01*
G01*
X5432D02*
G03*
X5431Y3696I-1J-4D01*
G01*
Y3696D02*
G03*
X5428Y3696I1J-68D01*
G01*
Y3696D02*
G03*
X5425Y3696I4J-67D01*
G01*
Y3696D02*
G03*
X5423Y3695I0J-4D01*
G01*
Y3695D02*
G03*
X5423Y3694I1J-1D01*
G01*
D02*
G03*
X5422Y3693I5J-2D01*
G01*
X5422Y3688D02*
G03*
X5422Y3693I-68J12D01*
G01*
X5421Y3687D02*
G03*
X5422Y3688I-2J2D01*
G01*
X5419Y3686D02*
G03*
X5421Y3687I-0J3D01*
G01*
X5413Y3686D02*
G03*
X5419Y3686I-0J111D01*
G01*
X5409Y3686D02*
G03*
X5413Y3686I5J267D01*
G01*
X5407Y3686D02*
G03*
X5409Y3686I2J5D01*
G01*
X5406Y3687D02*
G03*
X5407Y3686I1J0D01*
G01*
X5406Y3688D02*
G03*
X5406Y3687I3J-1D01*
G01*
X5406Y3688D02*
G03*
X5407Y3693I-106J24D01*
G01*
D02*
G03*
X5414Y3727I-68860J12451D01*
G01*
X5420Y3762D02*
G03*
X5420Y3763I-8J1D01*
G01*
X5390Y3764D02*
G03*
X5378Y3764I-12J-359D01*
G01*
X5396Y3763D02*
G03*
X5390Y3764I-6J-22D01*
G01*
X5399Y3761D02*
G03*
X5396Y3763I-5J-4D01*
G01*
X5401Y3757D02*
G03*
X5399Y3761I-9J-3D01*
G01*
X5402Y3751D02*
G03*
X5401Y3757I-24J-0D01*
G01*
X5402Y3726D02*
G03*
X5402Y3751I-3114J-5D01*
G01*
X5402Y3701D02*
G03*
X5402Y3726I-2703J21D01*
G01*
X5401Y3694D02*
G03*
X5402Y3701I-31J7D01*
G01*
X5399Y3689D02*
G03*
X5401Y3694I-13J8D01*
G01*
X5397Y3687D02*
G03*
X5399Y3689I-1J4D01*
G01*
X5392Y3687D02*
G03*
X5397Y3687I-1J16D01*
G01*
X5379Y3686D02*
G03*
X5392Y3687I-10J581D01*
G01*
X5344Y3686D02*
G03*
X5347Y3686I3J232D01*
G01*
X5341Y3686D02*
G03*
X5344Y3686I4J117D01*
G01*
X5339Y3686D02*
G03*
X5341Y3686I18J460D01*
G01*
X5339Y3686D02*
G03*
X5339Y3688I-6J0D01*
G01*
D02*
G03*
X5335Y3702I-8640J-2300D01*
G01*
D02*
G03*
X5331Y3717I-16871J-4521D01*
G01*
X5331D02*
G03*
X5331Y3718I-2J-0D01*
G01*
Y3718D02*
G03*
X5330Y3718I-0J-0D01*
G01*
D02*
G03*
X5330Y3713I572J-25D01*
G01*
D02*
G03*
X5330Y3708I222J-8D01*
G01*
D02*
G03*
X5330Y3702I473J-6D01*
G01*
X5291Y3723D02*
G03*
X5290Y3727I-239J-27D01*
G01*
D02*
G03*
X5290Y3731I-153J-20D01*
G01*
D02*
G03*
X5289Y3734I-201J-31D01*
G01*
D02*
G03*
X5289Y3735I-3J-1D01*
G01*
X5289Y3735D02*
G03*
X5287Y3723I2164J-336D01*
G01*
D02*
G03*
X5285Y3712I719J-108D01*
G01*
D02*
G03*
X5285Y3708I30J-4D01*
G01*
D02*
G03*
X5285Y3707I0J0D01*
G01*
D02*
G03*
X5286Y3707I3J9D01*
G01*
D02*
G03*
X5288Y3707I2J12D01*
G01*
D02*
G03*
X5289Y3707I2J23D01*
G01*
D02*
G03*
X5292Y3707I-0J50D01*
G01*
X5292Y3707D02*
G03*
X5293Y3708I-0J1D01*
G01*
D02*
G03*
X5293Y3709I-5J0D01*
G01*
X5292Y3711D02*
G03*
X5293Y3709I16J2D01*
G01*
X5292Y3714D02*
G03*
X5292Y3711I378J50D01*
G01*
X5291Y3718D02*
G03*
X5292Y3714I362J44D01*
G01*
X5291Y3723D02*
G03*
X5291Y3718I490J55D01*
G01*
X5282Y3764D02*
G03*
X5281Y3763I0J-1D01*
G01*
X5289Y3764D02*
G03*
X5282Y3764I9J-243D01*
G01*
X5296Y3764D02*
G03*
X5289Y3764I2J-253D01*
G01*
X5297Y3763D02*
G03*
X5296Y3764I-1J0D01*
G01*
X5297Y3763D02*
G03*
X5297Y3762I9J-0D01*
G01*
X5297D02*
G03*
X5304Y3726I190732J34341D01*
G01*
X5304D02*
G03*
X5310Y3690I111895J20168D01*
G01*
D02*
G03*
X5311Y3688I26J5D01*
G01*
X5311Y3687D02*
G03*
X5311Y3688I-1J1D01*
G01*
X5310Y3686D02*
G03*
X5311Y3687I-0J1D01*
G01*
X5308Y3686D02*
G03*
X5310Y3686I-0J8D01*
G01*
X5304Y3686D02*
G03*
X5308Y3686I0J198D01*
G01*
X5295Y3690D02*
G03*
X5295Y3694I-68J-11D01*
G01*
D02*
G03*
X5294Y3695I-3J-1D01*
G01*
D02*
G03*
X5292Y3696I-2J-2D01*
G01*
D02*
G03*
X5289Y3696I-4J-51D01*
G01*
X5271Y3686D02*
G03*
X5274Y3686I3J68D01*
G01*
X5269Y3686D02*
G03*
X5271Y3686I3J24D01*
G01*
X5267Y3687D02*
G03*
X5269Y3686I4J17D01*
G01*
X5267Y3689D02*
G03*
X5267Y3687I11J-2D01*
G01*
X5274Y3725D02*
G03*
X5267Y3689I137606J-24597D01*
G01*
X5280Y3760D02*
G03*
X5274Y3725I107006J-19164D01*
G01*
X5281Y3763D02*
G03*
X5280Y3760I17J-6D01*
G01*
X5231Y3748D02*
G03*
X5233Y3742I606J158D01*
G01*
X5233D02*
G03*
X5234Y3737I334J91D01*
G01*
X5234D02*
G03*
X5236Y3732I943J272D01*
G01*
X5236Y3732D02*
G03*
X5238Y3736I-474J150D01*
G01*
D02*
G03*
X5239Y3741I-184J57D01*
G01*
X5239D02*
G03*
X5241Y3747I-388J107D01*
G01*
X5247Y3704D02*
G03*
X5247Y3711I-446J0D01*
G01*
D02*
G03*
X5247Y3717I-207J-3D01*
G01*
D02*
G03*
X5247Y3721I-444J-19D01*
G01*
X5247D02*
G03*
X5246Y3722I-0J-0D01*
G01*
D02*
G03*
X5246Y3721I1J-1D01*
G01*
D02*
G03*
X5244Y3717I552J-201D01*
G01*
D02*
G03*
X5243Y3712I253J-90D01*
G01*
Y3712D02*
G03*
X5241Y3707I446J-149D01*
G01*
X5190Y3758D02*
G03*
X5190Y3760I-642J-122D01*
G01*
X5191Y3757D02*
G03*
X5190Y3758I-1214J-228D01*
G01*
X5191Y3755D02*
G03*
X5191Y3757I-1193J-222D01*
G01*
X5191Y3753D02*
G03*
X5191Y3755I-541J-99D01*
G01*
X5111Y3764D02*
G03*
X5105Y3764I-6J-249D01*
G01*
X5117Y3764D02*
G03*
X5111Y3764I-10J-179D01*
G01*
X5122Y3763D02*
G03*
X5117Y3764I-15J-188D01*
G01*
X5124Y3763D02*
G03*
X5122Y3763I-3J-7D01*
G01*
X5127Y3761D02*
G03*
X5124Y3763I-6J-6D01*
G01*
X5129Y3758D02*
G03*
X5127Y3761I-7J-2D01*
G01*
X5129Y3752D02*
G03*
X5129Y3758I-30J-1D01*
G01*
X5130Y3737D02*
G03*
X5129Y3752I-705J-10D01*
G01*
X5130Y3724D02*
G03*
X5130Y3737I-679J4D01*
G01*
X5129Y3717D02*
G03*
X5130Y3724I-38J7D01*
G01*
X5128Y3714D02*
G03*
X5129Y3717I-8J5D01*
G01*
X5125Y3712D02*
G03*
X5128Y3714I-2J6D01*
G01*
X5125Y3712D02*
G03*
X5124Y3711I3J-6D01*
G01*
X5124Y3711D02*
G03*
X5123Y3710I3J-3D01*
G01*
D02*
G03*
X5123Y3709I1J-0D01*
G01*
X5123Y3709D02*
G03*
X5124Y3706I360J107D01*
G01*
D02*
G03*
X5125Y3702I214J65D01*
G01*
D02*
G03*
X5127Y3698I352J114D01*
G01*
X5128Y3694D02*
G03*
X5127Y3698I-464J-152D01*
G01*
X5129Y3690D02*
G03*
X5128Y3694I-270J-84D01*
G01*
X5130Y3687D02*
G03*
X5129Y3690I-575J-176D01*
G01*
X5130Y3686D02*
G03*
X5130Y3687I-0J0D01*
G01*
X5128Y3686D02*
G03*
X5130Y3686I-5J45D01*
G01*
X5125Y3686D02*
G03*
X5128Y3686I-1J36D01*
G01*
X5123Y3686D02*
G03*
X5125Y3686I0J70D01*
G01*
X5112Y3698D02*
G03*
X5113Y3694I2231J667D01*
G01*
X5111Y3701D02*
G03*
X5112Y3698I2598J773D01*
G01*
X5110Y3705D02*
G03*
X5111Y3701I2328J689D01*
G01*
X5109Y3707D02*
G03*
X5110Y3705I504J147D01*
G01*
X5109Y3707D02*
G03*
X5108Y3708I-15J-4D01*
G01*
D02*
G03*
X5108Y3710I-9J-4D01*
G01*
D02*
G03*
X5107Y3711I-6J-4D01*
G01*
D02*
G03*
X5106Y3711I-1J-1D01*
G01*
D02*
G03*
X5106Y3710I0J-1D01*
G01*
D02*
G03*
X5105Y3708I13J-4D01*
G01*
D02*
G03*
X5105Y3705I40J-4D01*
G01*
D02*
G03*
X5105Y3698I363J-6D01*
G01*
X5066Y3714D02*
G03*
X5065Y3720I-161J-16D01*
G01*
D02*
G03*
X5064Y3728I-392J-54D01*
G01*
D02*
G03*
X5062Y3736I-849J-134D01*
G01*
X5062Y3736D02*
G03*
X5062Y3735I14J-2D01*
G01*
X5062Y3735D02*
G03*
X5062Y3732I6074J-826D01*
G01*
Y3732D02*
G03*
X5061Y3728I2502J-339D01*
G01*
X5061D02*
G03*
X5061Y3724I4376J-586D01*
G01*
X5060Y3719D02*
G03*
X5061Y3724I-1301J178D01*
G01*
X5059Y3715D02*
G03*
X5060Y3719I-1022J144D01*
G01*
X5059Y3711D02*
G03*
X5059Y3715I-1004J145D01*
G01*
X5059Y3710D02*
G03*
X5059Y3711I-60J10D01*
G01*
X5059Y3710D02*
G03*
X5058Y3708I12J-2D01*
G01*
D02*
G03*
X5059Y3707I1J-0D01*
G01*
D02*
G03*
X5060Y3707I1J1D01*
G01*
D02*
G03*
X5062Y3707I3J52D01*
G01*
X5054Y3764D02*
G03*
X5054Y3763I0J-0D01*
G01*
X5056Y3764D02*
G03*
X5054Y3764I4J-67D01*
G01*
X5059Y3764D02*
G03*
X5056Y3764I-0J-46D01*
G01*
X5062Y3764D02*
G03*
X5059Y3764I-3J-91D01*
G01*
X5080Y3712D02*
G03*
X5077Y3727I-5348J-963D01*
G01*
X5082Y3700D02*
G03*
X5080Y3712I-2961J-520D01*
G01*
X5084Y3689D02*
G03*
X5082Y3700I-9544J-1666D01*
G01*
X5084Y3688D02*
G03*
X5084Y3689I-9J-0D01*
G01*
X5084Y3687D02*
G03*
X5084Y3688I-1J1D01*
G01*
X5083Y3686D02*
G03*
X5084Y3687I-0J2D01*
G01*
X5081Y3686D02*
G03*
X5083Y3686I-0J10D01*
G01*
X5076Y3686D02*
G03*
X5081Y3686I-0J162D01*
G01*
X5069Y3689D02*
G03*
X5069Y3693I-40J-0D01*
G01*
X5069D02*
G03*
X5068Y3695I-3J-0D01*
G01*
X5068Y3695D02*
G03*
X5066Y3696I-2J-2D01*
G01*
Y3696D02*
G03*
X5062Y3696I-2J-30D01*
G01*
Y3696D02*
G03*
X5059Y3696I4J-83D01*
G01*
D02*
G03*
X5057Y3695I0J-4D01*
G01*
D02*
G03*
X5057Y3694I1J-1D01*
G01*
D02*
G03*
X5056Y3693I4J-2D01*
G01*
X5056Y3688D02*
G03*
X5056Y3693I-67J12D01*
G01*
X5055Y3687D02*
G03*
X5056Y3688I-2J2D01*
G01*
X5053Y3686D02*
G03*
X5055Y3687I-0J3D01*
G01*
X5047Y3686D02*
G03*
X5053Y3686I-0J113D01*
G01*
X5043Y3686D02*
G03*
X5047Y3686I4J200D01*
G01*
X5041Y3686D02*
G03*
X5043Y3686I2J8D01*
G01*
X5040Y3687D02*
G03*
X5041Y3686I1J1D01*
G01*
X5040Y3688D02*
G03*
X5040Y3687I1J-0D01*
G01*
X5040Y3688D02*
G03*
X5041Y3691I-24J7D01*
G01*
D02*
G03*
X5047Y3726I-100206J18085D01*
G01*
X5047D02*
G03*
X5054Y3762I-162466J29262D01*
G01*
X5054D02*
G03*
X5054Y3763I-10J2D01*
G01*
X4948Y3803D02*
G03*
X4948Y3800I54J-6D01*
G01*
X4948Y3805D02*
G03*
X4948Y3803I9J-3D01*
G01*
X4949Y3806D02*
G03*
X4948Y3805I2J-2D01*
G01*
X4950Y3806D02*
G03*
X4949Y3806I0J-1D01*
G01*
X4951Y3805D02*
G03*
X4950Y3806I-2J-1D01*
G01*
X4951Y3803D02*
G03*
X4951Y3805I-9J-0D01*
G01*
X4951Y3800D02*
G03*
X4951Y3803I-68J-0D01*
G01*
X4959Y3803D02*
G03*
X4959Y3800I103J-3D01*
G01*
X4959Y3805D02*
G03*
X4959Y3803I5J-2D01*
G01*
X4960Y3806D02*
G03*
X4959Y3805I1J-1D01*
G01*
X4961Y3806D02*
G03*
X4960Y3806I0J-2D01*
G01*
X4962D02*
G03*
X4961Y3806I-1J-2D01*
G01*
X4963Y3805D02*
G03*
X4962Y3806I-1J-0D01*
G01*
X4963Y3803D02*
G03*
X4963Y3805I-5J-0D01*
G01*
X4963Y3800D02*
G03*
X4963Y3803I-103J0D01*
G01*
X4982Y3784D02*
G03*
X4979Y3784I-3J-103D01*
G01*
X4984Y3784D02*
G03*
X4982Y3784I-2J-5D01*
G01*
X4985Y3783D02*
G03*
X4984Y3784I-1J-1D01*
G01*
X4985Y3782D02*
G03*
X4985Y3783I-2J0D01*
G01*
Y3781D02*
G03*
X4985Y3782I-2J1D01*
G01*
X4984Y3780D02*
G03*
X4985Y3781I-0J1D01*
G01*
X4982Y3780D02*
G03*
X4984Y3780I-0J5D01*
G01*
X4979Y3780D02*
G03*
X4982Y3780I0J103D01*
G01*
Y3772D02*
G03*
X4979Y3772I-3J-103D01*
G01*
X4984Y3772D02*
G03*
X4982Y3772I-2J-5D01*
G01*
X4985Y3771D02*
G03*
X4984Y3772I-1J-1D01*
G01*
X4985Y3770D02*
G03*
X4985Y3771I-2J0D01*
G01*
Y3769D02*
G03*
X4985Y3770I-2J1D01*
G01*
X4984Y3768D02*
G03*
X4985Y3769I-0J1D01*
G01*
X4982Y3768D02*
G03*
X4984Y3768I-0J5D01*
G01*
X4979Y3768D02*
G03*
X4982Y3768I0J103D01*
G01*
X4963Y3750D02*
G03*
X4963Y3753I-79J7D01*
G01*
X4963Y3748D02*
G03*
X4963Y3750I-5J2D01*
G01*
X4962Y3747D02*
G03*
X4963Y3748I-1J1D01*
G01*
X4961Y3747D02*
G03*
X4962Y3747I0J2D01*
G01*
X4960Y3747D02*
G03*
X4961Y3747I1J2D01*
G01*
X4959Y3748D02*
G03*
X4960Y3747I1J0D01*
G01*
X4959Y3750D02*
G03*
X4959Y3748I6J0D01*
G01*
X4959Y3753D02*
G03*
X4959Y3750I103J0D01*
G01*
X4951Y3750D02*
G03*
X4951Y3753I-54J6D01*
G01*
X4951Y3748D02*
G03*
X4951Y3750I-9J3D01*
G01*
X4950Y3747D02*
G03*
X4951Y3748I-2J2D01*
G01*
X4949Y3747D02*
G03*
X4950Y3747I0J1D01*
G01*
X4948Y3748D02*
G03*
X4949Y3747I2J1D01*
G01*
X4948Y3750D02*
G03*
X4948Y3748I9J0D01*
G01*
X4948Y3753D02*
G03*
X4948Y3750I68J0D01*
G01*
X4929Y3768D02*
G03*
X4932Y3768I3J103D01*
G01*
X4927Y3768D02*
G03*
X4929Y3768I2J5D01*
G01*
X4926Y3769D02*
G03*
X4927Y3768I1J1D01*
G01*
X4926Y3770D02*
G03*
X4926Y3769I2J0D01*
G01*
Y3771D02*
G03*
X4926Y3770I2J-1D01*
G01*
X4927Y3772D02*
G03*
X4926Y3771I0J-1D01*
G01*
X4929Y3772D02*
G03*
X4927Y3772I0J-5D01*
G01*
X4932Y3772D02*
G03*
X4929Y3772I-0J-103D01*
G01*
Y3780D02*
G03*
X4932Y3780I3J103D01*
G01*
X4927Y3780D02*
G03*
X4929Y3780I2J5D01*
G01*
X4926Y3781D02*
G03*
X4927Y3780I1J1D01*
G01*
X4926Y3782D02*
G03*
X4926Y3781I2J0D01*
G01*
Y3783D02*
G03*
X4926Y3782I2J-1D01*
G01*
X4927Y3784D02*
G03*
X4926Y3783I0J-1D01*
G01*
X4929Y3784D02*
G03*
X4927Y3784I0J-5D01*
G01*
X4932Y3784D02*
G03*
X4929Y3784I-0J-103D01*
G01*
X4948Y3776D02*
Y3784D01*
X4956D01*
X4963D01*
Y3776D02*
Y3784D01*
Y3768D02*
Y3776D01*
X4956Y3768D02*
X4963D01*
X4948D02*
X4956D01*
X4948D02*
Y3776D01*
X4916Y3697D02*
X4942Y3697D01*
X4909Y3683D02*
X4916Y3697D01*
X4902Y3670D02*
X4909Y3683D01*
X4882Y3670D02*
X4902D01*
X4951Y3717D02*
X4970Y3717D01*
X4987Y3733D01*
X5456Y3725D02*
Y3764D01*
X5464D01*
X5471D01*
Y3732D02*
Y3764D01*
Y3700D02*
Y3732D01*
Y3700D02*
X5479D01*
X5485Y3686D02*
X5485Y3691D01*
X5470Y3686D02*
X5485D01*
X5456D02*
X5470D01*
X5456D02*
Y3725D01*
X5428Y3764D02*
X5436Y3763D01*
X5443Y3726D01*
X5386Y3725D02*
Y3750D01*
X5382Y3751D02*
X5386Y3750D01*
X5377Y3751D02*
X5382Y3751D01*
X5377Y3725D02*
Y3751D01*
Y3699D02*
Y3725D01*
Y3699D02*
X5382Y3699D01*
X5386Y3700D01*
Y3725D01*
X5362Y3725D02*
Y3764D01*
X5378D01*
X5362Y3686D02*
X5379Y3686D01*
X5362Y3686D02*
Y3725D01*
X5316Y3725D02*
Y3764D01*
X5323D01*
X5331D01*
X5335Y3748D01*
X5339Y3733D01*
X5339Y3748D01*
X5339Y3764D01*
X5347D01*
X5355D01*
Y3725D02*
Y3764D01*
Y3686D02*
Y3725D01*
X5347Y3686D02*
X5355D01*
X5330D02*
Y3702D01*
X5323Y3686D02*
X5330D01*
X5316D02*
X5323D01*
X5316D02*
Y3725D01*
X5296Y3686D02*
X5304D01*
X5295Y3690D02*
X5296Y3686D01*
X5283Y3696D02*
X5289D01*
X5282Y3691D02*
X5283Y3696D01*
X5282Y3686D02*
X5282Y3691D01*
X5274Y3686D02*
X5282D01*
X5211Y3725D02*
Y3764D01*
X5219Y3764D01*
X5227Y3763D01*
X5231Y3748D01*
X5241Y3747D02*
X5245Y3764D01*
X5253D01*
X5261D01*
Y3725D02*
Y3764D01*
Y3686D02*
Y3725D01*
X5254Y3686D02*
X5261D01*
X5247D02*
X5254D01*
X5247D02*
Y3704D01*
X5236Y3693D02*
X5241Y3707D01*
X5231Y3708D02*
X5236Y3693D01*
X5226Y3724D02*
X5231Y3708D01*
X5226Y3705D02*
X5226Y3724D01*
X5226Y3686D02*
X5226Y3705D01*
X5219Y3686D02*
X5226D01*
X5211D02*
X5219D01*
X5211D02*
Y3725D01*
X5160Y3725D02*
Y3764D01*
X5175Y3764D01*
X5189Y3763D01*
X5190Y3760D01*
X5191Y3753D02*
X5192Y3750D01*
X5183D02*
X5192D01*
X5175D02*
X5183D01*
X5175Y3740D02*
Y3750D01*
Y3730D02*
Y3740D01*
Y3730D02*
X5181D01*
X5188D01*
Y3724D02*
Y3730D01*
Y3718D02*
Y3724D01*
X5181Y3718D02*
X5188D01*
X5175D02*
X5181D01*
X5175Y3702D02*
Y3718D01*
Y3686D02*
Y3702D01*
X5168Y3686D02*
X5175D01*
X5160D02*
X5168D01*
X5160D02*
Y3725D01*
X5137Y3725D02*
Y3764D01*
X5144D01*
X5152D01*
Y3725D02*
Y3764D01*
Y3686D02*
Y3725D01*
X5144Y3686D02*
X5152D01*
X5137D02*
X5144D01*
X5137D02*
Y3725D01*
X5115Y3737D02*
Y3750D01*
X5110Y3751D02*
X5115Y3750D01*
X5105Y3751D02*
X5110Y3751D01*
X5105Y3737D02*
Y3751D01*
Y3723D02*
Y3737D01*
Y3723D02*
X5110Y3723D01*
X5115Y3724D01*
Y3737D01*
X5090Y3725D02*
Y3764D01*
X5105D01*
X5115Y3686D02*
X5123D01*
X5113Y3694D02*
X5115Y3686D01*
X5105D02*
Y3698D01*
X5097Y3686D02*
X5105D01*
X5090D02*
X5097D01*
X5090D02*
Y3725D01*
X5062Y3707D02*
X5066D01*
X5066Y3714D02*
X5066Y3707D01*
X5062Y3764D02*
X5070Y3763D01*
X5077Y3727D01*
X5069Y3686D02*
X5076D01*
X5069Y3689D02*
X5069Y3686D01*
X4969Y3776D02*
Y3790D01*
X4956D02*
X4969D01*
X4942D02*
X4956D01*
X4942Y3776D02*
Y3790D01*
Y3763D02*
Y3776D01*
Y3763D02*
X4956D01*
X4969D01*
Y3776D01*
X4951Y3794D02*
Y3800D01*
Y3794D02*
X4955D01*
X4959D01*
Y3800D01*
X4963Y3794D02*
Y3800D01*
Y3794D02*
X4968D01*
X4973D01*
Y3789D02*
Y3794D01*
Y3784D02*
Y3789D01*
Y3784D02*
X4979D01*
X4973Y3780D02*
X4979D01*
X4973Y3776D02*
Y3780D01*
Y3772D02*
Y3776D01*
Y3772D02*
X4979D01*
X4973Y3768D02*
X4979D01*
X4973Y3764D02*
Y3768D01*
Y3759D02*
Y3764D01*
X4968Y3759D02*
X4973Y3759D01*
X4964Y3759D02*
X4968Y3759D01*
X4963Y3753D02*
X4964Y3759D01*
X4959Y3753D02*
Y3759D01*
X4955Y3759D02*
X4959Y3759D01*
X4951Y3759D02*
X4955Y3759D01*
X4951Y3753D02*
X4951Y3759D01*
X4948Y3753D02*
Y3759D01*
X4943D02*
X4948D01*
X4938D02*
X4943D01*
X4938D02*
Y3763D01*
Y3768D01*
X4932D02*
X4938D01*
X4932Y3772D02*
X4938D01*
Y3776D01*
Y3780D01*
X4932D02*
X4938D01*
X4932Y3784D02*
X4938D01*
Y3789D01*
Y3794D01*
X4943Y3794D01*
X4948Y3795D01*
X4948Y3800D01*
X4534Y4835D02*
X4676D01*
X4534Y4755D02*
X4676D01*
X4534D02*
Y4835D01*
X4676Y4755D02*
Y4835D01*
X4425Y4044D02*
Y4186D01*
X4505Y4044D02*
Y4186D01*
X4425Y4044D02*
X4505D01*
X4425Y4186D02*
X4505D01*
X4150Y4044D02*
Y4186D01*
X4230Y4044D02*
Y4186D01*
X4150Y4044D02*
X4230D01*
X4150Y4186D02*
X4230D01*
X3945Y3136D02*
X4040D01*
X3945Y3244D02*
X4040D01*
Y3136D02*
Y3244D01*
X3748Y3233D02*
X3759Y3244D01*
X3748Y3220D02*
Y3233D01*
X3759Y3136D02*
X3856D01*
X3748Y3147D02*
X3759Y3136D01*
X3748Y3147D02*
Y3226D01*
X3759Y3244D02*
X3861D01*
X4144Y3390D02*
X4286D01*
X4144Y3470D02*
X4286D01*
Y3390D02*
Y3470D01*
X4144Y3390D02*
Y3470D01*
Y3368D02*
X4286D01*
X4144Y3288D02*
X4286D01*
X4144D02*
Y3368D01*
X4286Y3288D02*
Y3368D01*
X4561Y3485D02*
X4703D01*
X4561Y3565D02*
X4703D01*
Y3485D02*
Y3565D01*
X4561Y3485D02*
Y3565D01*
X4795Y3136D02*
X4890D01*
X4795Y3244D02*
X4890D01*
Y3136D02*
Y3244D01*
X4598Y3233D02*
X4609Y3244D01*
X4598Y3220D02*
Y3233D01*
X4609Y3136D02*
X4706D01*
X4598Y3147D02*
X4609Y3136D01*
X4598Y3147D02*
Y3226D01*
X4609Y3244D02*
X4711D01*
X5002Y3385D02*
X5144D01*
X5002Y3465D02*
X5144D01*
Y3385D02*
Y3465D01*
X5002Y3385D02*
Y3465D01*
X5004Y3365D02*
X5146D01*
X5004Y3285D02*
X5146D01*
X5004D02*
Y3365D01*
X5146Y3285D02*
Y3365D01*
X5434Y3485D02*
X5576D01*
X5434Y3565D02*
X5576D01*
Y3485D02*
Y3565D01*
X5434Y3485D02*
Y3565D01*
X5665Y3136D02*
X5760D01*
X5665Y3244D02*
X5760D01*
Y3136D02*
Y3244D01*
X5468Y3233D02*
X5479Y3244D01*
X5468Y3220D02*
Y3233D01*
X5479Y3136D02*
X5576D01*
X5468Y3147D02*
X5479Y3136D01*
X5468Y3147D02*
Y3226D01*
X5479Y3244D02*
X5581D01*
X5879Y3365D02*
X6021D01*
X5879Y3285D02*
X6021D01*
X5879D02*
Y3365D01*
X6021Y3285D02*
Y3365D01*
X5879Y3390D02*
X6021D01*
X5879Y3470D02*
X6021D01*
Y3390D02*
Y3470D01*
X5879Y3390D02*
Y3470D01*
X6495Y3136D02*
X6590D01*
X6495Y3244D02*
X6590D01*
Y3136D02*
Y3244D01*
X6298Y3233D02*
X6309Y3244D01*
X6298Y3220D02*
Y3233D01*
X6309Y3136D02*
X6406D01*
X6298Y3147D02*
X6309Y3136D01*
X6298Y3147D02*
Y3226D01*
X6309Y3244D02*
X6411D01*
X6262Y3431D02*
Y3450D01*
X6182Y3431D02*
Y3451D01*
X6262D01*
X6182Y3289D02*
X6262D01*
X6182Y3431D02*
X6262D01*
X6182Y3289D02*
Y3431D01*
X6262Y3289D02*
Y3431D01*
X6314Y3480D02*
X6456D01*
X6314Y3560D02*
X6456D01*
Y3480D02*
Y3560D01*
X6314Y3480D02*
Y3560D01*
X6754Y3363D02*
X6896D01*
X6754Y3283D02*
X6896D01*
X6754D02*
Y3363D01*
X6896Y3283D02*
Y3363D01*
X6754Y3385D02*
X6896D01*
X6754Y3465D02*
X6896D01*
Y3385D02*
Y3465D01*
X6754Y3385D02*
Y3465D01*
X6128Y3769D02*
Y3881D01*
Y3769D02*
X6342D01*
X6344D02*
Y3881D01*
X6128D02*
X6342D01*
X6249Y4395D02*
X6391D01*
X6249Y4475D02*
X6391D01*
Y4395D02*
Y4475D01*
X6249Y4395D02*
Y4475D01*
Y4293D02*
X6391D01*
X6249Y4373D02*
X6391D01*
Y4293D02*
Y4373D01*
X6249Y4293D02*
Y4373D01*
X6240Y3902D02*
X6376D01*
X6240Y4148D02*
X6376D01*
X6240Y3902D02*
Y4148D01*
X6376Y3902D02*
Y4148D01*
X6503Y4167D02*
X6615D01*
X6503Y3953D02*
Y4167D01*
Y3951D02*
X6615D01*
Y3953D02*
Y4167D01*
X6720Y4062D02*
X6910D01*
X6720D02*
Y4158D01*
X6910D01*
Y4062D02*
Y4158D01*
X6700Y4062D02*
Y4158D01*
Y4062D02*
X6720D01*
X6700Y4158D02*
X6720D01*
X6759Y4040D02*
X6901D01*
X6759Y3960D02*
X6901D01*
X6759D02*
Y4040D01*
X6901Y3960D02*
Y4040D01*
X6648Y4719D02*
Y4861D01*
X6569Y4719D02*
Y4861D01*
X6648D01*
X6569Y4719D02*
X6648D01*
X5980D02*
Y4861D01*
X5900Y4719D02*
Y4861D01*
X5980D01*
X5900Y4719D02*
X5980D01*
X6694Y4660D02*
X6836D01*
X6694Y4740D02*
X6836D01*
Y4660D02*
Y4740D01*
X6694Y4660D02*
Y4740D01*
X5382Y3431D02*
Y3450D01*
X5302Y3431D02*
Y3451D01*
X5382D01*
X5302Y3289D02*
X5382D01*
X5302Y3431D02*
X5382D01*
X5302Y3289D02*
Y3431D01*
X5382Y3289D02*
Y3431D01*
X4512Y3436D02*
Y3455D01*
X4432Y3436D02*
Y3456D01*
X4512D01*
X4432Y3294D02*
X4512D01*
X4432Y3436D02*
X4512D01*
X4432Y3294D02*
Y3436D01*
X4512Y3294D02*
Y3436D01*
X3709Y3485D02*
X3851D01*
X3709Y3565D02*
X3851D01*
Y3485D02*
Y3565D01*
X3709Y3485D02*
Y3565D01*
X3657Y3431D02*
Y3450D01*
X3577Y3431D02*
Y3451D01*
X3657D01*
X3577Y3289D02*
X3657D01*
X3577Y3431D02*
X3657D01*
X3577Y3289D02*
Y3431D01*
X3657Y3289D02*
Y3431D01*
D11*
X4862Y3670D02*
D03*
X5450Y3687D02*
D03*
X5339Y3686D02*
D03*
X5289Y3735D02*
D03*
X5292Y3707D02*
D03*
X5267Y3687D02*
D03*
X5236Y3732D02*
D03*
X5236Y3732D02*
D03*
X5124Y3711D02*
D03*
X5123Y3709D02*
D03*
X5130Y3687D02*
D03*
X5062Y3736D02*
D03*
X4950Y3806D02*
D03*
X4949Y3747D02*
D03*
D12*
X7555Y76531D02*
G03*
X7551Y76512I147806J-26651D01*
G01*
D13*
X4551Y4190D02*
G03*
X4551Y4190I-5J0D01*
G01*
X4291D02*
G03*
X4291Y4190I-5J0D01*
G01*
X4254Y3120D02*
G03*
X4254Y3120I-5J0D01*
G01*
X5119D02*
G03*
X5119Y3120I-5J0D01*
G01*
X5994D02*
G03*
X5994Y3120I-5J0D01*
G01*
X6563Y4423D02*
G03*
X6563Y4423I-5J0D01*
G01*
X6869Y3120D02*
G03*
X6869Y3120I-5J0D01*
G01*
D14*
X3680Y3444D02*
G03*
X3680Y3444I-4J0D01*
G01*
X4535D02*
G03*
X4535Y3444I-4J0D01*
G01*
X5405D02*
G03*
X5405Y3444I-4J0D01*
G01*
X6126Y4523D02*
G03*
X6126Y4523I-4J0D01*
G01*
X6285Y3444D02*
G03*
X6285Y3444I-4J0D01*
G01*
X6617Y4352D02*
G03*
X6617Y4352I-4J0D01*
G01*
X4607Y4919D02*
Y4931D01*
X4563Y4919D02*
Y4931D01*
X4428Y4769D02*
Y4781D01*
X4472Y4769D02*
Y4781D01*
X4677Y4919D02*
Y4931D01*
X4633Y4919D02*
Y4931D01*
X4594Y4737D02*
X4606D01*
X4594Y4693D02*
X4606D01*
X4438Y4464D02*
Y4476D01*
X4482Y4464D02*
Y4476D01*
X4613Y4056D02*
Y4083D01*
X4573Y4056D02*
X4613D01*
Y4146D02*
Y4174D01*
X4573D02*
X4613D01*
X4353Y4056D02*
Y4083D01*
X4313Y4056D02*
X4353D01*
Y4146D02*
Y4174D01*
X4313D02*
X4353D01*
X4182Y3226D02*
Y3254D01*
X4222D01*
X4182Y3136D02*
Y3164D01*
Y3136D02*
X4222D01*
X5047Y3226D02*
Y3254D01*
X5087D01*
X5047Y3136D02*
Y3164D01*
Y3136D02*
X5087D01*
X5922Y3226D02*
Y3254D01*
X5962D01*
X5922Y3136D02*
Y3164D01*
Y3136D02*
X5962D01*
X6019Y4172D02*
X6031D01*
X6019Y4128D02*
X6031D01*
X6019Y4247D02*
X6031D01*
X6019Y4203D02*
X6031D01*
X6386Y4222D02*
X6398D01*
X6386Y4178D02*
X6398D01*
X6515Y4296D02*
X6527D01*
X6515Y4253D02*
X6527D01*
X6533Y4331D02*
Y4362D01*
X6497Y4331D02*
X6533D01*
Y4418D02*
Y4449D01*
X6497D02*
X6533D01*
X6797Y3226D02*
Y3254D01*
X6837D01*
X6797Y3136D02*
Y3164D01*
Y3136D02*
X6837D01*
D15*
X4003Y3092D02*
G03*
X4083Y3092I40J40D01*
G01*
X4855D02*
G03*
X4935Y3092I40J40D01*
G01*
X5707D02*
G03*
X5787Y3092I40J40D01*
G01*
X6558D02*
G03*
X6639Y3092I40J40D01*
G01*
X4306Y1825D02*
X4345D01*
X4306D02*
Y1864D01*
Y1865D02*
X4345D01*
X3730Y2204D02*
X4345D01*
X3731Y1771D02*
X4345D01*
X3731D02*
Y1870D01*
X3730Y1865D02*
Y2204D01*
X4345Y1771D02*
Y1825D01*
X4345Y1865D02*
Y2204D01*
X5160Y1825D02*
X5199D01*
X5160D02*
Y1864D01*
Y1865D02*
X5199D01*
X4585Y2204D02*
X5199D01*
X4585Y1771D02*
X5200D01*
X4585D02*
Y1870D01*
X4585Y1865D02*
Y2204D01*
X5200Y1771D02*
Y1825D01*
X5199Y1865D02*
Y2204D01*
X6015Y1825D02*
X6054D01*
X6015D02*
Y1864D01*
Y1865D02*
X6054D01*
X5439Y2204D02*
X6054D01*
X5440Y1771D02*
X6054D01*
X5440D02*
Y1870D01*
X5439Y1865D02*
Y2204D01*
X6054Y1771D02*
Y1825D01*
X6054Y1865D02*
Y2204D01*
X6869Y1825D02*
X6908D01*
X6869D02*
Y1864D01*
Y1865D02*
X6908D01*
X6294Y2204D02*
X6908D01*
X6294Y1771D02*
X6909D01*
X6294D02*
Y1870D01*
X6294Y1865D02*
Y2204D01*
X6909Y1771D02*
Y1825D01*
X6908Y1865D02*
Y2204D01*
X3675Y4650D02*
X3705D01*
X3675Y4750D02*
X3705D01*
X3675D02*
Y4850D01*
X3705D01*
X3675Y4550D02*
Y4650D01*
Y4550D02*
X3705D01*
Y4455D02*
Y4945D01*
X3465D02*
X3705D01*
X3465Y4455D02*
Y4945D01*
Y4455D02*
X3705D01*
X6250Y4730D02*
Y4760D01*
X6350Y4730D02*
Y4760D01*
X6450D01*
Y4730D02*
Y4760D01*
X6150D02*
X6250D01*
X6150Y4730D02*
Y4760D01*
X6055Y4730D02*
X6545D01*
Y4970D01*
X6055D02*
X6545D01*
X6055Y4730D02*
Y4970D01*
X3650Y3860D02*
X3685D01*
X3650Y4260D02*
X3685D01*
X3650D02*
Y4335D01*
X3685D01*
X3650Y3785D02*
Y3860D01*
Y3785D02*
X3685D01*
Y3715D02*
Y4404D01*
X3465Y4405D02*
X3686D01*
X3465Y3715D02*
Y4404D01*
Y3715D02*
X3686D01*
X4543Y3905D02*
Y3845D01*
X4545Y3905D02*
Y3845D01*
X4563Y3888D02*
Y3865D01*
X4534Y3905D02*
X4580D01*
Y3888D01*
X4577Y3905D01*
X4545Y3876D02*
X4563D01*
X4534Y3845D02*
X4580D01*
Y3862D01*
X4577Y3845D01*
X4625Y3896D02*
X4628Y3905D01*
Y3888D01*
X4625Y3896D01*
X4619Y3902D01*
X4611Y3905D01*
X4602D01*
X4594Y3902D01*
X4588Y3896D01*
Y3891D01*
X4591Y3885D01*
X4594Y3882D01*
X4599Y3879D01*
X4617Y3874D01*
X4622Y3871D01*
X4628Y3865D01*
X4588Y3891D02*
X4594Y3885D01*
X4599Y3882D01*
X4617Y3876D01*
X4622Y3874D01*
X4625Y3871D01*
X4628Y3865D01*
Y3854D01*
X4622Y3848D01*
X4614Y3845D01*
X4605D01*
X4597Y3848D01*
X4591Y3854D01*
X4588Y3862D01*
Y3845D01*
X4591Y3854D01*
X4645Y3905D02*
Y3845D01*
X4648Y3905D02*
Y3845D01*
X4637Y3905D02*
X4671D01*
X4680Y3902D01*
X4683Y3899D01*
X4685Y3894D01*
Y3885D01*
X4683Y3879D01*
X4680Y3876D01*
X4671Y3874D01*
X4648D01*
X4671Y3905D02*
X4677Y3902D01*
X4680Y3899D01*
X4683Y3894D01*
Y3885D01*
X4680Y3879D01*
X4677Y3876D01*
X4671Y3874D01*
X4637Y3845D02*
X4657D01*
X4696Y3894D02*
X4699Y3891D01*
X4696Y3888D01*
X4693Y3891D01*
Y3894D01*
X4696Y3899D01*
X4699Y3902D01*
X4708Y3905D01*
X4719D01*
X4728Y3902D01*
X4731Y3896D01*
Y3888D01*
X4728Y3882D01*
X4719Y3879D01*
X4711D01*
X4719Y3905D02*
X4725Y3902D01*
X4728Y3896D01*
Y3888D01*
X4725Y3882D01*
X4719Y3879D01*
X4725Y3876D01*
X4731Y3871D01*
X4733Y3865D01*
Y3856D01*
X4731Y3851D01*
X4728Y3848D01*
X4719Y3845D01*
X4708D01*
X4699Y3848D01*
X4696Y3851D01*
X4693Y3856D01*
Y3859D01*
X4696Y3862D01*
X4699Y3859D01*
X4696Y3856D01*
X4728Y3874D02*
X4731Y3865D01*
Y3856D01*
X4728Y3851D01*
X4725Y3848D01*
X4719Y3845D01*
X4745Y3894D02*
X4748Y3891D01*
X4745Y3888D01*
X4742Y3891D01*
Y3894D01*
X4745Y3899D01*
X4748Y3902D01*
X4757Y3905D01*
X4768D01*
X4777Y3902D01*
X4779Y3899D01*
X4782Y3894D01*
Y3888D01*
X4779Y3882D01*
X4771Y3876D01*
X4757Y3871D01*
X4751Y3868D01*
X4745Y3862D01*
X4742Y3854D01*
Y3845D01*
X4768Y3905D02*
X4774Y3902D01*
X4777Y3899D01*
X4779Y3894D01*
Y3888D01*
X4777Y3882D01*
X4768Y3876D01*
X4757Y3871D01*
X4742Y3851D02*
X4745Y3854D01*
X4751D01*
X4765Y3848D01*
X4774D01*
X4779Y3851D01*
X4782Y3854D01*
Y3859D01*
X4751Y3854D02*
X4765Y3845D01*
X4777D01*
X4779Y3848D01*
X4782Y3854D01*
X4854Y3905D02*
Y3845D01*
X4857Y3905D02*
Y3845D01*
X4845Y3905D02*
X4879D01*
X4888Y3902D01*
X4891Y3899D01*
X4894Y3894D01*
Y3888D01*
X4891Y3882D01*
X4888Y3879D01*
X4879Y3876D01*
X4857D01*
X4879Y3905D02*
X4885Y3902D01*
X4888Y3899D01*
X4891Y3894D01*
Y3888D01*
X4888Y3882D01*
X4885Y3879D01*
X4879Y3876D01*
X4845Y3845D02*
X4865D01*
X4871Y3876D02*
X4876Y3874D01*
X4879Y3871D01*
X4888Y3851D01*
X4891Y3848D01*
X4894D01*
X4896Y3851D01*
X4876Y3874D02*
X4879Y3868D01*
X4885Y3848D01*
X4888Y3845D01*
X4894D01*
X4896Y3851D01*
Y3854D01*
X4913Y3905D02*
Y3845D01*
X4916Y3905D02*
Y3845D01*
X4933Y3888D02*
Y3865D01*
X4904Y3905D02*
X4950D01*
Y3888D01*
X4947Y3905D01*
X4916Y3876D02*
X4933D01*
X4904Y3845D02*
X4950D01*
Y3862D01*
X4947Y3845D01*
X4967Y3905D02*
Y3845D01*
X4970Y3905D02*
Y3845D01*
X4958Y3905D02*
X4978D01*
X4958Y3845D02*
X5001D01*
Y3862D01*
X4998Y3845D01*
X5035Y3905D02*
X5015Y3845D01*
X5035Y3905D02*
X5055Y3845D01*
X5035Y3896D02*
X5052Y3845D01*
X5021Y3862D02*
X5047D01*
X5010Y3845D02*
X5027D01*
X5044D02*
X5061D01*
X5074Y3905D02*
X5094Y3874D01*
Y3845D01*
X5077Y3905D02*
X5097Y3874D01*
Y3845D01*
X5117Y3905D02*
X5097Y3874D01*
X5069Y3905D02*
X5086D01*
X5106D02*
X5123D01*
X5086Y3845D02*
X5106D01*
X5224Y3896D02*
X5227Y3888D01*
Y3905D01*
X5224Y3896D01*
X5219Y3902D01*
X5210Y3905D01*
X5204D01*
X5196Y3902D01*
X5190Y3896D01*
X5187Y3891D01*
X5184Y3882D01*
Y3868D01*
X5187Y3859D01*
X5190Y3854D01*
X5196Y3848D01*
X5204Y3845D01*
X5210D01*
X5219Y3848D01*
X5224Y3854D01*
X5227Y3859D01*
X5204Y3905D02*
X5199Y3902D01*
X5193Y3896D01*
X5190Y3891D01*
X5187Y3882D01*
Y3868D01*
X5190Y3859D01*
X5193Y3854D01*
X5199Y3848D01*
X5204Y3845D01*
X5256Y3905D02*
X5247Y3902D01*
X5242Y3896D01*
X5239Y3891D01*
X5236Y3879D01*
Y3871D01*
X5239Y3859D01*
X5242Y3854D01*
X5247Y3848D01*
X5256Y3845D01*
X5262D01*
X5270Y3848D01*
X5276Y3854D01*
X5279Y3859D01*
X5282Y3871D01*
Y3879D01*
X5279Y3891D01*
X5276Y3896D01*
X5270Y3902D01*
X5262Y3905D01*
X5256D01*
X5250Y3902D01*
X5244Y3896D01*
X5242Y3891D01*
X5239Y3879D01*
Y3871D01*
X5242Y3859D01*
X5244Y3854D01*
X5250Y3848D01*
X5256Y3845D01*
X5262D02*
X5267Y3848D01*
X5273Y3854D01*
X5276Y3859D01*
X5279Y3871D01*
Y3879D01*
X5276Y3891D01*
X5273Y3896D01*
X5267Y3902D01*
X5262Y3905D01*
X5298D02*
Y3845D01*
X5301Y3905D02*
X5336Y3851D01*
X5301Y3899D02*
X5336Y3845D01*
Y3905D02*
Y3845D01*
X5290Y3905D02*
X5301D01*
X5327D02*
X5344D01*
X5290Y3845D02*
X5307D01*
X5372Y3905D02*
Y3845D01*
X5374Y3905D02*
Y3845D01*
X5354Y3905D02*
X5352Y3888D01*
Y3905D01*
X5394D01*
Y3888D01*
X5392Y3905D01*
X5363Y3845D02*
X5383D01*
X5412Y3905D02*
Y3845D01*
X5414Y3905D02*
Y3845D01*
X5403Y3905D02*
X5437D01*
X5446Y3902D01*
X5449Y3899D01*
X5452Y3894D01*
Y3888D01*
X5449Y3882D01*
X5446Y3879D01*
X5437Y3876D01*
X5414D01*
X5437Y3905D02*
X5443Y3902D01*
X5446Y3899D01*
X5449Y3894D01*
Y3888D01*
X5446Y3882D01*
X5443Y3879D01*
X5437Y3876D01*
X5403Y3845D02*
X5423D01*
X5429Y3876D02*
X5434Y3874D01*
X5437Y3871D01*
X5446Y3851D01*
X5449Y3848D01*
X5452D01*
X5454Y3851D01*
X5434Y3874D02*
X5437Y3868D01*
X5443Y3848D01*
X5446Y3845D01*
X5452D01*
X5454Y3851D01*
Y3854D01*
X5482Y3905D02*
X5474Y3902D01*
X5468Y3896D01*
X5465Y3891D01*
X5462Y3879D01*
Y3871D01*
X5465Y3859D01*
X5468Y3854D01*
X5474Y3848D01*
X5482Y3845D01*
X5488D01*
X5496Y3848D01*
X5502Y3854D01*
X5505Y3859D01*
X5508Y3871D01*
Y3879D01*
X5505Y3891D01*
X5502Y3896D01*
X5496Y3902D01*
X5488Y3905D01*
X5482D01*
X5476Y3902D01*
X5471Y3896D01*
X5468Y3891D01*
X5465Y3879D01*
Y3871D01*
X5468Y3859D01*
X5471Y3854D01*
X5476Y3848D01*
X5482Y3845D01*
X5488D02*
X5494Y3848D01*
X5499Y3854D01*
X5502Y3859D01*
X5505Y3871D01*
Y3879D01*
X5502Y3891D01*
X5499Y3896D01*
X5494Y3902D01*
X5488Y3905D01*
X5525D02*
Y3845D01*
X5528Y3905D02*
Y3845D01*
X5516Y3905D02*
X5536D01*
X5516Y3845D02*
X5559D01*
Y3862D01*
X5556Y3845D01*
X5630Y3905D02*
Y3845D01*
X5633Y3905D02*
Y3845D01*
X5621Y3905D02*
X5656D01*
X5664Y3902D01*
X5667Y3899D01*
X5670Y3894D01*
Y3888D01*
X5667Y3882D01*
X5664Y3879D01*
X5656Y3876D01*
Y3905D02*
X5661Y3902D01*
X5664Y3899D01*
X5667Y3894D01*
Y3888D01*
X5664Y3882D01*
X5661Y3879D01*
X5656Y3876D01*
X5633D02*
X5656D01*
X5664Y3874D01*
X5667Y3871D01*
X5670Y3865D01*
Y3856D01*
X5667Y3851D01*
X5664Y3848D01*
X5656Y3845D01*
X5621D01*
X5656Y3876D02*
X5661Y3874D01*
X5664Y3871D01*
X5667Y3865D01*
Y3856D01*
X5664Y3851D01*
X5661Y3848D01*
X5656Y3845D01*
X5698Y3905D02*
X5689Y3902D01*
X5684Y3896D01*
X5681Y3891D01*
X5678Y3879D01*
Y3871D01*
X5681Y3859D01*
X5684Y3854D01*
X5689Y3848D01*
X5698Y3845D01*
X5704D01*
X5712Y3848D01*
X5718Y3854D01*
X5721Y3859D01*
X5724Y3871D01*
Y3879D01*
X5721Y3891D01*
X5718Y3896D01*
X5712Y3902D01*
X5704Y3905D01*
X5698D01*
X5692Y3902D01*
X5687Y3896D01*
X5684Y3891D01*
X5681Y3879D01*
Y3871D01*
X5684Y3859D01*
X5687Y3854D01*
X5692Y3848D01*
X5698Y3845D01*
X5704D02*
X5709Y3848D01*
X5715Y3854D01*
X5718Y3859D01*
X5721Y3871D01*
Y3879D01*
X5718Y3891D01*
X5715Y3896D01*
X5709Y3902D01*
X5704Y3905D01*
X5758D02*
X5738Y3845D01*
X5758Y3905D02*
X5778Y3845D01*
X5758Y3896D02*
X5775Y3845D01*
X5743Y3862D02*
X5769D01*
X5732Y3845D02*
X5749D01*
X5766D02*
X5783D01*
X5800Y3905D02*
Y3845D01*
X5803Y3905D02*
Y3845D01*
X5791Y3905D02*
X5825D01*
X5834Y3902D01*
X5837Y3899D01*
X5840Y3894D01*
Y3888D01*
X5837Y3882D01*
X5834Y3879D01*
X5825Y3876D01*
X5803D01*
X5825Y3905D02*
X5831Y3902D01*
X5834Y3899D01*
X5837Y3894D01*
Y3888D01*
X5834Y3882D01*
X5831Y3879D01*
X5825Y3876D01*
X5791Y3845D02*
X5811D01*
X5817Y3876D02*
X5823Y3874D01*
X5825Y3871D01*
X5834Y3851D01*
X5837Y3848D01*
X5840D01*
X5843Y3851D01*
X5823Y3874D02*
X5825Y3868D01*
X5831Y3848D01*
X5834Y3845D01*
X5840D01*
X5843Y3851D01*
Y3854D01*
X5859Y3905D02*
Y3845D01*
X5862Y3905D02*
Y3845D01*
X5850Y3905D02*
X5879D01*
X5887Y3902D01*
X5893Y3896D01*
X5896Y3891D01*
X5899Y3882D01*
Y3868D01*
X5896Y3859D01*
X5893Y3854D01*
X5887Y3848D01*
X5879Y3845D01*
X5850D01*
X5879Y3905D02*
X5885Y3902D01*
X5890Y3896D01*
X5893Y3891D01*
X5896Y3882D01*
Y3868D01*
X5893Y3859D01*
X5890Y3854D01*
X5885Y3848D01*
X5879Y3845D01*
D16*
X4449Y4364D02*
G03*
X4449Y4364I-8J0D01*
G01*
Y4674D02*
G03*
X4449Y4674I-8J0D01*
G01*
D17*
X4240Y4455D02*
G03*
X4240Y4455I-71J0D01*
G01*
Y4765D02*
G03*
X4240Y4765I-71J0D01*
G01*
X3782Y3467D02*
X4038D01*
X3782Y3283D02*
X4038D01*
X4637Y3467D02*
X4893D01*
X4637Y3283D02*
X4893D01*
X5507Y3467D02*
X5763D01*
X5507Y3283D02*
X5763D01*
X6092Y4345D02*
Y4485D01*
X5698Y4345D02*
Y4485D01*
X6092Y4345D02*
Y4485D01*
X5698Y4345D02*
Y4485D01*
X6387Y3467D02*
X6643D01*
X6387Y3283D02*
X6643D01*
X6966Y4567D02*
X7020D01*
Y4263D02*
Y4567D01*
X6966Y4263D02*
X7020D01*
X6658Y4498D02*
Y4541D01*
Y4289D02*
Y4332D01*
X6751Y4567D02*
X6842D01*
X6751Y4263D02*
X6842D01*
X4051Y4573D02*
X4287D01*
X4051Y4337D02*
Y4573D01*
Y4337D02*
X4287D01*
Y4573D01*
X4051Y4883D02*
X4287D01*
X4051Y4647D02*
Y4883D01*
Y4647D02*
X4287D01*
Y4883D01*
D18*
X4555Y4865D02*
X4615D01*
X4555Y4985D02*
X4615D01*
X4420Y4835D02*
X4480D01*
X4420Y4715D02*
X4480D01*
X4625Y4865D02*
X4685D01*
X4625Y4985D02*
X4685D01*
X4660Y4685D02*
Y4745D01*
X4540Y4685D02*
Y4745D01*
X4430Y4530D02*
X4490D01*
X4430Y4410D02*
X4490D01*
X6085Y4120D02*
Y4180D01*
X5965Y4120D02*
Y4180D01*
X6085Y4195D02*
Y4255D01*
X5965Y4195D02*
Y4255D01*
X6452Y4170D02*
Y4230D01*
X6332Y4170D02*
Y4230D01*
X6461Y4243D02*
X6579D01*
X6461Y4307D02*
X6579D01*
D19*
X4065Y2719D02*
Y2769D01*
X4016Y2719D02*
Y2769D01*
Y2719D02*
X4065D01*
X4275Y2769D02*
Y2794D01*
X4065Y2769D02*
X4275D01*
X4065D02*
Y2819D01*
X4016D02*
X4065D01*
X4016Y2769D02*
Y2819D01*
X3806Y2769D02*
X4016D01*
X3806D02*
Y2794D01*
X4016Y2819D02*
X4065Y2719D01*
X4041Y2481D02*
Y2694D01*
Y2481D02*
X4065Y2456D01*
X4188D01*
X3892D02*
X4016D01*
X4065D02*
X4077Y2443D01*
X4041Y2844D02*
Y2884D01*
X3725Y2295D02*
Y3093D01*
Y2295D02*
X4365D01*
Y3093D01*
X3725Y3096D02*
X4365D01*
X4917Y2719D02*
Y2769D01*
X4867Y2719D02*
Y2769D01*
Y2719D02*
X4917D01*
X5127Y2769D02*
Y2794D01*
X4917Y2769D02*
X5127D01*
X4917D02*
Y2819D01*
X4867D02*
X4917D01*
X4867Y2769D02*
Y2819D01*
X4657Y2769D02*
X4867D01*
X4657D02*
Y2794D01*
X4867Y2819D02*
X4917Y2719D01*
X4892Y2481D02*
Y2694D01*
Y2481D02*
X4917Y2456D01*
X5039D01*
X4744D02*
X4867D01*
X4917D02*
X4929Y2443D01*
X4892Y2844D02*
Y2884D01*
X4577Y2295D02*
Y3093D01*
Y2295D02*
X5217D01*
Y3093D01*
X4577Y3096D02*
X5217D01*
X5769Y2719D02*
Y2769D01*
X5719Y2719D02*
Y2769D01*
Y2719D02*
X5769D01*
X5979Y2769D02*
Y2794D01*
X5769Y2769D02*
X5979D01*
X5769D02*
Y2819D01*
X5719D02*
X5769D01*
X5719Y2769D02*
Y2819D01*
X5509Y2769D02*
X5719D01*
X5509D02*
Y2794D01*
X5719Y2819D02*
X5769Y2719D01*
X5744Y2481D02*
Y2694D01*
Y2481D02*
X5769Y2456D01*
X5891D01*
X5596D02*
X5719D01*
X5769D02*
X5781Y2443D01*
X5744Y2844D02*
Y2884D01*
X5428Y2295D02*
Y3093D01*
Y2295D02*
X6068D01*
Y3093D01*
X5428Y3096D02*
X6068D01*
X6621Y2719D02*
Y2769D01*
X6570Y2719D02*
Y2769D01*
Y2719D02*
X6621D01*
X6831Y2769D02*
Y2794D01*
X6621Y2769D02*
X6831D01*
X6621D02*
Y2819D01*
X6570D02*
X6621D01*
X6570Y2769D02*
Y2819D01*
X6360Y2769D02*
X6570D01*
X6360D02*
Y2794D01*
X6570Y2819D02*
X6621Y2719D01*
X6595Y2481D02*
Y2694D01*
Y2481D02*
X6621Y2456D01*
X6742D01*
X6448D02*
X6570D01*
X6621D02*
X6633Y2443D01*
X6595Y2844D02*
Y2884D01*
X6280Y2295D02*
Y3093D01*
Y2295D02*
X6920D01*
Y3093D01*
X6280Y3096D02*
X6920D01*
D20*
X6935Y3971D02*
X6975D01*
X6935Y3973D02*
X6975D01*
X6935Y3965D02*
Y3988D01*
X6937Y3994D01*
X6939Y3995D01*
X6943Y3997D01*
X6948D01*
X6952Y3995D01*
X6954Y3994D01*
X6956Y3988D01*
Y3973D01*
X6935Y3988D02*
X6937Y3992D01*
X6939Y3994D01*
X6943Y3995D01*
X6948D01*
X6952Y3994D01*
X6954Y3992D01*
X6956Y3988D01*
X6975Y3965D02*
Y3978D01*
X6935Y4016D02*
X6937Y4010D01*
X6941Y4007D01*
X6945Y4005D01*
X6952Y4003D01*
X6958D01*
X6965Y4005D01*
X6969Y4007D01*
X6973Y4010D01*
X6975Y4016D01*
Y4020D01*
X6973Y4026D01*
X6969Y4029D01*
X6965Y4031D01*
X6958Y4033D01*
X6952D01*
X6945Y4031D01*
X6941Y4029D01*
X6937Y4026D01*
X6935Y4020D01*
Y4016D01*
X6937Y4012D01*
X6941Y4008D01*
X6945Y4007D01*
X6952Y4005D01*
X6958D01*
X6965Y4007D01*
X6969Y4008D01*
X6973Y4012D01*
X6975Y4016D01*
Y4020D02*
X6973Y4024D01*
X6969Y4027D01*
X6965Y4029D01*
X6958Y4031D01*
X6952D01*
X6945Y4029D01*
X6941Y4027D01*
X6937Y4024D01*
X6935Y4020D01*
Y4044D02*
X6975Y4052D01*
X6935Y4046D02*
X6965Y4052D01*
X6935Y4060D02*
X6975Y4052D01*
X6935Y4060D02*
X6975Y4067D01*
X6935Y4062D02*
X6965Y4067D01*
X6935Y4075D02*
X6975Y4067D01*
X6935Y4039D02*
Y4052D01*
Y4069D02*
Y4081D01*
Y4091D02*
X6975D01*
X6935Y4093D02*
X6975D01*
X6946Y4104D02*
X6962D01*
X6935Y4085D02*
Y4115D01*
X6946D01*
X6935Y4114D01*
X6954Y4093D02*
Y4104D01*
X6975Y4085D02*
Y4115D01*
X6964D01*
X6975Y4114D01*
X6935Y4127D02*
X6975D01*
X6935Y4129D02*
X6975D01*
X6935Y4121D02*
Y4144D01*
X6937Y4150D01*
X6939Y4151D01*
X6943Y4153D01*
X6946D01*
X6950Y4151D01*
X6952Y4150D01*
X6954Y4144D01*
Y4129D01*
X6935Y4144D02*
X6937Y4148D01*
X6939Y4150D01*
X6943Y4151D01*
X6946D01*
X6950Y4150D01*
X6952Y4148D01*
X6954Y4144D01*
X6975Y4121D02*
Y4134D01*
X6954Y4138D02*
X6956Y4142D01*
X6958Y4144D01*
X6971Y4150D01*
X6973Y4151D01*
Y4153D01*
X6971Y4155D01*
X6956Y4142D02*
X6960Y4144D01*
X6973Y4148D01*
X6975Y4150D01*
Y4153D01*
X6971Y4155D01*
X6969D01*
X6381Y1745D02*
Y1705D01*
X6383Y1745D02*
X6405Y1709D01*
X6383Y1741D02*
X6405Y1705D01*
Y1745D02*
Y1705D01*
X6375Y1745D02*
X6383D01*
X6400D02*
X6411D01*
X6375Y1705D02*
X6386D01*
X6429Y1745D02*
X6424Y1743D01*
X6420Y1739D01*
X6418Y1735D01*
X6416Y1728D01*
Y1722D01*
X6418Y1715D01*
X6420Y1711D01*
X6424Y1707D01*
X6429Y1705D01*
X6433D01*
X6439Y1707D01*
X6443Y1711D01*
X6445Y1715D01*
X6447Y1722D01*
Y1728D01*
X6445Y1735D01*
X6443Y1739D01*
X6439Y1743D01*
X6433Y1745D01*
X6429D01*
X6426Y1743D01*
X6422Y1739D01*
X6420Y1735D01*
X6418Y1728D01*
Y1722D01*
X6420Y1715D01*
X6422Y1711D01*
X6426Y1707D01*
X6429Y1705D01*
X6433D02*
X6437Y1707D01*
X6441Y1711D01*
X6443Y1715D01*
X6445Y1722D01*
Y1728D01*
X6443Y1735D01*
X6441Y1739D01*
X6437Y1743D01*
X6433Y1745D01*
X6577Y1739D02*
X6579Y1734D01*
Y1745D01*
X6577Y1739D01*
X6573Y1743D01*
X6567Y1745D01*
X6563D01*
X6558Y1743D01*
X6554Y1739D01*
X6552Y1735D01*
X6550Y1730D01*
Y1720D01*
X6552Y1715D01*
X6554Y1711D01*
X6558Y1707D01*
X6563Y1705D01*
X6567D01*
X6573Y1707D01*
X6577Y1711D01*
X6579Y1715D01*
X6563Y1745D02*
X6560Y1743D01*
X6556Y1739D01*
X6554Y1735D01*
X6552Y1730D01*
Y1720D01*
X6554Y1715D01*
X6556Y1711D01*
X6560Y1707D01*
X6563Y1705D01*
X6598Y1745D02*
X6592Y1743D01*
X6588Y1739D01*
X6586Y1735D01*
X6584Y1728D01*
Y1722D01*
X6586Y1715D01*
X6588Y1711D01*
X6592Y1707D01*
X6598Y1705D01*
X6601D01*
X6607Y1707D01*
X6611Y1711D01*
X6613Y1715D01*
X6615Y1722D01*
Y1728D01*
X6613Y1735D01*
X6611Y1739D01*
X6607Y1743D01*
X6601Y1745D01*
X6598D01*
X6594Y1743D01*
X6590Y1739D01*
X6588Y1735D01*
X6586Y1728D01*
Y1722D01*
X6588Y1715D01*
X6590Y1711D01*
X6594Y1707D01*
X6598Y1705D01*
X6601D02*
X6605Y1707D01*
X6609Y1711D01*
X6611Y1715D01*
X6613Y1722D01*
Y1728D01*
X6611Y1735D01*
X6609Y1739D01*
X6605Y1743D01*
X6601Y1745D01*
X6626D02*
Y1705D01*
X6628Y1745D02*
X6639Y1711D01*
X6626Y1745D02*
X6639Y1705D01*
X6653Y1745D02*
X6639Y1705D01*
X6653Y1745D02*
Y1705D01*
X6655Y1745D02*
Y1705D01*
X6620Y1745D02*
X6628D01*
X6653D02*
X6660D01*
X6620Y1705D02*
X6632D01*
X6647D02*
X6660D01*
X6786Y1745D02*
Y1705D01*
X6788Y1745D02*
X6810Y1709D01*
X6788Y1741D02*
X6810Y1705D01*
Y1745D02*
Y1705D01*
X6780Y1745D02*
X6788D01*
X6805D02*
X6816D01*
X6780Y1705D02*
X6791D01*
X6848Y1739D02*
X6850Y1734D01*
Y1745D01*
X6848Y1739D01*
X6844Y1743D01*
X6838Y1745D01*
X6834D01*
X6829Y1743D01*
X6825Y1739D01*
X6823Y1735D01*
X6821Y1730D01*
Y1720D01*
X6823Y1715D01*
X6825Y1711D01*
X6829Y1707D01*
X6834Y1705D01*
X6838D01*
X6844Y1707D01*
X6848Y1711D01*
X6850Y1715D01*
X6834Y1745D02*
X6831Y1743D01*
X6827Y1739D01*
X6825Y1735D01*
X6823Y1730D01*
Y1720D01*
X6825Y1715D01*
X6827Y1711D01*
X6831Y1707D01*
X6834Y1705D01*
X5511Y1745D02*
Y1705D01*
X5513Y1745D02*
X5535Y1709D01*
X5513Y1741D02*
X5535Y1705D01*
Y1745D02*
Y1705D01*
X5505Y1745D02*
X5513D01*
X5530D02*
X5541D01*
X5505Y1705D02*
X5516D01*
X5559Y1745D02*
X5554Y1743D01*
X5550Y1739D01*
X5548Y1735D01*
X5546Y1728D01*
Y1722D01*
X5548Y1715D01*
X5550Y1711D01*
X5554Y1707D01*
X5559Y1705D01*
X5563D01*
X5569Y1707D01*
X5573Y1711D01*
X5575Y1715D01*
X5577Y1722D01*
Y1728D01*
X5575Y1735D01*
X5573Y1739D01*
X5569Y1743D01*
X5563Y1745D01*
X5559D01*
X5556Y1743D01*
X5552Y1739D01*
X5550Y1735D01*
X5548Y1728D01*
Y1722D01*
X5550Y1715D01*
X5552Y1711D01*
X5556Y1707D01*
X5559Y1705D01*
X5563D02*
X5567Y1707D01*
X5571Y1711D01*
X5573Y1715D01*
X5575Y1722D01*
Y1728D01*
X5573Y1735D01*
X5571Y1739D01*
X5567Y1743D01*
X5563Y1745D01*
X5707Y1739D02*
X5709Y1734D01*
Y1745D01*
X5707Y1739D01*
X5703Y1743D01*
X5697Y1745D01*
X5693D01*
X5688Y1743D01*
X5684Y1739D01*
X5682Y1735D01*
X5680Y1730D01*
Y1720D01*
X5682Y1715D01*
X5684Y1711D01*
X5688Y1707D01*
X5693Y1705D01*
X5697D01*
X5703Y1707D01*
X5707Y1711D01*
X5709Y1715D01*
X5693Y1745D02*
X5690Y1743D01*
X5686Y1739D01*
X5684Y1735D01*
X5682Y1730D01*
Y1720D01*
X5684Y1715D01*
X5686Y1711D01*
X5690Y1707D01*
X5693Y1705D01*
X5728Y1745D02*
X5722Y1743D01*
X5718Y1739D01*
X5716Y1735D01*
X5714Y1728D01*
Y1722D01*
X5716Y1715D01*
X5718Y1711D01*
X5722Y1707D01*
X5728Y1705D01*
X5731D01*
X5737Y1707D01*
X5741Y1711D01*
X5743Y1715D01*
X5745Y1722D01*
Y1728D01*
X5743Y1735D01*
X5741Y1739D01*
X5737Y1743D01*
X5731Y1745D01*
X5728D01*
X5724Y1743D01*
X5720Y1739D01*
X5718Y1735D01*
X5716Y1728D01*
Y1722D01*
X5718Y1715D01*
X5720Y1711D01*
X5724Y1707D01*
X5728Y1705D01*
X5731D02*
X5735Y1707D01*
X5739Y1711D01*
X5741Y1715D01*
X5743Y1722D01*
Y1728D01*
X5741Y1735D01*
X5739Y1739D01*
X5735Y1743D01*
X5731Y1745D01*
X5756D02*
Y1705D01*
X5758Y1745D02*
X5769Y1711D01*
X5756Y1745D02*
X5769Y1705D01*
X5783Y1745D02*
X5769Y1705D01*
X5783Y1745D02*
Y1705D01*
X5785Y1745D02*
Y1705D01*
X5750Y1745D02*
X5758D01*
X5783D02*
X5790D01*
X5750Y1705D02*
X5762D01*
X5777D02*
X5790D01*
X5916Y1745D02*
Y1705D01*
X5918Y1745D02*
X5940Y1709D01*
X5918Y1741D02*
X5940Y1705D01*
Y1745D02*
Y1705D01*
X5910Y1745D02*
X5918D01*
X5935D02*
X5946D01*
X5910Y1705D02*
X5921D01*
X5978Y1739D02*
X5980Y1734D01*
Y1745D01*
X5978Y1739D01*
X5974Y1743D01*
X5968Y1745D01*
X5964D01*
X5959Y1743D01*
X5955Y1739D01*
X5953Y1735D01*
X5951Y1730D01*
Y1720D01*
X5953Y1715D01*
X5955Y1711D01*
X5959Y1707D01*
X5964Y1705D01*
X5968D01*
X5974Y1707D01*
X5978Y1711D01*
X5980Y1715D01*
X5964Y1745D02*
X5961Y1743D01*
X5957Y1739D01*
X5955Y1735D01*
X5953Y1730D01*
Y1720D01*
X5955Y1715D01*
X5957Y1711D01*
X5961Y1707D01*
X5964Y1705D01*
X4656Y1745D02*
Y1705D01*
X4658Y1745D02*
X4680Y1709D01*
X4658Y1741D02*
X4680Y1705D01*
Y1745D02*
Y1705D01*
X4650Y1745D02*
X4658D01*
X4675D02*
X4686D01*
X4650Y1705D02*
X4661D01*
X4704Y1745D02*
X4699Y1743D01*
X4695Y1739D01*
X4693Y1735D01*
X4691Y1728D01*
Y1722D01*
X4693Y1715D01*
X4695Y1711D01*
X4699Y1707D01*
X4704Y1705D01*
X4708D01*
X4714Y1707D01*
X4718Y1711D01*
X4720Y1715D01*
X4722Y1722D01*
Y1728D01*
X4720Y1735D01*
X4718Y1739D01*
X4714Y1743D01*
X4708Y1745D01*
X4704D01*
X4701Y1743D01*
X4697Y1739D01*
X4695Y1735D01*
X4693Y1728D01*
Y1722D01*
X4695Y1715D01*
X4697Y1711D01*
X4701Y1707D01*
X4704Y1705D01*
X4708D02*
X4712Y1707D01*
X4716Y1711D01*
X4718Y1715D01*
X4720Y1722D01*
Y1728D01*
X4718Y1735D01*
X4716Y1739D01*
X4712Y1743D01*
X4708Y1745D01*
X4852Y1739D02*
X4854Y1734D01*
Y1745D01*
X4852Y1739D01*
X4848Y1743D01*
X4842Y1745D01*
X4838D01*
X4833Y1743D01*
X4829Y1739D01*
X4827Y1735D01*
X4825Y1730D01*
Y1720D01*
X4827Y1715D01*
X4829Y1711D01*
X4833Y1707D01*
X4838Y1705D01*
X4842D01*
X4848Y1707D01*
X4852Y1711D01*
X4854Y1715D01*
X4838Y1745D02*
X4835Y1743D01*
X4831Y1739D01*
X4829Y1735D01*
X4827Y1730D01*
Y1720D01*
X4829Y1715D01*
X4831Y1711D01*
X4835Y1707D01*
X4838Y1705D01*
X4873Y1745D02*
X4867Y1743D01*
X4863Y1739D01*
X4861Y1735D01*
X4859Y1728D01*
Y1722D01*
X4861Y1715D01*
X4863Y1711D01*
X4867Y1707D01*
X4873Y1705D01*
X4876D01*
X4882Y1707D01*
X4886Y1711D01*
X4888Y1715D01*
X4890Y1722D01*
Y1728D01*
X4888Y1735D01*
X4886Y1739D01*
X4882Y1743D01*
X4876Y1745D01*
X4873D01*
X4869Y1743D01*
X4865Y1739D01*
X4863Y1735D01*
X4861Y1728D01*
Y1722D01*
X4863Y1715D01*
X4865Y1711D01*
X4869Y1707D01*
X4873Y1705D01*
X4876D02*
X4880Y1707D01*
X4884Y1711D01*
X4886Y1715D01*
X4888Y1722D01*
Y1728D01*
X4886Y1735D01*
X4884Y1739D01*
X4880Y1743D01*
X4876Y1745D01*
X4901D02*
Y1705D01*
X4903Y1745D02*
X4914Y1711D01*
X4901Y1745D02*
X4914Y1705D01*
X4928Y1745D02*
X4914Y1705D01*
X4928Y1745D02*
Y1705D01*
X4930Y1745D02*
Y1705D01*
X4895Y1745D02*
X4903D01*
X4928D02*
X4935D01*
X4895Y1705D02*
X4907D01*
X4922D02*
X4935D01*
X5061Y1745D02*
Y1705D01*
X5063Y1745D02*
X5085Y1709D01*
X5063Y1741D02*
X5085Y1705D01*
Y1745D02*
Y1705D01*
X5055Y1745D02*
X5063D01*
X5080D02*
X5091D01*
X5055Y1705D02*
X5066D01*
X5123Y1739D02*
X5125Y1734D01*
Y1745D01*
X5123Y1739D01*
X5119Y1743D01*
X5113Y1745D01*
X5109D01*
X5104Y1743D01*
X5100Y1739D01*
X5098Y1735D01*
X5096Y1730D01*
Y1720D01*
X5098Y1715D01*
X5100Y1711D01*
X5104Y1707D01*
X5109Y1705D01*
X5113D01*
X5119Y1707D01*
X5123Y1711D01*
X5125Y1715D01*
X5109Y1745D02*
X5106Y1743D01*
X5102Y1739D01*
X5100Y1735D01*
X5098Y1730D01*
Y1720D01*
X5100Y1715D01*
X5102Y1711D01*
X5106Y1707D01*
X5109Y1705D01*
X6438Y4611D02*
X6440Y4613D01*
X6441Y4611D01*
X6440Y4609D01*
X6438D01*
X6434Y4611D01*
X6432Y4613D01*
X6430Y4619D01*
Y4626D01*
X6432Y4632D01*
X6436Y4634D01*
X6441D01*
X6445Y4632D01*
X6447Y4626D01*
Y4621D01*
X6430Y4626D02*
X6432Y4630D01*
X6436Y4632D01*
X6441D01*
X6445Y4630D01*
X6447Y4626D01*
X6449Y4630D01*
X6453Y4634D01*
X6457Y4636D01*
X6462D01*
X6466Y4634D01*
X6468Y4632D01*
X6470Y4626D01*
Y4619D01*
X6468Y4613D01*
X6466Y4611D01*
X6462Y4609D01*
X6460D01*
X6459Y4611D01*
X6460Y4613D01*
X6462Y4611D01*
X6451Y4632D02*
X6457Y4634D01*
X6462D01*
X6466Y4632D01*
X6468Y4630D01*
X6470Y4626D01*
X6430Y4646D02*
X6470Y4659D01*
X6430Y4648D02*
X6464Y4659D01*
X6430Y4672D02*
X6470Y4659D01*
X6430Y4642D02*
Y4653D01*
Y4665D02*
Y4676D01*
X6438Y4683D02*
X6440Y4685D01*
X6441Y4683D01*
X6440Y4681D01*
X6438D01*
X6434Y4683D01*
X6432Y4685D01*
X6430Y4691D01*
Y4698D01*
X6432Y4704D01*
X6436Y4706D01*
X6441D01*
X6445Y4704D01*
X6447Y4698D01*
Y4693D01*
X6430Y4698D02*
X6432Y4702D01*
X6436Y4704D01*
X6441D01*
X6445Y4702D01*
X6447Y4698D01*
X6449Y4702D01*
X6453Y4706D01*
X6457Y4708D01*
X6462D01*
X6466Y4706D01*
X6468Y4704D01*
X6470Y4698D01*
Y4691D01*
X6468Y4685D01*
X6466Y4683D01*
X6462Y4681D01*
X6460D01*
X6459Y4683D01*
X6460Y4685D01*
X6462Y4683D01*
X6451Y4704D02*
X6457Y4706D01*
X6462D01*
X6466Y4704D01*
X6468Y4702D01*
X6470Y4698D01*
X6331Y4637D02*
X6325Y4639D01*
X6336D01*
X6331Y4637D01*
X6327Y4633D01*
X6325Y4628D01*
Y4622D01*
X6327Y4616D01*
X6331Y4613D01*
X6335D01*
X6338Y4614D01*
X6340Y4616D01*
X6342Y4620D01*
X6346Y4632D01*
X6348Y4635D01*
X6352Y4639D01*
X6335Y4613D02*
X6338Y4616D01*
X6340Y4620D01*
X6344Y4632D01*
X6346Y4635D01*
X6348Y4637D01*
X6352Y4639D01*
X6359D01*
X6363Y4635D01*
X6365Y4630D01*
Y4624D01*
X6363Y4618D01*
X6359Y4614D01*
X6354Y4613D01*
X6365D01*
X6359Y4614D01*
X6331Y4672D02*
X6336Y4674D01*
X6325D01*
X6331Y4672D01*
X6327Y4668D01*
X6325Y4662D01*
Y4658D01*
X6327Y4653D01*
X6331Y4649D01*
X6335Y4647D01*
X6340Y4645D01*
X6350D01*
X6355Y4647D01*
X6359Y4649D01*
X6363Y4653D01*
X6365Y4658D01*
Y4662D01*
X6363Y4668D01*
X6359Y4672D01*
X6355Y4674D01*
X6325Y4658D02*
X6327Y4655D01*
X6331Y4651D01*
X6335Y4649D01*
X6340Y4647D01*
X6350D01*
X6355Y4649D01*
X6359Y4651D01*
X6363Y4655D01*
X6365Y4658D01*
X6325Y4685D02*
X6365D01*
X6325Y4687D02*
X6365D01*
X6325Y4679D02*
Y4693D01*
X6365Y4679D02*
Y4708D01*
X6354D01*
X6365Y4706D01*
X6231Y4628D02*
X6225Y4630D01*
X6236D01*
X6231Y4628D01*
X6227Y4624D01*
X6225Y4619D01*
Y4613D01*
X6227Y4607D01*
X6231Y4603D01*
X6235D01*
X6238Y4605D01*
X6240Y4607D01*
X6242Y4611D01*
X6246Y4622D01*
X6248Y4626D01*
X6252Y4630D01*
X6235Y4603D02*
X6238Y4607D01*
X6240Y4611D01*
X6244Y4622D01*
X6246Y4626D01*
X6248Y4628D01*
X6252Y4630D01*
X6259D01*
X6263Y4626D01*
X6265Y4621D01*
Y4615D01*
X6263Y4609D01*
X6259Y4605D01*
X6254Y4603D01*
X6265D01*
X6259Y4605D01*
X6225Y4642D02*
X6265D01*
X6225Y4644D02*
X6265D01*
X6225Y4636D02*
Y4655D01*
X6227Y4661D01*
X6231Y4665D01*
X6235Y4666D01*
X6240Y4668D01*
X6250D01*
X6255Y4666D01*
X6259Y4665D01*
X6263Y4661D01*
X6265Y4655D01*
Y4636D01*
X6225Y4655D02*
X6227Y4659D01*
X6231Y4663D01*
X6235Y4665D01*
X6240Y4666D01*
X6250D01*
X6255Y4665D01*
X6259Y4663D01*
X6263Y4659D01*
X6265Y4655D01*
X6225Y4691D02*
X6265Y4677D01*
X6225Y4691D02*
X6265Y4704D01*
X6231Y4691D02*
X6265Y4702D01*
X6254Y4681D02*
Y4698D01*
X6265Y4674D02*
Y4685D01*
Y4697D02*
Y4708D01*
X6121Y4622D02*
X6126Y4624D01*
X6115D01*
X6121Y4622D01*
X6117Y4618D01*
X6115Y4612D01*
Y4608D01*
X6117Y4603D01*
X6121Y4599D01*
X6125Y4597D01*
X6130Y4595D01*
X6140D01*
X6145Y4597D01*
X6149Y4599D01*
X6153Y4603D01*
X6155Y4608D01*
Y4612D01*
X6153Y4618D01*
X6149Y4622D01*
X6115Y4608D02*
X6117Y4605D01*
X6121Y4601D01*
X6125Y4599D01*
X6130Y4597D01*
X6140D01*
X6145Y4599D01*
X6149Y4601D01*
X6153Y4605D01*
X6155Y4608D01*
X6140Y4622D02*
X6155D01*
X6140Y4624D02*
X6155D01*
X6140Y4616D02*
Y4629D01*
X6115Y4640D02*
X6155D01*
X6115Y4642D02*
X6151Y4665D01*
X6119Y4642D02*
X6155Y4665D01*
X6115D02*
X6155D01*
X6115Y4634D02*
Y4642D01*
Y4659D02*
Y4671D01*
X6155Y4634D02*
Y4646D01*
X6115Y4681D02*
X6155D01*
X6115Y4683D02*
X6155D01*
X6115Y4676D02*
Y4695D01*
X6117Y4700D01*
X6121Y4704D01*
X6125Y4706D01*
X6130Y4708D01*
X6140D01*
X6145Y4706D01*
X6149Y4704D01*
X6153Y4700D01*
X6155Y4695D01*
Y4676D01*
X6115Y4695D02*
X6117Y4698D01*
X6121Y4702D01*
X6125Y4704D01*
X6130Y4706D01*
X6140D01*
X6145Y4704D01*
X6149Y4702D01*
X6153Y4698D01*
X6155Y4695D01*
X3757Y4874D02*
X3759Y4869D01*
Y4880D01*
X3757Y4874D01*
X3753Y4878D01*
X3747Y4880D01*
X3743D01*
X3738Y4878D01*
X3734Y4874D01*
X3732Y4870D01*
X3730Y4865D01*
Y4855D01*
X3732Y4850D01*
X3734Y4846D01*
X3738Y4842D01*
X3743Y4840D01*
X3747D01*
X3753Y4842D01*
X3757Y4846D01*
X3743Y4880D02*
X3740Y4878D01*
X3736Y4874D01*
X3734Y4870D01*
X3732Y4865D01*
Y4855D01*
X3734Y4850D01*
X3736Y4846D01*
X3740Y4842D01*
X3743Y4840D01*
X3757Y4855D02*
Y4840D01*
X3759Y4855D02*
Y4840D01*
X3751Y4855D02*
X3764D01*
X3775Y4880D02*
Y4840D01*
X3777Y4880D02*
X3800Y4844D01*
X3777Y4876D02*
X3800Y4840D01*
Y4880D02*
Y4840D01*
X3769Y4880D02*
X3777D01*
X3794D02*
X3806D01*
X3769Y4840D02*
X3781D01*
X3816Y4880D02*
Y4840D01*
X3818Y4880D02*
Y4840D01*
X3811Y4880D02*
X3830D01*
X3835Y4878D01*
X3839Y4874D01*
X3841Y4870D01*
X3843Y4865D01*
Y4855D01*
X3841Y4850D01*
X3839Y4846D01*
X3835Y4842D01*
X3830Y4840D01*
X3811D01*
X3830Y4880D02*
X3833Y4878D01*
X3837Y4874D01*
X3839Y4870D01*
X3841Y4865D01*
Y4855D01*
X3839Y4850D01*
X3837Y4846D01*
X3833Y4842D01*
X3830Y4840D01*
X3732Y4562D02*
X3734Y4560D01*
X3732Y4559D01*
X3730Y4560D01*
Y4562D01*
X3732Y4566D01*
X3734Y4568D01*
X3740Y4570D01*
X3747D01*
X3753Y4568D01*
X3755Y4564D01*
Y4559D01*
X3753Y4555D01*
X3747Y4553D01*
X3741D01*
X3747Y4570D02*
X3751Y4568D01*
X3753Y4564D01*
Y4559D01*
X3751Y4555D01*
X3747Y4553D01*
X3751Y4551D01*
X3755Y4547D01*
X3757Y4543D01*
Y4538D01*
X3755Y4534D01*
X3753Y4532D01*
X3747Y4530D01*
X3740D01*
X3734Y4532D01*
X3732Y4534D01*
X3730Y4538D01*
Y4540D01*
X3732Y4541D01*
X3734Y4540D01*
X3732Y4538D01*
X3753Y4549D02*
X3755Y4543D01*
Y4538D01*
X3753Y4534D01*
X3751Y4532D01*
X3747Y4530D01*
X3766Y4570D02*
X3780Y4530D01*
X3768Y4570D02*
X3780Y4536D01*
X3793Y4570D02*
X3780Y4530D01*
X3763Y4570D02*
X3774D01*
X3785D02*
X3797D01*
X3804Y4562D02*
X3806Y4560D01*
X3804Y4559D01*
X3802Y4560D01*
Y4562D01*
X3804Y4566D01*
X3806Y4568D01*
X3812Y4570D01*
X3819D01*
X3825Y4568D01*
X3827Y4564D01*
Y4559D01*
X3825Y4555D01*
X3819Y4553D01*
X3813D01*
X3819Y4570D02*
X3823Y4568D01*
X3825Y4564D01*
Y4559D01*
X3823Y4555D01*
X3819Y4553D01*
X3823Y4551D01*
X3827Y4547D01*
X3829Y4543D01*
Y4538D01*
X3827Y4534D01*
X3825Y4532D01*
X3819Y4530D01*
X3812D01*
X3806Y4532D01*
X3804Y4534D01*
X3802Y4538D01*
Y4540D01*
X3804Y4541D01*
X3806Y4540D01*
X3804Y4538D01*
X3825Y4549D02*
X3827Y4543D01*
Y4538D01*
X3825Y4534D01*
X3823Y4532D01*
X3819Y4530D01*
X3743Y4680D02*
Y4640D01*
X3745Y4680D02*
Y4640D01*
X3732Y4680D02*
X3730Y4669D01*
Y4680D01*
X3759D01*
Y4669D01*
X3757Y4680D01*
X3738Y4640D02*
X3751D01*
X3768Y4680D02*
X3793Y4640D01*
X3770Y4680D02*
X3795Y4640D01*
Y4680D02*
X3768Y4640D01*
X3764Y4680D02*
X3776D01*
X3787D02*
X3799D01*
X3764Y4640D02*
X3776D01*
X3787D02*
X3799D01*
X3732Y3821D02*
X3734Y3819D01*
X3732Y3817D01*
X3730Y3819D01*
Y3821D01*
X3732Y3825D01*
X3734Y3826D01*
X3740Y3828D01*
X3747D01*
X3753Y3826D01*
X3755Y3823D01*
Y3817D01*
X3753Y3813D01*
X3747Y3811D01*
X3741D01*
X3747Y3828D02*
X3751Y3826D01*
X3753Y3823D01*
Y3817D01*
X3751Y3813D01*
X3747Y3811D01*
X3751Y3809D01*
X3755Y3806D01*
X3757Y3802D01*
Y3796D01*
X3755Y3792D01*
X3753Y3790D01*
X3747Y3788D01*
X3740D01*
X3734Y3790D01*
X3732Y3792D01*
X3730Y3796D01*
Y3798D01*
X3732Y3800D01*
X3734Y3798D01*
X3732Y3796D01*
X3753Y3807D02*
X3755Y3802D01*
Y3796D01*
X3753Y3792D01*
X3751Y3790D01*
X3747Y3788D01*
X3766Y3828D02*
X3780Y3788D01*
X3768Y3828D02*
X3780Y3794D01*
X3793Y3828D02*
X3780Y3788D01*
X3763Y3828D02*
X3774D01*
X3785D02*
X3797D01*
X3804Y3821D02*
X3806Y3819D01*
X3804Y3817D01*
X3802Y3819D01*
Y3821D01*
X3804Y3825D01*
X3806Y3826D01*
X3812Y3828D01*
X3819D01*
X3825Y3826D01*
X3827Y3823D01*
Y3817D01*
X3825Y3813D01*
X3819Y3811D01*
X3813D01*
X3819Y3828D02*
X3823Y3826D01*
X3825Y3823D01*
Y3817D01*
X3823Y3813D01*
X3819Y3811D01*
X3823Y3809D01*
X3827Y3806D01*
X3829Y3802D01*
Y3796D01*
X3827Y3792D01*
X3825Y3790D01*
X3819Y3788D01*
X3812D01*
X3806Y3790D01*
X3804Y3792D01*
X3802Y3796D01*
Y3798D01*
X3804Y3800D01*
X3806Y3798D01*
X3804Y3796D01*
X3825Y3807D02*
X3827Y3802D01*
Y3796D01*
X3825Y3792D01*
X3823Y3790D01*
X3819Y3788D01*
X3755Y3928D02*
X3757Y3933D01*
Y3922D01*
X3755Y3928D01*
X3751Y3931D01*
X3745Y3933D01*
X3740D01*
X3734Y3931D01*
X3730Y3928D01*
Y3924D01*
X3732Y3920D01*
X3734Y3918D01*
X3738Y3916D01*
X3749Y3912D01*
X3753Y3911D01*
X3757Y3907D01*
X3730Y3924D02*
X3734Y3920D01*
X3738Y3918D01*
X3749Y3914D01*
X3753Y3912D01*
X3755Y3911D01*
X3757Y3907D01*
Y3899D01*
X3753Y3895D01*
X3747Y3893D01*
X3741D01*
X3736Y3895D01*
X3732Y3899D01*
X3730Y3905D01*
Y3893D01*
X3732Y3899D01*
X3789Y3928D02*
X3791Y3922D01*
Y3933D01*
X3789Y3928D01*
X3785Y3931D01*
X3780Y3933D01*
X3776D01*
X3770Y3931D01*
X3766Y3928D01*
X3764Y3924D01*
X3763Y3918D01*
Y3909D01*
X3764Y3903D01*
X3766Y3899D01*
X3770Y3895D01*
X3776Y3893D01*
X3780D01*
X3785Y3895D01*
X3789Y3899D01*
X3791Y3903D01*
X3776Y3933D02*
X3772Y3931D01*
X3768Y3928D01*
X3766Y3924D01*
X3764Y3918D01*
Y3909D01*
X3766Y3903D01*
X3768Y3899D01*
X3772Y3895D01*
X3776Y3893D01*
X3803Y3933D02*
Y3893D01*
X3804Y3933D02*
Y3893D01*
X3797Y3933D02*
X3810D01*
X3797Y3893D02*
X3825D01*
Y3905D01*
X3824Y3893D01*
X3736Y4033D02*
Y3993D01*
X3738Y4033D02*
X3749Y3999D01*
X3736Y4033D02*
X3749Y3993D01*
X3762Y4033D02*
X3749Y3993D01*
X3762Y4033D02*
Y3993D01*
X3764Y4033D02*
Y3993D01*
X3730Y4033D02*
X3738D01*
X3762D02*
X3770D01*
X3730Y3993D02*
X3741D01*
X3757D02*
X3770D01*
X3780Y4033D02*
Y3993D01*
X3782Y4033D02*
Y3993D01*
X3775Y4033D02*
X3788D01*
X3775Y3993D02*
X3788D01*
X3820Y4028D02*
X3822Y4033D01*
Y4022D01*
X3820Y4028D01*
X3816Y4031D01*
X3810Y4033D01*
X3805D01*
X3799Y4031D01*
X3795Y4028D01*
Y4024D01*
X3797Y4020D01*
X3799Y4018D01*
X3803Y4016D01*
X3814Y4012D01*
X3818Y4011D01*
X3822Y4007D01*
X3795Y4024D02*
X3799Y4020D01*
X3803Y4018D01*
X3814Y4014D01*
X3818Y4012D01*
X3820Y4011D01*
X3822Y4007D01*
Y3999D01*
X3818Y3995D01*
X3812Y3993D01*
X3807D01*
X3801Y3995D01*
X3797Y3999D01*
X3795Y4005D01*
Y3993D01*
X3797Y3999D01*
X3841Y4033D02*
X3835Y4031D01*
X3832Y4028D01*
X3830Y4024D01*
X3828Y4016D01*
Y4011D01*
X3830Y4003D01*
X3832Y3999D01*
X3835Y3995D01*
X3841Y3993D01*
X3845D01*
X3851Y3995D01*
X3854Y3999D01*
X3856Y4003D01*
X3858Y4011D01*
Y4016D01*
X3856Y4024D01*
X3854Y4028D01*
X3851Y4031D01*
X3845Y4033D01*
X3841D01*
X3837Y4031D01*
X3833Y4028D01*
X3832Y4024D01*
X3830Y4016D01*
Y4011D01*
X3832Y4003D01*
X3833Y3999D01*
X3837Y3995D01*
X3841Y3993D01*
X3845D02*
X3849Y3995D01*
X3852Y3999D01*
X3854Y4003D01*
X3856Y4011D01*
Y4016D01*
X3854Y4024D01*
X3852Y4028D01*
X3849Y4031D01*
X3845Y4033D01*
X3757Y4333D02*
X3759Y4327D01*
Y4338D01*
X3757Y4333D01*
X3753Y4336D01*
X3747Y4338D01*
X3743D01*
X3738Y4336D01*
X3734Y4333D01*
X3732Y4329D01*
X3730Y4323D01*
Y4314D01*
X3732Y4308D01*
X3734Y4304D01*
X3738Y4300D01*
X3743Y4298D01*
X3747D01*
X3753Y4300D01*
X3757Y4304D01*
X3743Y4338D02*
X3740Y4336D01*
X3736Y4333D01*
X3734Y4329D01*
X3732Y4323D01*
Y4314D01*
X3734Y4308D01*
X3736Y4304D01*
X3740Y4300D01*
X3743Y4298D01*
X3757Y4314D02*
Y4298D01*
X3759Y4314D02*
Y4298D01*
X3751Y4314D02*
X3764D01*
X3775Y4338D02*
Y4298D01*
X3777Y4338D02*
X3800Y4302D01*
X3777Y4335D02*
X3800Y4298D01*
Y4338D02*
Y4298D01*
X3769Y4338D02*
X3777D01*
X3794D02*
X3806D01*
X3769Y4298D02*
X3781D01*
X3816Y4338D02*
Y4298D01*
X3818Y4338D02*
Y4298D01*
X3811Y4338D02*
X3830D01*
X3835Y4336D01*
X3839Y4333D01*
X3841Y4329D01*
X3843Y4323D01*
Y4314D01*
X3841Y4308D01*
X3839Y4304D01*
X3835Y4300D01*
X3830Y4298D01*
X3811D01*
X3830Y4338D02*
X3833Y4336D01*
X3837Y4333D01*
X3839Y4329D01*
X3841Y4323D01*
Y4314D01*
X3839Y4308D01*
X3837Y4304D01*
X3833Y4300D01*
X3830Y4298D01*
X3757Y4233D02*
X3759Y4227D01*
Y4238D01*
X3757Y4233D01*
X3753Y4236D01*
X3747Y4238D01*
X3743D01*
X3738Y4236D01*
X3734Y4233D01*
X3732Y4229D01*
X3730Y4223D01*
Y4214D01*
X3732Y4208D01*
X3734Y4204D01*
X3738Y4200D01*
X3743Y4198D01*
X3747D01*
X3753Y4200D01*
X3757Y4204D01*
X3759Y4208D01*
X3743Y4238D02*
X3740Y4236D01*
X3736Y4233D01*
X3734Y4229D01*
X3732Y4223D01*
Y4214D01*
X3734Y4208D01*
X3736Y4204D01*
X3740Y4200D01*
X3743Y4198D01*
X3789Y4233D02*
X3791Y4238D01*
Y4227D01*
X3789Y4233D01*
X3785Y4236D01*
X3780Y4238D01*
X3774D01*
X3768Y4236D01*
X3764Y4233D01*
Y4229D01*
X3766Y4225D01*
X3768Y4223D01*
X3772Y4221D01*
X3783Y4217D01*
X3787Y4216D01*
X3791Y4212D01*
X3764Y4229D02*
X3768Y4225D01*
X3772Y4223D01*
X3783Y4219D01*
X3787Y4217D01*
X3789Y4216D01*
X3791Y4212D01*
Y4204D01*
X3787Y4200D01*
X3781Y4198D01*
X3776D01*
X3770Y4200D01*
X3766Y4204D01*
X3764Y4210D01*
Y4198D01*
X3766Y4204D01*
X4096Y4310D02*
Y4270D01*
X4098Y4310D02*
Y4270D01*
X4090Y4310D02*
X4113D01*
X4119Y4308D01*
X4120Y4306D01*
X4122Y4302D01*
Y4299D01*
X4120Y4295D01*
X4119Y4293D01*
X4113Y4291D01*
Y4310D02*
X4117Y4308D01*
X4119Y4306D01*
X4120Y4302D01*
Y4299D01*
X4119Y4295D01*
X4117Y4293D01*
X4113Y4291D01*
X4098D02*
X4113D01*
X4119Y4289D01*
X4120Y4287D01*
X4122Y4283D01*
Y4278D01*
X4120Y4274D01*
X4119Y4272D01*
X4113Y4270D01*
X4090D01*
X4113Y4291D02*
X4117Y4289D01*
X4119Y4287D01*
X4120Y4283D01*
Y4278D01*
X4119Y4274D01*
X4117Y4272D01*
X4113Y4270D01*
X4141Y4310D02*
X4135Y4308D01*
X4132Y4304D01*
X4130Y4300D01*
X4128Y4293D01*
Y4287D01*
X4130Y4280D01*
X4132Y4276D01*
X4135Y4272D01*
X4141Y4270D01*
X4145D01*
X4151Y4272D01*
X4154Y4276D01*
X4156Y4280D01*
X4158Y4287D01*
Y4293D01*
X4156Y4300D01*
X4154Y4304D01*
X4151Y4308D01*
X4145Y4310D01*
X4141D01*
X4137Y4308D01*
X4133Y4304D01*
X4132Y4300D01*
X4130Y4293D01*
Y4287D01*
X4132Y4280D01*
X4133Y4276D01*
X4137Y4272D01*
X4141Y4270D01*
X4145D02*
X4149Y4272D01*
X4152Y4276D01*
X4154Y4280D01*
X4156Y4287D01*
Y4293D01*
X4154Y4300D01*
X4152Y4304D01*
X4149Y4308D01*
X4145Y4310D01*
X4177D02*
X4171Y4308D01*
X4168Y4304D01*
X4166Y4300D01*
X4164Y4293D01*
Y4287D01*
X4166Y4280D01*
X4168Y4276D01*
X4171Y4272D01*
X4177Y4270D01*
X4181D01*
X4187Y4272D01*
X4190Y4276D01*
X4192Y4280D01*
X4194Y4287D01*
Y4293D01*
X4192Y4300D01*
X4190Y4304D01*
X4187Y4308D01*
X4181Y4310D01*
X4177D01*
X4173Y4308D01*
X4169Y4304D01*
X4168Y4300D01*
X4166Y4293D01*
Y4287D01*
X4168Y4280D01*
X4169Y4276D01*
X4173Y4272D01*
X4177Y4270D01*
X4181D02*
X4185Y4272D01*
X4188Y4276D01*
X4190Y4280D01*
X4192Y4287D01*
Y4293D01*
X4190Y4300D01*
X4188Y4304D01*
X4185Y4308D01*
X4181Y4310D01*
X4213D02*
Y4270D01*
X4215Y4310D02*
Y4270D01*
X4202Y4310D02*
X4200Y4299D01*
Y4310D01*
X4228D01*
Y4299D01*
X4226Y4310D01*
X4207Y4270D02*
X4221D01*
X4091Y4945D02*
Y4905D01*
X4093Y4945D02*
Y4905D01*
X4085Y4945D02*
X4108D01*
X4114Y4943D01*
X4115Y4941D01*
X4117Y4937D01*
Y4934D01*
X4115Y4930D01*
X4114Y4928D01*
X4108Y4926D01*
X4093D01*
X4108Y4945D02*
X4112Y4943D01*
X4114Y4941D01*
X4115Y4937D01*
Y4934D01*
X4114Y4930D01*
X4112Y4928D01*
X4108Y4926D01*
X4085Y4905D02*
X4098D01*
X4102Y4926D02*
X4106Y4924D01*
X4108Y4922D01*
X4114Y4909D01*
X4115Y4907D01*
X4117D01*
X4119Y4909D01*
X4106Y4924D02*
X4108Y4920D01*
X4112Y4907D01*
X4114Y4905D01*
X4117D01*
X4119Y4909D01*
Y4911D01*
X4130Y4945D02*
Y4905D01*
X4132Y4945D02*
Y4905D01*
X4143Y4934D02*
Y4918D01*
X4124Y4945D02*
X4155D01*
Y4934D01*
X4153Y4945D01*
X4132Y4926D02*
X4143D01*
X4124Y4905D02*
X4155D01*
Y4916D01*
X4153Y4905D01*
X4185Y4939D02*
X4187Y4945D01*
Y4934D01*
X4185Y4939D01*
X4181Y4943D01*
X4176Y4945D01*
X4170D01*
X4164Y4943D01*
X4160Y4939D01*
Y4935D01*
X4162Y4932D01*
X4164Y4930D01*
X4168Y4928D01*
X4179Y4924D01*
X4183Y4922D01*
X4187Y4918D01*
X4160Y4935D02*
X4164Y4932D01*
X4168Y4930D01*
X4179Y4926D01*
X4183Y4924D01*
X4185Y4922D01*
X4187Y4918D01*
Y4911D01*
X4183Y4907D01*
X4178Y4905D01*
X4172D01*
X4166Y4907D01*
X4162Y4911D01*
X4160Y4916D01*
Y4905D01*
X4162Y4911D01*
X4199Y4945D02*
Y4905D01*
X4201Y4945D02*
Y4905D01*
X4212Y4934D02*
Y4918D01*
X4193Y4945D02*
X4223D01*
Y4934D01*
X4222Y4945D01*
X4201Y4926D02*
X4212D01*
X4193Y4905D02*
X4223D01*
Y4916D01*
X4222Y4905D01*
X4242Y4945D02*
Y4905D01*
X4244Y4945D02*
Y4905D01*
X4231Y4945D02*
X4229Y4934D01*
Y4945D01*
X4258D01*
Y4934D01*
X4256Y4945D01*
X4237Y4905D02*
X4250D01*
X3736Y4133D02*
Y4093D01*
X3738Y4133D02*
X3749Y4099D01*
X3736Y4133D02*
X3749Y4093D01*
X3762Y4133D02*
X3749Y4093D01*
X3762Y4133D02*
Y4093D01*
X3764Y4133D02*
Y4093D01*
X3730Y4133D02*
X3738D01*
X3762D02*
X3770D01*
X3730Y4093D02*
X3741D01*
X3757D02*
X3770D01*
X3788Y4133D02*
X3782Y4131D01*
X3778Y4128D01*
X3776Y4124D01*
X3775Y4116D01*
Y4111D01*
X3776Y4103D01*
X3778Y4099D01*
X3782Y4095D01*
X3788Y4093D01*
X3792D01*
X3797Y4095D01*
X3801Y4099D01*
X3803Y4103D01*
X3805Y4111D01*
Y4116D01*
X3803Y4124D01*
X3801Y4128D01*
X3797Y4131D01*
X3792Y4133D01*
X3788D01*
X3784Y4131D01*
X3780Y4128D01*
X3778Y4124D01*
X3776Y4116D01*
Y4111D01*
X3778Y4103D01*
X3780Y4099D01*
X3784Y4095D01*
X3788Y4093D01*
X3792D02*
X3796Y4095D01*
X3799Y4099D01*
X3801Y4103D01*
X3803Y4111D01*
Y4116D01*
X3801Y4124D01*
X3799Y4128D01*
X3796Y4131D01*
X3792Y4133D01*
X3835Y4128D02*
X3837Y4133D01*
Y4122D01*
X3835Y4128D01*
X3832Y4131D01*
X3826Y4133D01*
X3820D01*
X3814Y4131D01*
X3811Y4128D01*
Y4124D01*
X3812Y4120D01*
X3814Y4118D01*
X3818Y4116D01*
X3830Y4112D01*
X3833Y4111D01*
X3837Y4107D01*
X3811Y4124D02*
X3814Y4120D01*
X3818Y4118D01*
X3830Y4114D01*
X3833Y4112D01*
X3835Y4111D01*
X3837Y4107D01*
Y4099D01*
X3833Y4095D01*
X3828Y4093D01*
X3822D01*
X3816Y4095D01*
X3812Y4099D01*
X3811Y4105D01*
Y4093D01*
X3812Y4099D01*
X3849Y4133D02*
Y4093D01*
X3851Y4133D02*
Y4093D01*
X3843Y4133D02*
X3856D01*
X3843Y4093D02*
X3856D01*
X3736Y4775D02*
Y4735D01*
X3738Y4775D02*
Y4735D01*
X3730Y4775D02*
X3753D01*
X3759Y4773D01*
X3760Y4771D01*
X3762Y4767D01*
Y4764D01*
X3760Y4760D01*
X3759Y4758D01*
X3753Y4756D01*
X3738D01*
X3753Y4775D02*
X3757Y4773D01*
X3759Y4771D01*
X3760Y4767D01*
Y4764D01*
X3759Y4760D01*
X3757Y4758D01*
X3753Y4756D01*
X3730Y4735D02*
X3743D01*
X3747Y4756D02*
X3751Y4754D01*
X3753Y4752D01*
X3759Y4739D01*
X3760Y4737D01*
X3762D01*
X3764Y4739D01*
X3751Y4754D02*
X3753Y4750D01*
X3757Y4737D01*
X3759Y4735D01*
X3762D01*
X3764Y4739D01*
Y4741D01*
X3773Y4775D02*
X3798Y4735D01*
X3775Y4775D02*
X3800Y4735D01*
Y4775D02*
X3773Y4735D01*
X3769Y4775D02*
X3781D01*
X3792D02*
X3804D01*
X3769Y4735D02*
X3781D01*
X3792D02*
X3804D01*
X4206Y1745D02*
Y1705D01*
X4208Y1745D02*
X4230Y1709D01*
X4208Y1741D02*
X4230Y1705D01*
Y1745D02*
Y1705D01*
X4200Y1745D02*
X4208D01*
X4225D02*
X4236D01*
X4200Y1705D02*
X4211D01*
X4268Y1739D02*
X4270Y1734D01*
Y1745D01*
X4268Y1739D01*
X4264Y1743D01*
X4258Y1745D01*
X4254D01*
X4249Y1743D01*
X4245Y1739D01*
X4243Y1735D01*
X4241Y1730D01*
Y1720D01*
X4243Y1715D01*
X4245Y1711D01*
X4249Y1707D01*
X4254Y1705D01*
X4258D01*
X4264Y1707D01*
X4268Y1711D01*
X4270Y1715D01*
X4254Y1745D02*
X4251Y1743D01*
X4247Y1739D01*
X4245Y1735D01*
X4243Y1730D01*
Y1720D01*
X4245Y1715D01*
X4247Y1711D01*
X4251Y1707D01*
X4254Y1705D01*
X3997Y1739D02*
X3999Y1734D01*
Y1745D01*
X3997Y1739D01*
X3993Y1743D01*
X3987Y1745D01*
X3983D01*
X3978Y1743D01*
X3974Y1739D01*
X3972Y1735D01*
X3970Y1730D01*
Y1720D01*
X3972Y1715D01*
X3974Y1711D01*
X3978Y1707D01*
X3983Y1705D01*
X3987D01*
X3993Y1707D01*
X3997Y1711D01*
X3999Y1715D01*
X3983Y1745D02*
X3980Y1743D01*
X3976Y1739D01*
X3974Y1735D01*
X3972Y1730D01*
Y1720D01*
X3974Y1715D01*
X3976Y1711D01*
X3980Y1707D01*
X3983Y1705D01*
X4018Y1745D02*
X4012Y1743D01*
X4008Y1739D01*
X4006Y1735D01*
X4004Y1728D01*
Y1722D01*
X4006Y1715D01*
X4008Y1711D01*
X4012Y1707D01*
X4018Y1705D01*
X4021D01*
X4027Y1707D01*
X4031Y1711D01*
X4033Y1715D01*
X4035Y1722D01*
Y1728D01*
X4033Y1735D01*
X4031Y1739D01*
X4027Y1743D01*
X4021Y1745D01*
X4018D01*
X4014Y1743D01*
X4010Y1739D01*
X4008Y1735D01*
X4006Y1728D01*
Y1722D01*
X4008Y1715D01*
X4010Y1711D01*
X4014Y1707D01*
X4018Y1705D01*
X4021D02*
X4025Y1707D01*
X4029Y1711D01*
X4031Y1715D01*
X4033Y1722D01*
Y1728D01*
X4031Y1735D01*
X4029Y1739D01*
X4025Y1743D01*
X4021Y1745D01*
X4046D02*
Y1705D01*
X4048Y1745D02*
X4059Y1711D01*
X4046Y1745D02*
X4059Y1705D01*
X4073Y1745D02*
X4059Y1705D01*
X4073Y1745D02*
Y1705D01*
X4075Y1745D02*
Y1705D01*
X4040Y1745D02*
X4048D01*
X4073D02*
X4080D01*
X4040Y1705D02*
X4052D01*
X4067D02*
X4080D01*
X3801Y1745D02*
Y1705D01*
X3803Y1745D02*
X3825Y1709D01*
X3803Y1741D02*
X3825Y1705D01*
Y1745D02*
Y1705D01*
X3795Y1745D02*
X3803D01*
X3820D02*
X3831D01*
X3795Y1705D02*
X3806D01*
X3849Y1745D02*
X3844Y1743D01*
X3840Y1739D01*
X3838Y1735D01*
X3836Y1728D01*
Y1722D01*
X3838Y1715D01*
X3840Y1711D01*
X3844Y1707D01*
X3849Y1705D01*
X3853D01*
X3859Y1707D01*
X3863Y1711D01*
X3865Y1715D01*
X3867Y1722D01*
Y1728D01*
X3865Y1735D01*
X3863Y1739D01*
X3859Y1743D01*
X3853Y1745D01*
X3849D01*
X3846Y1743D01*
X3842Y1739D01*
X3840Y1735D01*
X3838Y1728D01*
Y1722D01*
X3840Y1715D01*
X3842Y1711D01*
X3846Y1707D01*
X3849Y1705D01*
X3853D02*
X3857Y1707D01*
X3861Y1711D01*
X3863Y1715D01*
X3865Y1722D01*
Y1728D01*
X3863Y1735D01*
X3861Y1739D01*
X3857Y1743D01*
X3853Y1745D01*
X4051Y3535D02*
Y3506D01*
X4053Y3501D01*
X4056Y3497D01*
X4062Y3495D01*
X4066D01*
X4072Y3497D01*
X4075Y3501D01*
X4077Y3506D01*
Y3535D01*
X4053D02*
Y3506D01*
X4055Y3501D01*
X4058Y3497D01*
X4062Y3495D01*
X4045Y3535D02*
X4058D01*
X4072D02*
X4083D01*
X4088D02*
Y3524D01*
Y3527D02*
X4090Y3531D01*
X4094Y3535D01*
X4097D01*
X4107Y3529D01*
X4111D01*
X4113Y3531D01*
X4115Y3535D01*
X4090Y3531D02*
X4094Y3533D01*
X4097D01*
X4107Y3529D01*
X4115Y3535D02*
Y3529D01*
X4113Y3524D01*
X4105Y3514D01*
X4103Y3510D01*
X4101Y3505D01*
Y3495D01*
X4113Y3524D02*
X4103Y3514D01*
X4101Y3510D01*
X4099Y3505D01*
Y3495D01*
X4902Y3540D02*
Y3511D01*
X4904Y3506D01*
X4908Y3502D01*
X4914Y3500D01*
X4918D01*
X4923Y3502D01*
X4927Y3506D01*
X4929Y3511D01*
Y3540D01*
X4904D02*
Y3511D01*
X4906Y3506D01*
X4910Y3502D01*
X4914Y3500D01*
X4897Y3540D02*
X4910D01*
X4923D02*
X4935D01*
X4962Y3534D02*
X4960Y3532D01*
X4962Y3530D01*
X4964Y3532D01*
Y3534D01*
X4962Y3538D01*
X4959Y3540D01*
X4953D01*
X4947Y3538D01*
X4943Y3534D01*
X4941Y3530D01*
X4940Y3523D01*
Y3511D01*
X4941Y3506D01*
X4945Y3502D01*
X4951Y3500D01*
X4955D01*
X4960Y3502D01*
X4964Y3506D01*
X4966Y3511D01*
Y3513D01*
X4964Y3519D01*
X4960Y3523D01*
X4955Y3525D01*
X4953D01*
X4947Y3523D01*
X4943Y3519D01*
X4941Y3513D01*
X4953Y3540D02*
X4949Y3538D01*
X4945Y3534D01*
X4943Y3530D01*
X4941Y3523D01*
Y3511D01*
X4943Y3506D01*
X4947Y3502D01*
X4951Y3500D01*
X4955D02*
X4959Y3502D01*
X4962Y3506D01*
X4964Y3511D01*
Y3513D01*
X4962Y3519D01*
X4959Y3523D01*
X4955Y3525D01*
X5781Y3535D02*
Y3506D01*
X5783Y3501D01*
X5786Y3497D01*
X5792Y3495D01*
X5796D01*
X5802Y3497D01*
X5805Y3501D01*
X5807Y3506D01*
Y3535D01*
X5783D02*
Y3506D01*
X5785Y3501D01*
X5788Y3497D01*
X5792Y3495D01*
X5775Y3535D02*
X5788D01*
X5802D02*
X5813D01*
X5822D02*
X5818Y3516D01*
X5822Y3520D01*
X5827Y3522D01*
X5833D01*
X5839Y3520D01*
X5843Y3516D01*
X5845Y3510D01*
Y3506D01*
X5843Y3501D01*
X5839Y3497D01*
X5833Y3495D01*
X5827D01*
X5822Y3497D01*
X5820Y3499D01*
X5818Y3503D01*
Y3505D01*
X5820Y3506D01*
X5822Y3505D01*
X5820Y3503D01*
X5833Y3522D02*
X5837Y3520D01*
X5841Y3516D01*
X5843Y3510D01*
Y3506D01*
X5841Y3501D01*
X5837Y3497D01*
X5833Y3495D01*
X5822Y3535D02*
X5841D01*
X5822Y3533D02*
X5831D01*
X5841Y3535D01*
X5581Y4970D02*
Y4941D01*
X5583Y4936D01*
X5586Y4932D01*
X5592Y4930D01*
X5596D01*
X5602Y4932D01*
X5605Y4936D01*
X5607Y4941D01*
Y4970D01*
X5583D02*
Y4941D01*
X5585Y4936D01*
X5588Y4932D01*
X5592Y4930D01*
X5575Y4970D02*
X5588D01*
X5602D02*
X5613D01*
X5637Y4966D02*
Y4930D01*
X5648Y4941D02*
X5618D01*
X5639Y4970D01*
Y4930D01*
X5631D02*
X5645D01*
X5611Y4535D02*
Y4506D01*
X5613Y4501D01*
X5616Y4497D01*
X5622Y4495D01*
X5626D01*
X5632Y4497D01*
X5635Y4501D01*
X5637Y4506D01*
Y4535D01*
X5613D02*
Y4506D01*
X5615Y4501D01*
X5618Y4497D01*
X5622Y4495D01*
X5605Y4535D02*
X5618D01*
X5632D02*
X5643D01*
X5650Y4527D02*
X5652Y4525D01*
X5650Y4524D01*
X5648Y4525D01*
Y4527D01*
X5650Y4531D01*
X5652Y4533D01*
X5657Y4535D01*
X5665D01*
X5671Y4533D01*
X5673Y4529D01*
Y4524D01*
X5671Y4520D01*
X5665Y4518D01*
X5659D01*
X5665Y4535D02*
X5669Y4533D01*
X5671Y4529D01*
Y4524D01*
X5669Y4520D01*
X5665Y4518D01*
X5669Y4516D01*
X5673Y4512D01*
X5675Y4508D01*
Y4503D01*
X5673Y4499D01*
X5671Y4497D01*
X5665Y4495D01*
X5657D01*
X5652Y4497D01*
X5650Y4499D01*
X5648Y4503D01*
Y4505D01*
X5650Y4506D01*
X5652Y4505D01*
X5650Y4503D01*
X5671Y4514D02*
X5673Y4508D01*
Y4503D01*
X5671Y4499D01*
X5669Y4497D01*
X5665Y4495D01*
X6641Y3525D02*
Y3496D01*
X6643Y3491D01*
X6646Y3487D01*
X6652Y3485D01*
X6656D01*
X6662Y3487D01*
X6665Y3491D01*
X6667Y3496D01*
Y3525D01*
X6643D02*
Y3496D01*
X6645Y3491D01*
X6648Y3487D01*
X6652Y3485D01*
X6635Y3525D02*
X6648D01*
X6662D02*
X6673D01*
X6680Y3517D02*
X6682Y3515D01*
X6680Y3514D01*
X6678Y3515D01*
Y3517D01*
X6680Y3521D01*
X6682Y3523D01*
X6687Y3525D01*
X6695D01*
X6701Y3523D01*
X6703Y3521D01*
X6705Y3517D01*
Y3514D01*
X6703Y3510D01*
X6697Y3506D01*
X6687Y3502D01*
X6684Y3500D01*
X6680Y3496D01*
X6678Y3491D01*
Y3485D01*
X6695Y3525D02*
X6699Y3523D01*
X6701Y3521D01*
X6703Y3517D01*
Y3514D01*
X6701Y3510D01*
X6695Y3506D01*
X6687Y3502D01*
X6678Y3489D02*
X6680Y3491D01*
X6684D01*
X6693Y3487D01*
X6699D01*
X6703Y3489D01*
X6705Y3491D01*
Y3495D01*
X6684Y3491D02*
X6693Y3485D01*
X6701D01*
X6703Y3487D01*
X6705Y3491D01*
X6431Y3875D02*
Y3846D01*
X6433Y3841D01*
X6436Y3837D01*
X6442Y3835D01*
X6446D01*
X6452Y3837D01*
X6455Y3841D01*
X6457Y3846D01*
Y3875D01*
X6433D02*
Y3846D01*
X6435Y3841D01*
X6438Y3837D01*
X6442Y3835D01*
X6425Y3875D02*
X6438D01*
X6452D02*
X6463D01*
X6468Y3867D02*
X6472Y3869D01*
X6477Y3875D01*
Y3835D01*
X6475Y3873D02*
Y3835D01*
X6468D02*
X6485D01*
X4430Y4010D02*
Y3970D01*
X4432Y4010D02*
Y3970D01*
X4424Y4010D02*
X4447D01*
X4453Y4008D01*
X4454Y4006D01*
X4456Y4002D01*
Y3999D01*
X4454Y3995D01*
X4453Y3993D01*
X4447Y3991D01*
X4432D01*
X4447Y4010D02*
X4451Y4008D01*
X4453Y4006D01*
X4454Y4002D01*
Y3999D01*
X4453Y3995D01*
X4451Y3993D01*
X4447Y3991D01*
X4424Y3970D02*
X4437D01*
X4441Y3991D02*
X4445Y3989D01*
X4447Y3987D01*
X4453Y3974D01*
X4454Y3972D01*
X4456D01*
X4458Y3974D01*
X4445Y3989D02*
X4447Y3985D01*
X4451Y3972D01*
X4453Y3970D01*
X4456D01*
X4458Y3974D01*
Y3976D01*
X4465Y4002D02*
X4467Y4000D01*
X4465Y3999D01*
X4463Y4000D01*
Y4002D01*
X4465Y4006D01*
X4467Y4008D01*
X4473Y4010D01*
X4481D01*
X4486Y4008D01*
X4488Y4006D01*
X4490Y4002D01*
Y3999D01*
X4488Y3995D01*
X4482Y3991D01*
X4473Y3987D01*
X4469Y3985D01*
X4465Y3981D01*
X4463Y3976D01*
Y3970D01*
X4481Y4010D02*
X4484Y4008D01*
X4486Y4006D01*
X4488Y4002D01*
Y3999D01*
X4486Y3995D01*
X4481Y3991D01*
X4473Y3987D01*
X4463Y3974D02*
X4465Y3976D01*
X4469D01*
X4479Y3972D01*
X4484D01*
X4488Y3974D01*
X4490Y3976D01*
Y3980D01*
X4469Y3976D02*
X4479Y3970D01*
X4486D01*
X4488Y3972D01*
X4490Y3976D01*
X4496Y4002D02*
X4500Y4004D01*
X4506Y4010D01*
Y3970D01*
X4504Y4008D02*
Y3970D01*
X4496D02*
X4513D01*
X4311Y3451D02*
Y3411D01*
X4313Y3451D02*
Y3411D01*
X4305Y3451D02*
X4328D01*
X4334Y3449D01*
X4335Y3447D01*
X4337Y3443D01*
Y3440D01*
X4335Y3436D01*
X4334Y3434D01*
X4328Y3432D01*
X4313D01*
X4328Y3451D02*
X4332Y3449D01*
X4334Y3447D01*
X4335Y3443D01*
Y3440D01*
X4334Y3436D01*
X4332Y3434D01*
X4328Y3432D01*
X4305Y3411D02*
X4318D01*
X4322Y3432D02*
X4326Y3430D01*
X4328Y3428D01*
X4334Y3415D01*
X4335Y3413D01*
X4337D01*
X4339Y3415D01*
X4326Y3430D02*
X4328Y3426D01*
X4332Y3413D01*
X4334Y3411D01*
X4337D01*
X4339Y3415D01*
Y3417D01*
X4346Y3443D02*
X4348Y3441D01*
X4346Y3440D01*
X4344Y3441D01*
Y3443D01*
X4346Y3447D01*
X4348Y3449D01*
X4354Y3451D01*
X4362D01*
X4367Y3449D01*
X4369Y3447D01*
X4371Y3443D01*
Y3440D01*
X4369Y3436D01*
X4363Y3432D01*
X4354Y3428D01*
X4350Y3426D01*
X4346Y3422D01*
X4344Y3417D01*
Y3411D01*
X4362Y3451D02*
X4365Y3449D01*
X4367Y3447D01*
X4369Y3443D01*
Y3440D01*
X4367Y3436D01*
X4362Y3432D01*
X4354Y3428D01*
X4344Y3415D02*
X4346Y3417D01*
X4350D01*
X4360Y3413D01*
X4365D01*
X4369Y3415D01*
X4371Y3417D01*
Y3421D01*
X4350Y3417D02*
X4360Y3411D01*
X4367D01*
X4369Y3413D01*
X4371Y3417D01*
X4388Y3451D02*
X4383Y3449D01*
X4379Y3443D01*
X4377Y3434D01*
Y3428D01*
X4379Y3419D01*
X4383Y3413D01*
X4388Y3411D01*
X4392D01*
X4398Y3413D01*
X4402Y3419D01*
X4404Y3428D01*
Y3434D01*
X4402Y3443D01*
X4398Y3449D01*
X4392Y3451D01*
X4388D01*
X4385Y3449D01*
X4383Y3447D01*
X4381Y3443D01*
X4379Y3434D01*
Y3428D01*
X4381Y3419D01*
X4383Y3415D01*
X4385Y3413D01*
X4388Y3411D01*
X4392D02*
X4396Y3413D01*
X4398Y3415D01*
X4400Y3419D01*
X4402Y3428D01*
Y3434D01*
X4400Y3443D01*
X4398Y3447D01*
X4396Y3449D01*
X4392Y3451D01*
X4311Y3345D02*
Y3305D01*
X4313Y3345D02*
Y3305D01*
X4305Y3345D02*
X4328D01*
X4334Y3343D01*
X4335Y3341D01*
X4337Y3337D01*
Y3334D01*
X4335Y3330D01*
X4334Y3328D01*
X4328Y3326D01*
X4313D01*
X4328Y3345D02*
X4332Y3343D01*
X4334Y3341D01*
X4335Y3337D01*
Y3334D01*
X4334Y3330D01*
X4332Y3328D01*
X4328Y3326D01*
X4305Y3305D02*
X4318D01*
X4322Y3326D02*
X4326Y3324D01*
X4328Y3322D01*
X4334Y3309D01*
X4335Y3307D01*
X4337D01*
X4339Y3309D01*
X4326Y3324D02*
X4328Y3320D01*
X4332Y3307D01*
X4334Y3305D01*
X4337D01*
X4339Y3309D01*
Y3311D01*
X4344Y3337D02*
X4348Y3339D01*
X4354Y3345D01*
Y3305D01*
X4352Y3343D02*
Y3305D01*
X4344D02*
X4362D01*
X4393Y3332D02*
X4391Y3326D01*
X4387Y3322D01*
X4382Y3320D01*
X4380D01*
X4374Y3322D01*
X4370Y3326D01*
X4368Y3332D01*
Y3334D01*
X4370Y3339D01*
X4374Y3343D01*
X4380Y3345D01*
X4384D01*
X4389Y3343D01*
X4393Y3339D01*
X4395Y3334D01*
Y3322D01*
X4393Y3315D01*
X4391Y3311D01*
X4387Y3307D01*
X4382Y3305D01*
X4376D01*
X4372Y3307D01*
X4370Y3311D01*
Y3313D01*
X4372Y3315D01*
X4374Y3313D01*
X4372Y3311D01*
X4380Y3320D02*
X4376Y3322D01*
X4372Y3326D01*
X4370Y3332D01*
Y3334D01*
X4372Y3339D01*
X4376Y3343D01*
X4380Y3345D01*
X4384D02*
X4387Y3343D01*
X4391Y3339D01*
X4393Y3334D01*
Y3322D01*
X4391Y3315D01*
X4389Y3311D01*
X4386Y3307D01*
X4382Y3305D01*
X3717Y3635D02*
Y3595D01*
X3719Y3635D02*
Y3595D01*
X3711Y3635D02*
X3734D01*
X3740Y3633D01*
X3741Y3631D01*
X3743Y3627D01*
Y3624D01*
X3741Y3620D01*
X3740Y3618D01*
X3734Y3616D01*
X3719D01*
X3734Y3635D02*
X3738Y3633D01*
X3740Y3631D01*
X3741Y3627D01*
Y3624D01*
X3740Y3620D01*
X3738Y3618D01*
X3734Y3616D01*
X3711Y3595D02*
X3724D01*
X3728Y3616D02*
X3732Y3614D01*
X3734Y3612D01*
X3740Y3599D01*
X3741Y3597D01*
X3743D01*
X3745Y3599D01*
X3732Y3614D02*
X3734Y3610D01*
X3738Y3597D01*
X3740Y3595D01*
X3743D01*
X3745Y3599D01*
Y3601D01*
X3750Y3627D02*
X3754Y3629D01*
X3760Y3635D01*
Y3595D01*
X3758Y3633D02*
Y3595D01*
X3750D02*
X3768D01*
X3784Y3635D02*
X3778Y3633D01*
X3776Y3629D01*
Y3624D01*
X3778Y3620D01*
X3784Y3618D01*
X3792D01*
X3797Y3620D01*
X3799Y3624D01*
Y3629D01*
X3797Y3633D01*
X3792Y3635D01*
X3784D01*
X3780Y3633D01*
X3778Y3629D01*
Y3624D01*
X3780Y3620D01*
X3784Y3618D01*
X3792D02*
X3795Y3620D01*
X3797Y3624D01*
Y3629D01*
X3795Y3633D01*
X3792Y3635D01*
X3784Y3618D02*
X3778Y3616D01*
X3776Y3614D01*
X3774Y3610D01*
Y3603D01*
X3776Y3599D01*
X3778Y3597D01*
X3784Y3595D01*
X3792D01*
X3797Y3597D01*
X3799Y3599D01*
X3801Y3603D01*
Y3610D01*
X3799Y3614D01*
X3797Y3616D01*
X3792Y3618D01*
X3784D02*
X3780Y3616D01*
X3778Y3614D01*
X3776Y3610D01*
Y3603D01*
X3778Y3599D01*
X3780Y3597D01*
X3784Y3595D01*
X3792D02*
X3795Y3597D01*
X3797Y3599D01*
X3799Y3603D01*
Y3610D01*
X3797Y3614D01*
X3795Y3616D01*
X3792Y3618D01*
X5166Y3445D02*
Y3405D01*
X5168Y3445D02*
Y3405D01*
X5160Y3445D02*
X5183D01*
X5189Y3443D01*
X5190Y3441D01*
X5192Y3437D01*
Y3434D01*
X5190Y3430D01*
X5189Y3428D01*
X5183Y3426D01*
X5168D01*
X5183Y3445D02*
X5187Y3443D01*
X5189Y3441D01*
X5190Y3437D01*
Y3434D01*
X5189Y3430D01*
X5187Y3428D01*
X5183Y3426D01*
X5160Y3405D02*
X5173D01*
X5177Y3426D02*
X5181Y3424D01*
X5183Y3422D01*
X5189Y3409D01*
X5190Y3407D01*
X5192D01*
X5194Y3409D01*
X5181Y3424D02*
X5183Y3420D01*
X5187Y3407D01*
X5189Y3405D01*
X5192D01*
X5194Y3409D01*
Y3411D01*
X5199Y3437D02*
X5203Y3439D01*
X5209Y3445D01*
Y3405D01*
X5207Y3443D02*
Y3405D01*
X5199D02*
X5217D01*
X5223Y3445D02*
Y3434D01*
Y3437D02*
X5225Y3441D01*
X5229Y3445D01*
X5233D01*
X5242Y3439D01*
X5246D01*
X5248Y3441D01*
X5250Y3445D01*
X5225Y3441D02*
X5229Y3443D01*
X5233D01*
X5242Y3439D01*
X5250Y3445D02*
Y3439D01*
X5248Y3434D01*
X5241Y3424D01*
X5239Y3420D01*
X5237Y3415D01*
Y3405D01*
X5248Y3434D02*
X5239Y3424D01*
X5237Y3420D01*
X5235Y3415D01*
Y3405D01*
X5166Y3345D02*
Y3305D01*
X5168Y3345D02*
Y3305D01*
X5160Y3345D02*
X5183D01*
X5189Y3343D01*
X5190Y3341D01*
X5192Y3337D01*
Y3334D01*
X5190Y3330D01*
X5189Y3328D01*
X5183Y3326D01*
X5168D01*
X5183Y3345D02*
X5187Y3343D01*
X5189Y3341D01*
X5190Y3337D01*
Y3334D01*
X5189Y3330D01*
X5187Y3328D01*
X5183Y3326D01*
X5160Y3305D02*
X5173D01*
X5177Y3326D02*
X5181Y3324D01*
X5183Y3322D01*
X5189Y3309D01*
X5190Y3307D01*
X5192D01*
X5194Y3309D01*
X5181Y3324D02*
X5183Y3320D01*
X5187Y3307D01*
X5189Y3305D01*
X5192D01*
X5194Y3309D01*
Y3311D01*
X5199Y3337D02*
X5203Y3339D01*
X5209Y3345D01*
Y3305D01*
X5207Y3343D02*
Y3305D01*
X5199D02*
X5217D01*
X5246Y3339D02*
X5244Y3337D01*
X5246Y3335D01*
X5248Y3337D01*
Y3339D01*
X5246Y3343D01*
X5242Y3345D01*
X5237D01*
X5231Y3343D01*
X5227Y3339D01*
X5225Y3335D01*
X5223Y3328D01*
Y3316D01*
X5225Y3311D01*
X5229Y3307D01*
X5235Y3305D01*
X5239D01*
X5244Y3307D01*
X5248Y3311D01*
X5250Y3316D01*
Y3318D01*
X5248Y3324D01*
X5244Y3328D01*
X5239Y3330D01*
X5237D01*
X5231Y3328D01*
X5227Y3324D01*
X5225Y3318D01*
X5237Y3345D02*
X5233Y3343D01*
X5229Y3339D01*
X5227Y3335D01*
X5225Y3328D01*
Y3316D01*
X5227Y3311D01*
X5231Y3307D01*
X5235Y3305D01*
X5239D02*
X5242Y3307D01*
X5246Y3311D01*
X5248Y3316D01*
Y3318D01*
X5246Y3324D01*
X5242Y3328D01*
X5239Y3330D01*
X4156Y4010D02*
Y3970D01*
X4158Y4010D02*
Y3970D01*
X4150Y4010D02*
X4173D01*
X4179Y4008D01*
X4180Y4006D01*
X4182Y4002D01*
Y3999D01*
X4180Y3995D01*
X4179Y3993D01*
X4173Y3991D01*
X4158D01*
X4173Y4010D02*
X4177Y4008D01*
X4179Y4006D01*
X4180Y4002D01*
Y3999D01*
X4179Y3995D01*
X4177Y3993D01*
X4173Y3991D01*
X4150Y3970D02*
X4163D01*
X4167Y3991D02*
X4171Y3989D01*
X4173Y3987D01*
X4179Y3974D01*
X4180Y3972D01*
X4182D01*
X4184Y3974D01*
X4171Y3989D02*
X4173Y3985D01*
X4177Y3972D01*
X4179Y3970D01*
X4182D01*
X4184Y3974D01*
Y3976D01*
X4189Y4002D02*
X4193Y4004D01*
X4199Y4010D01*
Y3970D01*
X4197Y4008D02*
Y3970D01*
X4189D02*
X4207D01*
X4217Y4010D02*
X4213Y3991D01*
X4217Y3995D01*
X4223Y3997D01*
X4229D01*
X4234Y3995D01*
X4238Y3991D01*
X4240Y3985D01*
Y3981D01*
X4238Y3976D01*
X4234Y3972D01*
X4229Y3970D01*
X4223D01*
X4217Y3972D01*
X4215Y3974D01*
X4213Y3978D01*
Y3980D01*
X4215Y3981D01*
X4217Y3980D01*
X4215Y3978D01*
X4229Y3997D02*
X4232Y3995D01*
X4236Y3991D01*
X4238Y3985D01*
Y3981D01*
X4236Y3976D01*
X4232Y3972D01*
X4229Y3970D01*
X4217Y4010D02*
X4236D01*
X4217Y4008D02*
X4227D01*
X4236Y4010D01*
X5965Y4694D02*
X5925D01*
X5965Y4692D02*
X5925D01*
X5965Y4700D02*
Y4677D01*
X5963Y4671D01*
X5961Y4670D01*
X5957Y4668D01*
X5954D01*
X5950Y4670D01*
X5948Y4671D01*
X5946Y4677D01*
Y4692D01*
X5965Y4677D02*
X5963Y4673D01*
X5961Y4671D01*
X5957Y4670D01*
X5954D01*
X5950Y4671D01*
X5948Y4673D01*
X5946Y4677D01*
X5925Y4700D02*
Y4687D01*
X5946Y4683D02*
X5944Y4679D01*
X5942Y4677D01*
X5929Y4671D01*
X5927Y4670D01*
Y4668D01*
X5929Y4666D01*
X5944Y4679D02*
X5940Y4677D01*
X5927Y4673D01*
X5925Y4671D01*
Y4668D01*
X5929Y4666D01*
X5931D01*
X5957Y4661D02*
X5959Y4657D01*
X5965Y4651D01*
X5925D01*
X5963Y4653D02*
X5925D01*
Y4661D02*
Y4643D01*
X5961Y4618D02*
X5925D01*
X5936Y4606D02*
Y4637D01*
X5965Y4616D01*
X5925D01*
Y4623D02*
Y4610D01*
X6579Y4611D02*
X6619D01*
X6579Y4613D02*
X6619D01*
X6579Y4605D02*
Y4628D01*
X6580Y4634D01*
X6582Y4635D01*
X6586Y4637D01*
X6590D01*
X6594Y4635D01*
X6596Y4634D01*
X6598Y4628D01*
Y4613D01*
X6579Y4628D02*
X6580Y4632D01*
X6582Y4634D01*
X6586Y4635D01*
X6590D01*
X6594Y4634D01*
X6596Y4632D01*
X6598Y4628D01*
X6619Y4605D02*
Y4618D01*
X6598Y4622D02*
X6599Y4626D01*
X6601Y4628D01*
X6615Y4634D01*
X6617Y4635D01*
Y4637D01*
X6615Y4639D01*
X6599Y4626D02*
X6603Y4628D01*
X6617Y4632D01*
X6619Y4634D01*
Y4637D01*
X6615Y4639D01*
X6613D01*
X6586Y4644D02*
X6584Y4648D01*
X6579Y4654D01*
X6619D01*
X6580Y4652D02*
X6619D01*
Y4644D02*
Y4662D01*
X6586Y4670D02*
X6588Y4672D01*
X6590Y4670D01*
X6588Y4668D01*
X6586D01*
X6582Y4670D01*
X6580Y4672D01*
X6579Y4678D01*
Y4686D01*
X6580Y4691D01*
X6584Y4693D01*
X6590D01*
X6594Y4691D01*
X6596Y4686D01*
Y4680D01*
X6579Y4686D02*
X6580Y4689D01*
X6584Y4691D01*
X6590D01*
X6594Y4689D01*
X6596Y4686D01*
X6598Y4689D01*
X6601Y4693D01*
X6605Y4695D01*
X6611D01*
X6615Y4693D01*
X6617Y4691D01*
X6619Y4686D01*
Y4678D01*
X6617Y4672D01*
X6615Y4670D01*
X6611Y4668D01*
X6609D01*
X6607Y4670D01*
X6609Y4672D01*
X6611Y4670D01*
X6599Y4691D02*
X6605Y4693D01*
X6611D01*
X6615Y4691D01*
X6617Y4689D01*
X6619Y4686D01*
X4591Y3630D02*
Y3590D01*
X4593Y3630D02*
Y3590D01*
X4586Y3630D02*
X4608D01*
X4614Y3628D01*
X4616Y3626D01*
X4618Y3622D01*
Y3619D01*
X4616Y3615D01*
X4614Y3613D01*
X4608Y3611D01*
X4593D01*
X4608Y3630D02*
X4612Y3628D01*
X4614Y3626D01*
X4616Y3622D01*
Y3619D01*
X4614Y3615D01*
X4612Y3613D01*
X4608Y3611D01*
X4586Y3590D02*
X4599D01*
X4603Y3611D02*
X4607Y3609D01*
X4608Y3607D01*
X4614Y3594D01*
X4616Y3592D01*
X4618D01*
X4620Y3594D01*
X4607Y3609D02*
X4608Y3605D01*
X4612Y3592D01*
X4614Y3590D01*
X4618D01*
X4620Y3594D01*
Y3596D01*
X4625Y3622D02*
X4629Y3624D01*
X4635Y3630D01*
Y3590D01*
X4633Y3628D02*
Y3590D01*
X4625D02*
X4642D01*
X4651Y3622D02*
X4653Y3620D01*
X4651Y3619D01*
X4649Y3620D01*
Y3622D01*
X4651Y3626D01*
X4653Y3628D01*
X4659Y3630D01*
X4666D01*
X4672Y3628D01*
X4674Y3626D01*
X4676Y3622D01*
Y3619D01*
X4674Y3615D01*
X4668Y3611D01*
X4659Y3607D01*
X4655Y3605D01*
X4651Y3601D01*
X4649Y3596D01*
Y3590D01*
X4666Y3630D02*
X4670Y3628D01*
X4672Y3626D01*
X4674Y3622D01*
Y3619D01*
X4672Y3615D01*
X4666Y3611D01*
X4659Y3607D01*
X4649Y3594D02*
X4651Y3596D01*
X4655D01*
X4664Y3592D01*
X4670D01*
X4674Y3594D01*
X4676Y3596D01*
Y3600D01*
X4655Y3596D02*
X4664Y3590D01*
X4672D01*
X4674Y3592D01*
X4676Y3596D01*
X6046Y3455D02*
Y3415D01*
X6048Y3455D02*
Y3415D01*
X6040Y3455D02*
X6063D01*
X6069Y3453D01*
X6070Y3451D01*
X6072Y3447D01*
Y3444D01*
X6070Y3440D01*
X6069Y3438D01*
X6063Y3436D01*
X6048D01*
X6063Y3455D02*
X6067Y3453D01*
X6069Y3451D01*
X6070Y3447D01*
Y3444D01*
X6069Y3440D01*
X6067Y3438D01*
X6063Y3436D01*
X6040Y3415D02*
X6053D01*
X6057Y3436D02*
X6061Y3434D01*
X6063Y3432D01*
X6069Y3419D01*
X6070Y3417D01*
X6072D01*
X6074Y3419D01*
X6061Y3434D02*
X6063Y3430D01*
X6067Y3417D01*
X6069Y3415D01*
X6072D01*
X6074Y3419D01*
Y3421D01*
X6079Y3447D02*
X6083Y3449D01*
X6089Y3455D01*
Y3415D01*
X6087Y3453D02*
Y3415D01*
X6079D02*
X6097D01*
X6103Y3447D02*
X6107Y3449D01*
X6113Y3455D01*
Y3415D01*
X6111Y3453D02*
Y3415D01*
X6103D02*
X6121D01*
X6047Y3345D02*
Y3305D01*
X6049Y3345D02*
Y3305D01*
X6041Y3345D02*
X6064D01*
X6070Y3343D01*
X6071Y3341D01*
X6073Y3337D01*
Y3334D01*
X6071Y3330D01*
X6070Y3328D01*
X6064Y3326D01*
X6049D01*
X6064Y3345D02*
X6068Y3343D01*
X6070Y3341D01*
X6071Y3337D01*
Y3334D01*
X6070Y3330D01*
X6068Y3328D01*
X6064Y3326D01*
X6041Y3305D02*
X6054D01*
X6058Y3326D02*
X6062Y3324D01*
X6064Y3322D01*
X6070Y3309D01*
X6071Y3307D01*
X6073D01*
X6075Y3309D01*
X6062Y3324D02*
X6064Y3320D01*
X6068Y3307D01*
X6070Y3305D01*
X6073D01*
X6075Y3309D01*
Y3311D01*
X6080Y3337D02*
X6084Y3339D01*
X6090Y3345D01*
Y3305D01*
X6088Y3343D02*
Y3305D01*
X6080D02*
X6098D01*
X6116Y3345D02*
X6110Y3343D01*
X6106Y3337D01*
X6104Y3328D01*
Y3322D01*
X6106Y3313D01*
X6110Y3307D01*
X6116Y3305D01*
X6120D01*
X6125Y3307D01*
X6129Y3313D01*
X6131Y3322D01*
Y3328D01*
X6129Y3337D01*
X6125Y3343D01*
X6120Y3345D01*
X6116D01*
X6112Y3343D01*
X6110Y3341D01*
X6108Y3337D01*
X6106Y3328D01*
Y3322D01*
X6108Y3313D01*
X6110Y3309D01*
X6112Y3307D01*
X6116Y3305D01*
X6120D02*
X6123Y3307D01*
X6125Y3309D01*
X6127Y3313D01*
X6129Y3322D01*
Y3328D01*
X6127Y3337D01*
X6125Y3341D01*
X6123Y3343D01*
X6120Y3345D01*
X5481Y3625D02*
Y3585D01*
X5483Y3625D02*
Y3585D01*
X5475Y3625D02*
X5498D01*
X5504Y3623D01*
X5505Y3621D01*
X5507Y3617D01*
Y3614D01*
X5505Y3610D01*
X5504Y3608D01*
X5498Y3606D01*
X5483D01*
X5498Y3625D02*
X5502Y3623D01*
X5504Y3621D01*
X5505Y3617D01*
Y3614D01*
X5504Y3610D01*
X5502Y3608D01*
X5498Y3606D01*
X5475Y3585D02*
X5488D01*
X5492Y3606D02*
X5496Y3604D01*
X5498Y3602D01*
X5504Y3589D01*
X5505Y3587D01*
X5507D01*
X5509Y3589D01*
X5496Y3604D02*
X5498Y3600D01*
X5502Y3587D01*
X5504Y3585D01*
X5507D01*
X5509Y3589D01*
Y3591D01*
X5539Y3612D02*
X5537Y3606D01*
X5533Y3602D01*
X5528Y3600D01*
X5526D01*
X5520Y3602D01*
X5516Y3606D01*
X5514Y3612D01*
Y3614D01*
X5516Y3619D01*
X5520Y3623D01*
X5526Y3625D01*
X5530D01*
X5535Y3623D01*
X5539Y3619D01*
X5541Y3614D01*
Y3602D01*
X5539Y3595D01*
X5537Y3591D01*
X5533Y3587D01*
X5528Y3585D01*
X5522D01*
X5518Y3587D01*
X5516Y3591D01*
Y3593D01*
X5518Y3595D01*
X5520Y3593D01*
X5518Y3591D01*
X5526Y3600D02*
X5522Y3602D01*
X5518Y3606D01*
X5516Y3612D01*
Y3614D01*
X5518Y3619D01*
X5522Y3623D01*
X5526Y3625D01*
X5530D02*
X5533Y3623D01*
X5537Y3619D01*
X5539Y3614D01*
Y3602D01*
X5537Y3595D01*
X5535Y3591D01*
X5532Y3587D01*
X5528Y3585D01*
X4696Y4820D02*
Y4780D01*
X4698Y4820D02*
Y4780D01*
X4690Y4820D02*
X4713D01*
X4719Y4818D01*
X4720Y4816D01*
X4722Y4812D01*
Y4809D01*
X4720Y4805D01*
X4719Y4803D01*
X4713Y4801D01*
X4698D01*
X4713Y4820D02*
X4717Y4818D01*
X4719Y4816D01*
X4720Y4812D01*
Y4809D01*
X4719Y4805D01*
X4717Y4803D01*
X4713Y4801D01*
X4690Y4780D02*
X4703D01*
X4707Y4801D02*
X4711Y4799D01*
X4713Y4797D01*
X4719Y4784D01*
X4720Y4782D01*
X4722D01*
X4724Y4784D01*
X4711Y4799D02*
X4713Y4795D01*
X4717Y4782D01*
X4719Y4780D01*
X4722D01*
X4724Y4784D01*
Y4786D01*
X4739Y4820D02*
X4733Y4818D01*
X4731Y4814D01*
Y4809D01*
X4733Y4805D01*
X4739Y4803D01*
X4747D01*
X4752Y4805D01*
X4754Y4809D01*
Y4814D01*
X4752Y4818D01*
X4747Y4820D01*
X4739D01*
X4735Y4818D01*
X4733Y4814D01*
Y4809D01*
X4735Y4805D01*
X4739Y4803D01*
X4747D02*
X4750Y4805D01*
X4752Y4809D01*
Y4814D01*
X4750Y4818D01*
X4747Y4820D01*
X4739Y4803D02*
X4733Y4801D01*
X4731Y4799D01*
X4729Y4795D01*
Y4788D01*
X4731Y4784D01*
X4733Y4782D01*
X4739Y4780D01*
X4747D01*
X4752Y4782D01*
X4754Y4784D01*
X4756Y4788D01*
Y4795D01*
X4754Y4799D01*
X4752Y4801D01*
X4747Y4803D01*
X4739D02*
X4735Y4801D01*
X4733Y4799D01*
X4731Y4795D01*
Y4788D01*
X4733Y4784D01*
X4735Y4782D01*
X4739Y4780D01*
X4747D02*
X4750Y4782D01*
X4752Y4784D01*
X4754Y4788D01*
Y4795D01*
X4752Y4799D01*
X4750Y4801D01*
X4747Y4803D01*
X6916Y3445D02*
Y3405D01*
X6918Y3445D02*
Y3405D01*
X6910Y3445D02*
X6933D01*
X6939Y3443D01*
X6940Y3441D01*
X6942Y3437D01*
Y3434D01*
X6940Y3430D01*
X6939Y3428D01*
X6933Y3426D01*
X6918D01*
X6933Y3445D02*
X6937Y3443D01*
X6939Y3441D01*
X6940Y3437D01*
Y3434D01*
X6939Y3430D01*
X6937Y3428D01*
X6933Y3426D01*
X6910Y3405D02*
X6923D01*
X6927Y3426D02*
X6931Y3424D01*
X6933Y3422D01*
X6939Y3409D01*
X6940Y3407D01*
X6942D01*
X6944Y3409D01*
X6931Y3424D02*
X6933Y3420D01*
X6937Y3407D01*
X6939Y3405D01*
X6942D01*
X6944Y3409D01*
Y3411D01*
X6949Y3445D02*
Y3434D01*
Y3437D02*
X6951Y3441D01*
X6955Y3445D01*
X6959D01*
X6968Y3439D01*
X6972D01*
X6974Y3441D01*
X6976Y3445D01*
X6951Y3441D02*
X6955Y3443D01*
X6959D01*
X6968Y3439D01*
X6976Y3445D02*
Y3439D01*
X6974Y3434D01*
X6967Y3424D01*
X6965Y3420D01*
X6963Y3415D01*
Y3405D01*
X6974Y3434D02*
X6965Y3424D01*
X6963Y3420D01*
X6961Y3415D01*
Y3405D01*
X6919Y3340D02*
Y3300D01*
X6921Y3340D02*
Y3300D01*
X6913Y3340D02*
X6936D01*
X6942Y3338D01*
X6944Y3336D01*
X6945Y3332D01*
Y3329D01*
X6944Y3325D01*
X6942Y3323D01*
X6936Y3321D01*
X6921D01*
X6936Y3340D02*
X6940Y3338D01*
X6942Y3336D01*
X6944Y3332D01*
Y3329D01*
X6942Y3325D01*
X6940Y3323D01*
X6936Y3321D01*
X6913Y3300D02*
X6926D01*
X6930Y3321D02*
X6934Y3319D01*
X6936Y3317D01*
X6942Y3304D01*
X6944Y3302D01*
X6945D01*
X6947Y3304D01*
X6934Y3319D02*
X6936Y3315D01*
X6940Y3302D01*
X6942Y3300D01*
X6945D01*
X6947Y3304D01*
Y3306D01*
X6975Y3334D02*
X6973Y3332D01*
X6975Y3330D01*
X6977Y3332D01*
Y3334D01*
X6975Y3338D01*
X6972Y3340D01*
X6966D01*
X6960Y3338D01*
X6956Y3334D01*
X6954Y3330D01*
X6952Y3323D01*
Y3311D01*
X6954Y3306D01*
X6958Y3302D01*
X6964Y3300D01*
X6968D01*
X6973Y3302D01*
X6977Y3306D01*
X6979Y3311D01*
Y3313D01*
X6977Y3319D01*
X6973Y3323D01*
X6968Y3325D01*
X6966D01*
X6960Y3323D01*
X6956Y3319D01*
X6954Y3313D01*
X6966Y3340D02*
X6962Y3338D01*
X6958Y3334D01*
X6956Y3330D01*
X6954Y3323D01*
Y3311D01*
X6956Y3306D01*
X6960Y3302D01*
X6964Y3300D01*
X6968D02*
X6972Y3302D01*
X6975Y3306D01*
X6977Y3311D01*
Y3313D01*
X6975Y3319D01*
X6972Y3323D01*
X6968Y3325D01*
X6356Y3630D02*
Y3590D01*
X6358Y3630D02*
Y3590D01*
X6350Y3630D02*
X6373D01*
X6379Y3628D01*
X6380Y3626D01*
X6382Y3622D01*
Y3619D01*
X6380Y3615D01*
X6379Y3613D01*
X6373Y3611D01*
X6358D01*
X6373Y3630D02*
X6377Y3628D01*
X6379Y3626D01*
X6380Y3622D01*
Y3619D01*
X6379Y3615D01*
X6377Y3613D01*
X6373Y3611D01*
X6350Y3590D02*
X6363D01*
X6367Y3611D02*
X6371Y3609D01*
X6373Y3607D01*
X6379Y3594D01*
X6380Y3592D01*
X6382D01*
X6384Y3594D01*
X6371Y3609D02*
X6373Y3605D01*
X6377Y3592D01*
X6379Y3590D01*
X6382D01*
X6384Y3594D01*
Y3596D01*
X6393Y3630D02*
X6389Y3611D01*
X6393Y3615D01*
X6399Y3617D01*
X6405D01*
X6410Y3615D01*
X6414Y3611D01*
X6416Y3605D01*
Y3601D01*
X6414Y3596D01*
X6410Y3592D01*
X6405Y3590D01*
X6399D01*
X6393Y3592D01*
X6391Y3594D01*
X6389Y3598D01*
Y3600D01*
X6391Y3601D01*
X6393Y3600D01*
X6391Y3598D01*
X6405Y3617D02*
X6408Y3615D01*
X6412Y3611D01*
X6414Y3605D01*
Y3601D01*
X6412Y3596D01*
X6408Y3592D01*
X6405Y3590D01*
X6393Y3630D02*
X6412D01*
X6393Y3628D02*
X6403D01*
X6412Y3630D01*
X6736Y4800D02*
Y4760D01*
X6738Y4800D02*
Y4760D01*
X6730Y4800D02*
X6753D01*
X6759Y4798D01*
X6760Y4796D01*
X6762Y4792D01*
Y4789D01*
X6760Y4785D01*
X6759Y4783D01*
X6753Y4781D01*
X6738D01*
X6753Y4800D02*
X6757Y4798D01*
X6759Y4796D01*
X6760Y4792D01*
Y4789D01*
X6759Y4785D01*
X6757Y4783D01*
X6753Y4781D01*
X6730Y4760D02*
X6743D01*
X6747Y4781D02*
X6751Y4779D01*
X6753Y4777D01*
X6759Y4764D01*
X6760Y4762D01*
X6762D01*
X6764Y4764D01*
X6751Y4779D02*
X6753Y4775D01*
X6757Y4762D01*
X6759Y4760D01*
X6762D01*
X6764Y4764D01*
Y4766D01*
X6788Y4796D02*
Y4760D01*
X6800Y4771D02*
X6769D01*
X6790Y4800D01*
Y4760D01*
X6783D02*
X6796D01*
X6161Y4450D02*
Y4410D01*
X6163Y4450D02*
Y4410D01*
X6155Y4450D02*
X6178D01*
X6184Y4448D01*
X6185Y4446D01*
X6187Y4442D01*
Y4439D01*
X6185Y4435D01*
X6184Y4433D01*
X6178Y4431D01*
X6163D01*
X6178Y4450D02*
X6182Y4448D01*
X6184Y4446D01*
X6185Y4442D01*
Y4439D01*
X6184Y4435D01*
X6182Y4433D01*
X6178Y4431D01*
X6155Y4410D02*
X6168D01*
X6172Y4431D02*
X6176Y4429D01*
X6178Y4427D01*
X6184Y4414D01*
X6185Y4412D01*
X6187D01*
X6189Y4414D01*
X6176Y4429D02*
X6178Y4425D01*
X6182Y4412D01*
X6184Y4410D01*
X6187D01*
X6189Y4414D01*
Y4416D01*
X6196Y4442D02*
X6198Y4440D01*
X6196Y4439D01*
X6194Y4440D01*
Y4442D01*
X6196Y4446D01*
X6198Y4448D01*
X6204Y4450D01*
X6212D01*
X6217Y4448D01*
X6219Y4444D01*
Y4439D01*
X6217Y4435D01*
X6212Y4433D01*
X6206D01*
X6212Y4450D02*
X6215Y4448D01*
X6217Y4444D01*
Y4439D01*
X6215Y4435D01*
X6212Y4433D01*
X6215Y4431D01*
X6219Y4427D01*
X6221Y4423D01*
Y4418D01*
X6219Y4414D01*
X6217Y4412D01*
X6212Y4410D01*
X6204D01*
X6198Y4412D01*
X6196Y4414D01*
X6194Y4418D01*
Y4420D01*
X6196Y4421D01*
X6198Y4420D01*
X6196Y4418D01*
X6217Y4429D02*
X6219Y4423D01*
Y4418D01*
X6217Y4414D01*
X6215Y4412D01*
X6212Y4410D01*
X6806Y3935D02*
Y3895D01*
X6808Y3935D02*
Y3895D01*
X6800Y3935D02*
X6823D01*
X6829Y3933D01*
X6830Y3931D01*
X6832Y3927D01*
Y3924D01*
X6830Y3920D01*
X6829Y3918D01*
X6823Y3916D01*
X6808D01*
X6823Y3935D02*
X6827Y3933D01*
X6829Y3931D01*
X6830Y3927D01*
Y3924D01*
X6829Y3920D01*
X6827Y3918D01*
X6823Y3916D01*
X6800Y3895D02*
X6813D01*
X6817Y3916D02*
X6821Y3914D01*
X6823Y3912D01*
X6829Y3899D01*
X6830Y3897D01*
X6832D01*
X6834Y3899D01*
X6821Y3914D02*
X6823Y3910D01*
X6827Y3897D01*
X6829Y3895D01*
X6832D01*
X6834Y3899D01*
Y3901D01*
X6841Y3927D02*
X6843Y3925D01*
X6841Y3924D01*
X6839Y3925D01*
Y3927D01*
X6841Y3931D01*
X6843Y3933D01*
X6849Y3935D01*
X6857D01*
X6862Y3933D01*
X6864Y3931D01*
X6866Y3927D01*
Y3924D01*
X6864Y3920D01*
X6858Y3916D01*
X6849Y3912D01*
X6845Y3910D01*
X6841Y3906D01*
X6839Y3901D01*
Y3895D01*
X6857Y3935D02*
X6860Y3933D01*
X6862Y3931D01*
X6864Y3927D01*
Y3924D01*
X6862Y3920D01*
X6857Y3916D01*
X6849Y3912D01*
X6839Y3899D02*
X6841Y3901D01*
X6845D01*
X6855Y3897D01*
X6860D01*
X6864Y3899D01*
X6866Y3901D01*
Y3905D01*
X6845Y3901D02*
X6855Y3895D01*
X6862D01*
X6864Y3897D01*
X6866Y3901D01*
X6166Y4350D02*
Y4310D01*
X6168Y4350D02*
Y4310D01*
X6160Y4350D02*
X6183D01*
X6189Y4348D01*
X6190Y4346D01*
X6192Y4342D01*
Y4339D01*
X6190Y4335D01*
X6189Y4333D01*
X6183Y4331D01*
X6168D01*
X6183Y4350D02*
X6187Y4348D01*
X6189Y4346D01*
X6190Y4342D01*
Y4339D01*
X6189Y4335D01*
X6187Y4333D01*
X6183Y4331D01*
X6160Y4310D02*
X6173D01*
X6177Y4331D02*
X6181Y4329D01*
X6183Y4327D01*
X6189Y4314D01*
X6190Y4312D01*
X6192D01*
X6194Y4314D01*
X6181Y4329D02*
X6183Y4325D01*
X6187Y4312D01*
X6189Y4310D01*
X6192D01*
X6194Y4314D01*
Y4316D01*
X6199Y4342D02*
X6203Y4344D01*
X6209Y4350D01*
Y4310D01*
X6207Y4348D02*
Y4310D01*
X6199D02*
X6217D01*
X4583Y4010D02*
X4578Y4008D01*
X4574Y4004D01*
X4572Y4000D01*
X4570Y3993D01*
Y3987D01*
X4572Y3980D01*
X4574Y3976D01*
X4578Y3972D01*
X4583Y3970D01*
X4587D01*
X4593Y3972D01*
X4597Y3976D01*
X4599Y3980D01*
X4600Y3987D01*
Y3993D01*
X4599Y4000D01*
X4597Y4004D01*
X4593Y4008D01*
X4587Y4010D01*
X4583D01*
X4580Y4008D01*
X4576Y4004D01*
X4574Y4000D01*
X4572Y3993D01*
Y3987D01*
X4574Y3980D01*
X4576Y3976D01*
X4580Y3972D01*
X4583Y3970D01*
X4587D02*
X4591Y3972D01*
X4595Y3976D01*
X4597Y3980D01*
X4599Y3987D01*
Y3993D01*
X4597Y4000D01*
X4595Y4004D01*
X4591Y4008D01*
X4587Y4010D01*
X4578Y3974D02*
Y3976D01*
X4580Y3980D01*
X4583Y3981D01*
X4585D01*
X4589Y3980D01*
X4591Y3976D01*
X4593Y3962D01*
X4595Y3960D01*
X4599D01*
X4600Y3964D01*
Y3966D01*
X4591Y3976D02*
X4593Y3968D01*
X4595Y3964D01*
X4597Y3962D01*
X4599D01*
X4600Y3964D01*
X4629Y4004D02*
X4627Y4002D01*
X4629Y4000D01*
X4631Y4002D01*
Y4004D01*
X4629Y4008D01*
X4625Y4010D01*
X4619D01*
X4614Y4008D01*
X4610Y4004D01*
X4608Y4000D01*
X4606Y3993D01*
Y3981D01*
X4608Y3976D01*
X4612Y3972D01*
X4617Y3970D01*
X4621D01*
X4627Y3972D01*
X4631Y3976D01*
X4633Y3981D01*
Y3983D01*
X4631Y3989D01*
X4627Y3993D01*
X4621Y3995D01*
X4619D01*
X4614Y3993D01*
X4610Y3989D01*
X4608Y3983D01*
X4619Y4010D02*
X4616Y4008D01*
X4612Y4004D01*
X4610Y4000D01*
X4608Y3993D01*
Y3981D01*
X4610Y3976D01*
X4614Y3972D01*
X4617Y3970D01*
X4621D02*
X4625Y3972D01*
X4629Y3976D01*
X4631Y3981D01*
Y3983D01*
X4629Y3989D01*
X4625Y3993D01*
X4621Y3995D01*
X4323Y3210D02*
X4318Y3208D01*
X4314Y3204D01*
X4312Y3200D01*
X4310Y3193D01*
Y3187D01*
X4312Y3180D01*
X4314Y3176D01*
X4318Y3172D01*
X4323Y3170D01*
X4327D01*
X4333Y3172D01*
X4337Y3176D01*
X4339Y3180D01*
X4340Y3187D01*
Y3193D01*
X4339Y3200D01*
X4337Y3204D01*
X4333Y3208D01*
X4327Y3210D01*
X4323D01*
X4320Y3208D01*
X4316Y3204D01*
X4314Y3200D01*
X4312Y3193D01*
Y3187D01*
X4314Y3180D01*
X4316Y3176D01*
X4320Y3172D01*
X4323Y3170D01*
X4327D02*
X4331Y3172D01*
X4335Y3176D01*
X4337Y3180D01*
X4339Y3187D01*
Y3193D01*
X4337Y3200D01*
X4335Y3204D01*
X4331Y3208D01*
X4327Y3210D01*
X4318Y3174D02*
Y3176D01*
X4320Y3180D01*
X4323Y3181D01*
X4325D01*
X4329Y3180D01*
X4331Y3176D01*
X4333Y3162D01*
X4335Y3160D01*
X4339D01*
X4340Y3164D01*
Y3166D01*
X4331Y3176D02*
X4333Y3168D01*
X4335Y3164D01*
X4337Y3162D01*
X4339D01*
X4340Y3164D01*
X4350Y3210D02*
X4346Y3191D01*
X4350Y3195D01*
X4356Y3197D01*
X4361D01*
X4367Y3195D01*
X4371Y3191D01*
X4373Y3185D01*
Y3181D01*
X4371Y3176D01*
X4367Y3172D01*
X4361Y3170D01*
X4356D01*
X4350Y3172D01*
X4348Y3174D01*
X4346Y3178D01*
Y3180D01*
X4348Y3181D01*
X4350Y3180D01*
X4348Y3178D01*
X4361Y3197D02*
X4365Y3195D01*
X4369Y3191D01*
X4371Y3185D01*
Y3181D01*
X4369Y3176D01*
X4365Y3172D01*
X4361Y3170D01*
X4350Y3210D02*
X4369D01*
X4350Y3208D02*
X4359D01*
X4369Y3210D01*
X5183Y3215D02*
X5178Y3213D01*
X5174Y3209D01*
X5172Y3205D01*
X5170Y3198D01*
Y3192D01*
X5172Y3185D01*
X5174Y3181D01*
X5178Y3177D01*
X5183Y3175D01*
X5187D01*
X5193Y3177D01*
X5197Y3181D01*
X5199Y3185D01*
X5200Y3192D01*
Y3198D01*
X5199Y3205D01*
X5197Y3209D01*
X5193Y3213D01*
X5187Y3215D01*
X5183D01*
X5180Y3213D01*
X5176Y3209D01*
X5174Y3205D01*
X5172Y3198D01*
Y3192D01*
X5174Y3185D01*
X5176Y3181D01*
X5180Y3177D01*
X5183Y3175D01*
X5187D02*
X5191Y3177D01*
X5195Y3181D01*
X5197Y3185D01*
X5199Y3192D01*
Y3198D01*
X5197Y3205D01*
X5195Y3209D01*
X5191Y3213D01*
X5187Y3215D01*
X5178Y3179D02*
Y3181D01*
X5180Y3185D01*
X5183Y3186D01*
X5185D01*
X5189Y3185D01*
X5191Y3181D01*
X5193Y3167D01*
X5195Y3165D01*
X5199D01*
X5200Y3169D01*
Y3171D01*
X5191Y3181D02*
X5193Y3173D01*
X5195Y3169D01*
X5197Y3167D01*
X5199D01*
X5200Y3169D01*
X5225Y3211D02*
Y3175D01*
X5236Y3186D02*
X5206D01*
X5227Y3215D01*
Y3175D01*
X5219D02*
X5233D01*
X4293Y4015D02*
X4288Y4013D01*
X4284Y4009D01*
X4282Y4005D01*
X4280Y3998D01*
Y3992D01*
X4282Y3985D01*
X4284Y3981D01*
X4288Y3977D01*
X4293Y3975D01*
X4297D01*
X4303Y3977D01*
X4307Y3981D01*
X4309Y3985D01*
X4310Y3992D01*
Y3998D01*
X4309Y4005D01*
X4307Y4009D01*
X4303Y4013D01*
X4297Y4015D01*
X4293D01*
X4290Y4013D01*
X4286Y4009D01*
X4284Y4005D01*
X4282Y3998D01*
Y3992D01*
X4284Y3985D01*
X4286Y3981D01*
X4290Y3977D01*
X4293Y3975D01*
X4297D02*
X4301Y3977D01*
X4305Y3981D01*
X4307Y3985D01*
X4309Y3992D01*
Y3998D01*
X4307Y4005D01*
X4305Y4009D01*
X4301Y4013D01*
X4297Y4015D01*
X4288Y3979D02*
Y3981D01*
X4290Y3985D01*
X4293Y3986D01*
X4295D01*
X4299Y3985D01*
X4301Y3981D01*
X4303Y3967D01*
X4305Y3965D01*
X4309D01*
X4310Y3969D01*
Y3971D01*
X4301Y3981D02*
X4303Y3973D01*
X4305Y3969D01*
X4307Y3967D01*
X4309D01*
X4310Y3969D01*
X4318Y4007D02*
X4320Y4005D01*
X4318Y4004D01*
X4316Y4005D01*
Y4007D01*
X4318Y4011D01*
X4320Y4013D01*
X4326Y4015D01*
X4333D01*
X4339Y4013D01*
X4341Y4009D01*
Y4004D01*
X4339Y4000D01*
X4333Y3998D01*
X4327D01*
X4333Y4015D02*
X4337Y4013D01*
X4339Y4009D01*
Y4004D01*
X4337Y4000D01*
X4333Y3998D01*
X4337Y3996D01*
X4341Y3992D01*
X4343Y3988D01*
Y3983D01*
X4341Y3979D01*
X4339Y3977D01*
X4333Y3975D01*
X4326D01*
X4320Y3977D01*
X4318Y3979D01*
X4316Y3983D01*
Y3985D01*
X4318Y3986D01*
X4320Y3985D01*
X4318Y3983D01*
X4339Y3994D02*
X4341Y3988D01*
Y3983D01*
X4339Y3979D01*
X4337Y3977D01*
X4333Y3975D01*
X6058Y3215D02*
X6053Y3213D01*
X6049Y3209D01*
X6047Y3205D01*
X6045Y3198D01*
Y3192D01*
X6047Y3185D01*
X6049Y3181D01*
X6053Y3177D01*
X6058Y3175D01*
X6062D01*
X6068Y3177D01*
X6072Y3181D01*
X6074Y3185D01*
X6075Y3192D01*
Y3198D01*
X6074Y3205D01*
X6072Y3209D01*
X6068Y3213D01*
X6062Y3215D01*
X6058D01*
X6055Y3213D01*
X6051Y3209D01*
X6049Y3205D01*
X6047Y3198D01*
Y3192D01*
X6049Y3185D01*
X6051Y3181D01*
X6055Y3177D01*
X6058Y3175D01*
X6062D02*
X6066Y3177D01*
X6070Y3181D01*
X6072Y3185D01*
X6074Y3192D01*
Y3198D01*
X6072Y3205D01*
X6070Y3209D01*
X6066Y3213D01*
X6062Y3215D01*
X6053Y3179D02*
Y3181D01*
X6055Y3185D01*
X6058Y3186D01*
X6060D01*
X6064Y3185D01*
X6066Y3181D01*
X6068Y3167D01*
X6070Y3165D01*
X6074D01*
X6075Y3169D01*
Y3171D01*
X6066Y3181D02*
X6068Y3173D01*
X6070Y3169D01*
X6072Y3167D01*
X6074D01*
X6075Y3169D01*
X6083Y3207D02*
X6085Y3205D01*
X6083Y3204D01*
X6081Y3205D01*
Y3207D01*
X6083Y3211D01*
X6085Y3213D01*
X6091Y3215D01*
X6098D01*
X6104Y3213D01*
X6106Y3211D01*
X6108Y3207D01*
Y3204D01*
X6106Y3200D01*
X6100Y3196D01*
X6091Y3192D01*
X6087Y3190D01*
X6083Y3186D01*
X6081Y3181D01*
Y3175D01*
X6098Y3215D02*
X6102Y3213D01*
X6104Y3211D01*
X6106Y3207D01*
Y3204D01*
X6104Y3200D01*
X6098Y3196D01*
X6091Y3192D01*
X6081Y3179D02*
X6083Y3181D01*
X6087D01*
X6096Y3177D01*
X6102D01*
X6106Y3179D01*
X6108Y3181D01*
Y3185D01*
X6087Y3181D02*
X6096Y3175D01*
X6104D01*
X6106Y3177D01*
X6108Y3181D01*
X6928Y3225D02*
X6923Y3223D01*
X6919Y3219D01*
X6917Y3215D01*
X6915Y3208D01*
Y3202D01*
X6917Y3195D01*
X6919Y3191D01*
X6923Y3187D01*
X6928Y3185D01*
X6932D01*
X6938Y3187D01*
X6942Y3191D01*
X6944Y3195D01*
X6945Y3202D01*
Y3208D01*
X6944Y3215D01*
X6942Y3219D01*
X6938Y3223D01*
X6932Y3225D01*
X6928D01*
X6925Y3223D01*
X6921Y3219D01*
X6919Y3215D01*
X6917Y3208D01*
Y3202D01*
X6919Y3195D01*
X6921Y3191D01*
X6925Y3187D01*
X6928Y3185D01*
X6932D02*
X6936Y3187D01*
X6940Y3191D01*
X6942Y3195D01*
X6944Y3202D01*
Y3208D01*
X6942Y3215D01*
X6940Y3219D01*
X6936Y3223D01*
X6932Y3225D01*
X6923Y3189D02*
Y3191D01*
X6925Y3195D01*
X6928Y3196D01*
X6930D01*
X6934Y3195D01*
X6936Y3191D01*
X6938Y3177D01*
X6940Y3175D01*
X6944D01*
X6945Y3179D01*
Y3181D01*
X6936Y3191D02*
X6938Y3183D01*
X6940Y3179D01*
X6942Y3177D01*
X6944D01*
X6945Y3179D01*
X6951Y3217D02*
X6955Y3219D01*
X6961Y3225D01*
Y3185D01*
X6959Y3223D02*
Y3185D01*
X6951D02*
X6968D01*
X6511Y4230D02*
Y4190D01*
X6513Y4230D02*
Y4190D01*
X6524Y4219D02*
Y4203D01*
X6505Y4230D02*
X6535D01*
Y4219D01*
X6534Y4230D01*
X6513Y4211D02*
X6524D01*
X6505Y4190D02*
X6518D01*
X6541Y4222D02*
X6545Y4224D01*
X6551Y4230D01*
Y4190D01*
X6549Y4228D02*
Y4190D01*
X6541D02*
X6558D01*
X3585Y3521D02*
Y3481D01*
X3587Y3521D02*
Y3481D01*
X3579Y3521D02*
X3598D01*
X3604Y3519D01*
X3608Y3515D01*
X3609Y3511D01*
X3611Y3506D01*
Y3496D01*
X3609Y3491D01*
X3608Y3487D01*
X3604Y3483D01*
X3598Y3481D01*
X3579D01*
X3598Y3521D02*
X3602Y3519D01*
X3606Y3515D01*
X3608Y3511D01*
X3609Y3506D01*
Y3496D01*
X3608Y3491D01*
X3606Y3487D01*
X3602Y3483D01*
X3598Y3481D01*
X3617Y3513D02*
X3621Y3515D01*
X3626Y3521D01*
Y3481D01*
X3624Y3519D02*
Y3481D01*
X3617D02*
X3634D01*
X3652Y3521D02*
X3646Y3519D01*
X3643Y3513D01*
X3641Y3504D01*
Y3498D01*
X3643Y3489D01*
X3646Y3483D01*
X3652Y3481D01*
X3656D01*
X3662Y3483D01*
X3665Y3489D01*
X3667Y3498D01*
Y3504D01*
X3665Y3513D01*
X3662Y3519D01*
X3656Y3521D01*
X3652D01*
X3648Y3519D01*
X3646Y3517D01*
X3645Y3513D01*
X3643Y3504D01*
Y3498D01*
X3645Y3489D01*
X3646Y3485D01*
X3648Y3483D01*
X3652Y3481D01*
X3656D02*
X3660Y3483D01*
X3662Y3485D01*
X3664Y3489D01*
X3665Y3498D01*
Y3504D01*
X3664Y3513D01*
X3662Y3517D01*
X3660Y3519D01*
X3656Y3521D01*
X4440Y3526D02*
Y3486D01*
X4442Y3526D02*
Y3486D01*
X4434Y3526D02*
X4453D01*
X4459Y3524D01*
X4463Y3520D01*
X4464Y3516D01*
X4466Y3511D01*
Y3501D01*
X4464Y3496D01*
X4463Y3492D01*
X4459Y3488D01*
X4453Y3486D01*
X4434D01*
X4453Y3526D02*
X4457Y3524D01*
X4461Y3520D01*
X4463Y3516D01*
X4464Y3511D01*
Y3501D01*
X4463Y3496D01*
X4461Y3492D01*
X4457Y3488D01*
X4453Y3486D01*
X4496Y3513D02*
X4495Y3507D01*
X4491Y3503D01*
X4485Y3501D01*
X4483D01*
X4477Y3503D01*
X4474Y3507D01*
X4472Y3513D01*
Y3515D01*
X4474Y3520D01*
X4477Y3524D01*
X4483Y3526D01*
X4487D01*
X4493Y3524D01*
X4496Y3520D01*
X4498Y3515D01*
Y3503D01*
X4496Y3496D01*
X4495Y3492D01*
X4491Y3488D01*
X4485Y3486D01*
X4479D01*
X4476Y3488D01*
X4474Y3492D01*
Y3494D01*
X4476Y3496D01*
X4477Y3494D01*
X4476Y3492D01*
X4483Y3501D02*
X4479Y3503D01*
X4476Y3507D01*
X4474Y3513D01*
Y3515D01*
X4476Y3520D01*
X4479Y3524D01*
X4483Y3526D01*
X4487D02*
X4491Y3524D01*
X4495Y3520D01*
X4496Y3515D01*
Y3503D01*
X4495Y3496D01*
X4493Y3492D01*
X4489Y3488D01*
X4485Y3486D01*
X3646Y3210D02*
Y3170D01*
X3648Y3210D02*
Y3170D01*
X3640Y3210D02*
X3659D01*
X3665Y3208D01*
X3669Y3204D01*
X3670Y3200D01*
X3672Y3195D01*
Y3185D01*
X3670Y3180D01*
X3669Y3176D01*
X3665Y3172D01*
X3659Y3170D01*
X3640D01*
X3659Y3210D02*
X3663Y3208D01*
X3667Y3204D01*
X3669Y3200D01*
X3670Y3195D01*
Y3185D01*
X3669Y3180D01*
X3667Y3176D01*
X3663Y3172D01*
X3659Y3170D01*
X3687Y3210D02*
X3682Y3208D01*
X3680Y3204D01*
Y3199D01*
X3682Y3195D01*
X3687Y3193D01*
X3695D01*
X3701Y3195D01*
X3702Y3199D01*
Y3204D01*
X3701Y3208D01*
X3695Y3210D01*
X3687D01*
X3683Y3208D01*
X3682Y3204D01*
Y3199D01*
X3683Y3195D01*
X3687Y3193D01*
X3695D02*
X3699Y3195D01*
X3701Y3199D01*
Y3204D01*
X3699Y3208D01*
X3695Y3210D01*
X3687Y3193D02*
X3682Y3191D01*
X3680Y3189D01*
X3678Y3185D01*
Y3178D01*
X3680Y3174D01*
X3682Y3172D01*
X3687Y3170D01*
X3695D01*
X3701Y3172D01*
X3702Y3174D01*
X3704Y3178D01*
Y3185D01*
X3702Y3189D01*
X3701Y3191D01*
X3695Y3193D01*
X3687D02*
X3683Y3191D01*
X3682Y3189D01*
X3680Y3185D01*
Y3178D01*
X3682Y3174D01*
X3683Y3172D01*
X3687Y3170D01*
X3695D02*
X3699Y3172D01*
X3701Y3174D01*
X3702Y3178D01*
Y3185D01*
X3701Y3189D01*
X3699Y3191D01*
X3695Y3193D01*
X4506Y3210D02*
Y3170D01*
X4508Y3210D02*
Y3170D01*
X4500Y3210D02*
X4519D01*
X4525Y3208D01*
X4529Y3204D01*
X4530Y3200D01*
X4532Y3195D01*
Y3185D01*
X4530Y3180D01*
X4529Y3176D01*
X4525Y3172D01*
X4519Y3170D01*
X4500D01*
X4519Y3210D02*
X4523Y3208D01*
X4527Y3204D01*
X4529Y3200D01*
X4530Y3195D01*
Y3185D01*
X4529Y3180D01*
X4527Y3176D01*
X4523Y3172D01*
X4519Y3170D01*
X4538Y3210D02*
Y3199D01*
Y3202D02*
X4540Y3206D01*
X4543Y3210D01*
X4547D01*
X4557Y3204D01*
X4561D01*
X4562Y3206D01*
X4564Y3210D01*
X4540Y3206D02*
X4543Y3208D01*
X4547D01*
X4557Y3204D01*
X4564Y3210D02*
Y3204D01*
X4562Y3199D01*
X4555Y3189D01*
X4553Y3185D01*
X4551Y3180D01*
Y3170D01*
X4562Y3199D02*
X4553Y3189D01*
X4551Y3185D01*
X4549Y3180D01*
Y3170D01*
X5310Y3521D02*
Y3481D01*
X5312Y3521D02*
Y3481D01*
X5304Y3521D02*
X5323D01*
X5329Y3519D01*
X5333Y3515D01*
X5334Y3511D01*
X5336Y3506D01*
Y3496D01*
X5334Y3491D01*
X5333Y3487D01*
X5329Y3483D01*
X5323Y3481D01*
X5304D01*
X5323Y3521D02*
X5327Y3519D01*
X5331Y3515D01*
X5333Y3511D01*
X5334Y3506D01*
Y3496D01*
X5333Y3491D01*
X5331Y3487D01*
X5327Y3483D01*
X5323Y3481D01*
X5365Y3515D02*
X5363Y3513D01*
X5365Y3511D01*
X5366Y3513D01*
Y3515D01*
X5365Y3519D01*
X5361Y3521D01*
X5355D01*
X5349Y3519D01*
X5346Y3515D01*
X5344Y3511D01*
X5342Y3504D01*
Y3492D01*
X5344Y3487D01*
X5347Y3483D01*
X5353Y3481D01*
X5357D01*
X5363Y3483D01*
X5366Y3487D01*
X5368Y3492D01*
Y3494D01*
X5366Y3500D01*
X5363Y3504D01*
X5357Y3506D01*
X5355D01*
X5349Y3504D01*
X5346Y3500D01*
X5344Y3494D01*
X5355Y3521D02*
X5351Y3519D01*
X5347Y3515D01*
X5346Y3511D01*
X5344Y3504D01*
Y3492D01*
X5346Y3487D01*
X5349Y3483D01*
X5353Y3481D01*
X5357D02*
X5361Y3483D01*
X5365Y3487D01*
X5366Y3492D01*
Y3494D01*
X5365Y3500D01*
X5361Y3504D01*
X5357Y3506D01*
X5376Y3210D02*
Y3170D01*
X5378Y3210D02*
Y3170D01*
X5370Y3210D02*
X5389D01*
X5395Y3208D01*
X5399Y3204D01*
X5400Y3200D01*
X5402Y3195D01*
Y3185D01*
X5400Y3180D01*
X5399Y3176D01*
X5395Y3172D01*
X5389Y3170D01*
X5370D01*
X5389Y3210D02*
X5393Y3208D01*
X5397Y3204D01*
X5399Y3200D01*
X5400Y3195D01*
Y3185D01*
X5399Y3180D01*
X5397Y3176D01*
X5393Y3172D01*
X5389Y3170D01*
X5412Y3210D02*
X5408Y3191D01*
X5412Y3195D01*
X5417Y3197D01*
X5423D01*
X5429Y3195D01*
X5432Y3191D01*
X5434Y3185D01*
Y3181D01*
X5432Y3176D01*
X5429Y3172D01*
X5423Y3170D01*
X5417D01*
X5412Y3172D01*
X5410Y3174D01*
X5408Y3178D01*
Y3180D01*
X5410Y3181D01*
X5412Y3180D01*
X5410Y3178D01*
X5423Y3197D02*
X5427Y3195D01*
X5431Y3191D01*
X5432Y3185D01*
Y3181D01*
X5431Y3176D01*
X5427Y3172D01*
X5423Y3170D01*
X5412Y3210D02*
X5431D01*
X5412Y3208D02*
X5421D01*
X5431Y3210D01*
X6196Y3515D02*
Y3475D01*
X6198Y3515D02*
Y3475D01*
X6190Y3515D02*
X6209D01*
X6215Y3513D01*
X6219Y3509D01*
X6220Y3505D01*
X6222Y3500D01*
Y3490D01*
X6220Y3485D01*
X6219Y3481D01*
X6215Y3477D01*
X6209Y3475D01*
X6190D01*
X6209Y3515D02*
X6213Y3513D01*
X6217Y3509D01*
X6219Y3505D01*
X6220Y3500D01*
Y3490D01*
X6219Y3485D01*
X6217Y3481D01*
X6213Y3477D01*
X6209Y3475D01*
X6247Y3511D02*
Y3475D01*
X6258Y3486D02*
X6228D01*
X6249Y3515D01*
Y3475D01*
X6241D02*
X6254D01*
X6526Y4520D02*
Y4480D01*
X6528Y4520D02*
Y4480D01*
X6520Y4520D02*
X6539D01*
X6545Y4518D01*
X6549Y4514D01*
X6550Y4510D01*
X6552Y4505D01*
Y4495D01*
X6550Y4490D01*
X6549Y4486D01*
X6545Y4482D01*
X6539Y4480D01*
X6520D01*
X6539Y4520D02*
X6543Y4518D01*
X6547Y4514D01*
X6549Y4510D01*
X6550Y4505D01*
Y4495D01*
X6549Y4490D01*
X6547Y4486D01*
X6543Y4482D01*
X6539Y4480D01*
X6560Y4512D02*
X6562Y4510D01*
X6560Y4509D01*
X6558Y4510D01*
Y4512D01*
X6560Y4516D01*
X6562Y4518D01*
X6567Y4520D01*
X6575D01*
X6581Y4518D01*
X6582Y4516D01*
X6584Y4512D01*
Y4509D01*
X6582Y4505D01*
X6577Y4501D01*
X6567Y4497D01*
X6563Y4495D01*
X6560Y4491D01*
X6558Y4486D01*
Y4480D01*
X6575Y4520D02*
X6579Y4518D01*
X6581Y4516D01*
X6582Y4512D01*
Y4509D01*
X6581Y4505D01*
X6575Y4501D01*
X6567Y4497D01*
X6558Y4484D02*
X6560Y4486D01*
X6563D01*
X6573Y4482D01*
X6579D01*
X6582Y4484D01*
X6584Y4486D01*
Y4490D01*
X6563Y4486D02*
X6573Y4480D01*
X6581D01*
X6582Y4482D01*
X6584Y4486D01*
X6226Y3215D02*
Y3175D01*
X6228Y3215D02*
Y3175D01*
X6220Y3215D02*
X6239D01*
X6245Y3213D01*
X6249Y3209D01*
X6250Y3205D01*
X6252Y3200D01*
Y3190D01*
X6250Y3185D01*
X6249Y3181D01*
X6245Y3177D01*
X6239Y3175D01*
X6220D01*
X6239Y3215D02*
X6243Y3213D01*
X6247Y3209D01*
X6249Y3205D01*
X6250Y3200D01*
Y3190D01*
X6249Y3185D01*
X6247Y3181D01*
X6243Y3177D01*
X6239Y3175D01*
X6258Y3207D02*
X6262Y3209D01*
X6267Y3215D01*
Y3175D01*
X6265Y3213D02*
Y3175D01*
X6258D02*
X6275D01*
X4537Y4489D02*
X4539Y4484D01*
Y4495D01*
X4537Y4489D01*
X4533Y4493D01*
X4527Y4495D01*
X4523D01*
X4518Y4493D01*
X4514Y4489D01*
X4512Y4485D01*
X4510Y4480D01*
Y4470D01*
X4512Y4465D01*
X4514Y4461D01*
X4518Y4457D01*
X4523Y4455D01*
X4527D01*
X4533Y4457D01*
X4537Y4461D01*
X4539Y4465D01*
X4523Y4495D02*
X4520Y4493D01*
X4516Y4489D01*
X4514Y4485D01*
X4512Y4480D01*
Y4470D01*
X4514Y4465D01*
X4516Y4461D01*
X4520Y4457D01*
X4523Y4455D01*
X4544Y4487D02*
X4548Y4489D01*
X4554Y4495D01*
Y4455D01*
X4552Y4493D02*
Y4455D01*
X4544D02*
X4561D01*
X4580Y4495D02*
X4574Y4493D01*
X4570Y4487D01*
X4568Y4478D01*
Y4472D01*
X4570Y4463D01*
X4574Y4457D01*
X4580Y4455D01*
X4584D01*
X4589Y4457D01*
X4593Y4463D01*
X4595Y4472D01*
Y4478D01*
X4593Y4487D01*
X4589Y4493D01*
X4584Y4495D01*
X4580D01*
X4576Y4493D01*
X4574Y4491D01*
X4572Y4487D01*
X4570Y4478D01*
Y4472D01*
X4572Y4463D01*
X4574Y4459D01*
X4576Y4457D01*
X4580Y4455D01*
X4584D02*
X4587Y4457D01*
X4589Y4459D01*
X4591Y4463D01*
X4593Y4472D01*
Y4478D01*
X4591Y4487D01*
X4589Y4491D01*
X4587Y4493D01*
X4584Y4495D01*
X4447Y4884D02*
X4449Y4879D01*
Y4890D01*
X4447Y4884D01*
X4443Y4888D01*
X4437Y4890D01*
X4433D01*
X4428Y4888D01*
X4424Y4884D01*
X4422Y4880D01*
X4420Y4875D01*
Y4865D01*
X4422Y4860D01*
X4424Y4856D01*
X4428Y4852D01*
X4433Y4850D01*
X4437D01*
X4443Y4852D01*
X4447Y4856D01*
X4449Y4860D01*
X4433Y4890D02*
X4430Y4888D01*
X4426Y4884D01*
X4424Y4880D01*
X4422Y4875D01*
Y4865D01*
X4424Y4860D01*
X4426Y4856D01*
X4430Y4852D01*
X4433Y4850D01*
X4479Y4877D02*
X4477Y4871D01*
X4473Y4867D01*
X4468Y4865D01*
X4466D01*
X4460Y4867D01*
X4456Y4871D01*
X4454Y4877D01*
Y4879D01*
X4456Y4884D01*
X4460Y4888D01*
X4466Y4890D01*
X4470D01*
X4475Y4888D01*
X4479Y4884D01*
X4481Y4879D01*
Y4867D01*
X4479Y4860D01*
X4477Y4856D01*
X4473Y4852D01*
X4468Y4850D01*
X4462D01*
X4458Y4852D01*
X4456Y4856D01*
Y4858D01*
X4458Y4860D01*
X4460Y4858D01*
X4458Y4856D01*
X4466Y4865D02*
X4462Y4867D01*
X4458Y4871D01*
X4456Y4877D01*
Y4879D01*
X4458Y4884D01*
X4462Y4888D01*
X4466Y4890D01*
X4470D02*
X4473Y4888D01*
X4477Y4884D01*
X4479Y4879D01*
Y4867D01*
X4477Y4860D01*
X4475Y4856D01*
X4471Y4852D01*
X4468Y4850D01*
X5907Y4159D02*
X5909Y4154D01*
Y4165D01*
X5907Y4159D01*
X5903Y4163D01*
X5897Y4165D01*
X5893D01*
X5888Y4163D01*
X5884Y4159D01*
X5882Y4155D01*
X5880Y4150D01*
Y4140D01*
X5882Y4135D01*
X5884Y4131D01*
X5888Y4127D01*
X5893Y4125D01*
X5897D01*
X5903Y4127D01*
X5907Y4131D01*
X5909Y4135D01*
X5893Y4165D02*
X5890Y4163D01*
X5886Y4159D01*
X5884Y4155D01*
X5882Y4150D01*
Y4140D01*
X5884Y4135D01*
X5886Y4131D01*
X5890Y4127D01*
X5893Y4125D01*
X5924Y4165D02*
X5918Y4163D01*
X5916Y4159D01*
Y4154D01*
X5918Y4150D01*
X5924Y4148D01*
X5931D01*
X5937Y4150D01*
X5939Y4154D01*
Y4159D01*
X5937Y4163D01*
X5931Y4165D01*
X5924D01*
X5920Y4163D01*
X5918Y4159D01*
Y4154D01*
X5920Y4150D01*
X5924Y4148D01*
X5931D02*
X5935Y4150D01*
X5937Y4154D01*
Y4159D01*
X5935Y4163D01*
X5931Y4165D01*
X5924Y4148D02*
X5918Y4146D01*
X5916Y4144D01*
X5914Y4140D01*
Y4133D01*
X5916Y4129D01*
X5918Y4127D01*
X5924Y4125D01*
X5931D01*
X5937Y4127D01*
X5939Y4129D01*
X5941Y4133D01*
Y4140D01*
X5939Y4144D01*
X5937Y4146D01*
X5931Y4148D01*
X5924D02*
X5920Y4146D01*
X5918Y4144D01*
X5916Y4140D01*
Y4133D01*
X5918Y4129D01*
X5920Y4127D01*
X5924Y4125D01*
X5931D02*
X5935Y4127D01*
X5937Y4129D01*
X5939Y4133D01*
Y4140D01*
X5937Y4144D01*
X5935Y4146D01*
X5931Y4148D01*
X4702Y4729D02*
X4704Y4724D01*
Y4735D01*
X4702Y4729D01*
X4698Y4733D01*
X4692Y4735D01*
X4688D01*
X4683Y4733D01*
X4679Y4729D01*
X4677Y4725D01*
X4675Y4720D01*
Y4710D01*
X4677Y4705D01*
X4679Y4701D01*
X4683Y4697D01*
X4688Y4695D01*
X4692D01*
X4698Y4697D01*
X4702Y4701D01*
X4704Y4705D01*
X4688Y4735D02*
X4685Y4733D01*
X4681Y4729D01*
X4679Y4725D01*
X4677Y4720D01*
Y4710D01*
X4679Y4705D01*
X4681Y4701D01*
X4685Y4697D01*
X4688Y4695D01*
X4709Y4735D02*
Y4724D01*
Y4727D02*
X4711Y4731D01*
X4715Y4735D01*
X4719D01*
X4728Y4729D01*
X4732D01*
X4734Y4731D01*
X4736Y4735D01*
X4711Y4731D02*
X4715Y4733D01*
X4719D01*
X4728Y4729D01*
X4736Y4735D02*
Y4729D01*
X4734Y4724D01*
X4726Y4714D01*
X4725Y4710D01*
X4723Y4705D01*
Y4695D01*
X4734Y4724D02*
X4725Y4714D01*
X4723Y4710D01*
X4721Y4705D01*
Y4695D01*
X4507Y4954D02*
X4509Y4949D01*
Y4960D01*
X4507Y4954D01*
X4503Y4958D01*
X4497Y4960D01*
X4493D01*
X4488Y4958D01*
X4484Y4954D01*
X4482Y4950D01*
X4480Y4945D01*
Y4935D01*
X4482Y4930D01*
X4484Y4926D01*
X4488Y4922D01*
X4493Y4920D01*
X4497D01*
X4503Y4922D01*
X4507Y4926D01*
X4509Y4930D01*
X4493Y4960D02*
X4490Y4958D01*
X4486Y4954D01*
X4484Y4950D01*
X4482Y4945D01*
Y4935D01*
X4484Y4930D01*
X4486Y4926D01*
X4490Y4922D01*
X4493Y4920D01*
X4537Y4954D02*
X4535Y4952D01*
X4537Y4950D01*
X4539Y4952D01*
Y4954D01*
X4537Y4958D01*
X4533Y4960D01*
X4528D01*
X4522Y4958D01*
X4518Y4954D01*
X4516Y4950D01*
X4514Y4943D01*
Y4931D01*
X4516Y4926D01*
X4520Y4922D01*
X4526Y4920D01*
X4530D01*
X4535Y4922D01*
X4539Y4926D01*
X4541Y4931D01*
Y4933D01*
X4539Y4939D01*
X4535Y4943D01*
X4530Y4945D01*
X4528D01*
X4522Y4943D01*
X4518Y4939D01*
X4516Y4933D01*
X4528Y4960D02*
X4524Y4958D01*
X4520Y4954D01*
X4518Y4950D01*
X4516Y4943D01*
Y4931D01*
X4518Y4926D01*
X4522Y4922D01*
X4526Y4920D01*
X4530D02*
X4533Y4922D01*
X4537Y4926D01*
X4539Y4931D01*
Y4933D01*
X4537Y4939D01*
X4533Y4943D01*
X4530Y4945D01*
X4722Y4949D02*
X4724Y4944D01*
Y4955D01*
X4722Y4949D01*
X4718Y4953D01*
X4712Y4955D01*
X4708D01*
X4703Y4953D01*
X4699Y4949D01*
X4697Y4945D01*
X4695Y4940D01*
Y4930D01*
X4697Y4925D01*
X4699Y4921D01*
X4703Y4917D01*
X4708Y4915D01*
X4712D01*
X4718Y4917D01*
X4722Y4921D01*
X4724Y4925D01*
X4708Y4955D02*
X4705Y4953D01*
X4701Y4949D01*
X4699Y4945D01*
X4697Y4940D01*
Y4930D01*
X4699Y4925D01*
X4701Y4921D01*
X4705Y4917D01*
X4708Y4915D01*
X4733Y4955D02*
X4729Y4936D01*
X4733Y4940D01*
X4739Y4942D01*
X4745D01*
X4750Y4940D01*
X4754Y4936D01*
X4756Y4930D01*
Y4926D01*
X4754Y4921D01*
X4750Y4917D01*
X4745Y4915D01*
X4739D01*
X4733Y4917D01*
X4731Y4919D01*
X4729Y4923D01*
Y4925D01*
X4731Y4926D01*
X4733Y4925D01*
X4731Y4923D01*
X4745Y4942D02*
X4748Y4940D01*
X4752Y4936D01*
X4754Y4930D01*
Y4926D01*
X4752Y4921D01*
X4748Y4917D01*
X4745Y4915D01*
X4733Y4955D02*
X4752D01*
X4733Y4953D02*
X4743D01*
X4752Y4955D01*
X5907Y4234D02*
X5909Y4229D01*
Y4240D01*
X5907Y4234D01*
X5903Y4238D01*
X5897Y4240D01*
X5893D01*
X5888Y4238D01*
X5884Y4234D01*
X5882Y4230D01*
X5880Y4225D01*
Y4215D01*
X5882Y4210D01*
X5884Y4206D01*
X5888Y4202D01*
X5893Y4200D01*
X5897D01*
X5903Y4202D01*
X5907Y4206D01*
X5909Y4210D01*
X5893Y4240D02*
X5890Y4238D01*
X5886Y4234D01*
X5884Y4230D01*
X5882Y4225D01*
Y4215D01*
X5884Y4210D01*
X5886Y4206D01*
X5890Y4202D01*
X5893Y4200D01*
X5933Y4236D02*
Y4200D01*
X5945Y4211D02*
X5914D01*
X5935Y4240D01*
Y4200D01*
X5928D02*
X5941D01*
X6068Y3829D02*
X6070Y3824D01*
Y3835D01*
X6068Y3829D01*
X6064Y3833D01*
X6058Y3835D01*
X6054D01*
X6049Y3833D01*
X6045Y3829D01*
X6043Y3825D01*
X6041Y3820D01*
Y3810D01*
X6043Y3805D01*
X6045Y3801D01*
X6049Y3797D01*
X6054Y3795D01*
X6058D01*
X6064Y3797D01*
X6068Y3801D01*
X6070Y3805D01*
X6054Y3835D02*
X6051Y3833D01*
X6047Y3829D01*
X6045Y3825D01*
X6043Y3820D01*
Y3810D01*
X6045Y3805D01*
X6047Y3801D01*
X6051Y3797D01*
X6054Y3795D01*
X6077Y3827D02*
X6079Y3825D01*
X6077Y3824D01*
X6075Y3825D01*
Y3827D01*
X6077Y3831D01*
X6079Y3833D01*
X6085Y3835D01*
X6092D01*
X6098Y3833D01*
X6100Y3829D01*
Y3824D01*
X6098Y3820D01*
X6092Y3818D01*
X6087D01*
X6092Y3835D02*
X6096Y3833D01*
X6098Y3829D01*
Y3824D01*
X6096Y3820D01*
X6092Y3818D01*
X6096Y3816D01*
X6100Y3812D01*
X6102Y3808D01*
Y3803D01*
X6100Y3799D01*
X6098Y3797D01*
X6092Y3795D01*
X6085D01*
X6079Y3797D01*
X6077Y3799D01*
X6075Y3803D01*
Y3805D01*
X6077Y3806D01*
X6079Y3805D01*
X6077Y3803D01*
X6098Y3814D02*
X6100Y3808D01*
Y3803D01*
X6098Y3799D01*
X6096Y3797D01*
X6092Y3795D01*
X6557Y3919D02*
X6559Y3914D01*
Y3925D01*
X6557Y3919D01*
X6553Y3923D01*
X6547Y3925D01*
X6543D01*
X6538Y3923D01*
X6534Y3919D01*
X6532Y3915D01*
X6530Y3910D01*
Y3900D01*
X6532Y3895D01*
X6534Y3891D01*
X6538Y3887D01*
X6543Y3885D01*
X6547D01*
X6553Y3887D01*
X6557Y3891D01*
X6559Y3895D01*
X6543Y3925D02*
X6540Y3923D01*
X6536Y3919D01*
X6534Y3915D01*
X6532Y3910D01*
Y3900D01*
X6534Y3895D01*
X6536Y3891D01*
X6540Y3887D01*
X6543Y3885D01*
X6566Y3917D02*
X6568Y3915D01*
X6566Y3914D01*
X6564Y3915D01*
Y3917D01*
X6566Y3921D01*
X6568Y3923D01*
X6574Y3925D01*
X6581D01*
X6587Y3923D01*
X6589Y3921D01*
X6591Y3917D01*
Y3914D01*
X6589Y3910D01*
X6583Y3906D01*
X6574Y3902D01*
X6570Y3900D01*
X6566Y3896D01*
X6564Y3891D01*
Y3885D01*
X6581Y3925D02*
X6585Y3923D01*
X6587Y3921D01*
X6589Y3917D01*
Y3914D01*
X6587Y3910D01*
X6581Y3906D01*
X6574Y3902D01*
X6564Y3889D02*
X6566Y3891D01*
X6570D01*
X6580Y3887D01*
X6585D01*
X6589Y3889D01*
X6591Y3891D01*
Y3895D01*
X6570Y3891D02*
X6580Y3885D01*
X6587D01*
X6589Y3887D01*
X6591Y3891D01*
X6287Y4213D02*
X6289Y4207D01*
Y4218D01*
X6287Y4213D01*
X6283Y4216D01*
X6277Y4218D01*
X6273D01*
X6268Y4216D01*
X6264Y4213D01*
X6262Y4209D01*
X6260Y4203D01*
Y4194D01*
X6262Y4188D01*
X6264Y4184D01*
X6268Y4180D01*
X6273Y4178D01*
X6277D01*
X6283Y4180D01*
X6287Y4184D01*
X6289Y4188D01*
X6273Y4218D02*
X6270Y4216D01*
X6266Y4213D01*
X6264Y4209D01*
X6262Y4203D01*
Y4194D01*
X6264Y4188D01*
X6266Y4184D01*
X6270Y4180D01*
X6273Y4178D01*
X6294Y4211D02*
X6298Y4213D01*
X6304Y4218D01*
Y4178D01*
X6302Y4216D02*
Y4178D01*
X6294D02*
X6311D01*
D21*
X6137Y3825D02*
D03*
D22*
X6350Y3825D02*
D03*
X6122Y3825D02*
D03*
D23*
X6558Y4158D02*
D03*
D24*
X6559Y3945D02*
D03*
X6558Y4173D02*
D03*
M02*
